<mxfile host="app.diagrams.net" modified="2022-09-06T14:27:42.199Z" agent="5.0 (Windows NT 10.0; Win64; x64) AppleWebKit/537.36 (KHTML, like Gecko) Chrome/98.0.4758.81 Safari/537.36" etag="MZJ6TWo1mOXdaoWMl0n4" version="20.2.8" type="github">
  <diagram id="tJY2ODOWQmyJSE9CdAt4" name="第 1 页">
    <mxGraphModel dx="3555" dy="3504" grid="1" gridSize="10" guides="1" tooltips="1" connect="1" arrows="1" fold="1" page="1" pageScale="1" pageWidth="1169" pageHeight="827" background="none" math="0" shadow="0">
      <root>
        <mxCell id="0" />
        <mxCell id="1" parent="0" />
        <mxCell id="XovprL_gx-ZoLjHi6azD-30" value="" style="group" vertex="1" connectable="0" parent="1">
          <mxGeometry x="30" y="-1475" width="1550" height="470" as="geometry" />
        </mxCell>
        <mxCell id="XovprL_gx-ZoLjHi6azD-22" value="" style="rounded=1;whiteSpace=wrap;html=1;fontSize=18;" vertex="1" parent="XovprL_gx-ZoLjHi6azD-30">
          <mxGeometry width="1550" height="470" as="geometry" />
        </mxCell>
        <mxCell id="XovprL_gx-ZoLjHi6azD-8" style="edgeStyle=orthogonalEdgeStyle;curved=1;orthogonalLoop=1;jettySize=auto;html=1;dashed=1;fontSize=18;" edge="1" parent="XovprL_gx-ZoLjHi6azD-30" source="G7RzPLKMRkM8X4vD6-xc-5">
          <mxGeometry relative="1" as="geometry">
            <mxPoint x="1312.755102040817" y="247.36842105263167" as="targetPoint" />
            <Array as="points">
              <mxPoint x="854.0816326530612" y="105.13157894736833" />
              <mxPoint x="854.0816326530612" y="247.36842105263167" />
            </Array>
          </mxGeometry>
        </mxCell>
        <mxCell id="G7RzPLKMRkM8X4vD6-xc-5" value="&lt;font style=&quot;font-size: 36px; font-weight: normal;&quot;&gt;Amazon EC2&lt;/font&gt;" style="sketch=0;outlineConnect=0;fontColor=#232F3E;gradientColor=none;strokeColor=#ffffff;fillColor=#232F3E;dashed=0;verticalLabelPosition=bottom;verticalAlign=top;align=center;html=1;fontSize=10;fontStyle=1;spacing=3;shape=mxgraph.aws4.productIcon;prIcon=mxgraph.aws4.ec2;labelPosition=center;" parent="XovprL_gx-ZoLjHi6azD-30" vertex="1">
          <mxGeometry x="128.11" y="49.47" width="126.53" height="120.53" as="geometry" />
        </mxCell>
        <mxCell id="XovprL_gx-ZoLjHi6azD-9" style="edgeStyle=orthogonalEdgeStyle;curved=1;orthogonalLoop=1;jettySize=auto;html=1;dashed=1;fontSize=18;" edge="1" parent="XovprL_gx-ZoLjHi6azD-30" source="G7RzPLKMRkM8X4vD6-xc-9">
          <mxGeometry relative="1" as="geometry">
            <mxPoint x="1312.755102040817" y="259.7368421052631" as="targetPoint" />
            <Array as="points">
              <mxPoint x="854.5129870129871" y="325" />
              <mxPoint x="854.5129870129871" y="260" />
            </Array>
          </mxGeometry>
        </mxCell>
        <mxCell id="G7RzPLKMRkM8X4vD6-xc-9" value="&lt;font style=&quot;font-size: 36px; font-weight: normal;&quot;&gt;Application Service&amp;nbsp;&lt;/font&gt;" style="sketch=0;outlineConnect=0;fontColor=#232F3E;gradientColor=none;strokeColor=#ffffff;fillColor=#232F3E;dashed=0;verticalLabelPosition=bottom;verticalAlign=top;align=center;html=1;whiteSpace=wrap;fontSize=10;fontStyle=1;spacing=3;shape=mxgraph.aws4.productIcon;prIcon=mxgraph.aws4.service_catalog;labelPosition=center;" parent="XovprL_gx-ZoLjHi6azD-30" vertex="1">
          <mxGeometry x="126.53" y="255" width="126.53" height="125" as="geometry" />
        </mxCell>
        <mxCell id="G7RzPLKMRkM8X4vD6-xc-17" value="&lt;font style=&quot;font-size: 36px;&quot;&gt;Zabbix&lt;/font&gt;" style="sketch=0;outlineConnect=0;fontColor=#232F3E;gradientColor=none;strokeColor=#ffffff;fillColor=#232F3E;dashed=0;verticalLabelPosition=middle;verticalAlign=bottom;align=center;html=1;whiteSpace=wrap;fontSize=10;fontStyle=1;spacing=3;shape=mxgraph.aws4.productIcon;prIcon=mxgraph.aws4.personal_health_dashboard;" parent="XovprL_gx-ZoLjHi6azD-30" vertex="1">
          <mxGeometry x="1328.5714285714287" y="197.89" width="126.5262987012987" height="192.11" as="geometry" />
        </mxCell>
        <mxCell id="XovprL_gx-ZoLjHi6azD-57" value="" style="group" vertex="1" connectable="0" parent="1">
          <mxGeometry x="30" y="-960" width="1550" height="830" as="geometry" />
        </mxCell>
        <mxCell id="XovprL_gx-ZoLjHi6azD-23" value="" style="rounded=1;whiteSpace=wrap;html=1;fontSize=18;" vertex="1" parent="XovprL_gx-ZoLjHi6azD-57">
          <mxGeometry width="1550" height="830" as="geometry" />
        </mxCell>
        <mxCell id="G7RzPLKMRkM8X4vD6-xc-13" value="&lt;span style=&quot;background-color: rgb(255, 255, 255); font-weight: normal;&quot;&gt;&lt;font style=&quot;font-size: 36px;&quot;&gt;Amazon S3&lt;/font&gt;&lt;/span&gt;" style="sketch=0;outlineConnect=0;fontColor=#232F3E;gradientColor=none;strokeColor=#ffffff;fillColor=#232F3E;dashed=0;verticalLabelPosition=bottom;verticalAlign=top;align=center;html=1;fontSize=10;fontStyle=1;spacing=3;shape=mxgraph.aws4.productIcon;prIcon=mxgraph.aws4.s3;labelPosition=center;" parent="XovprL_gx-ZoLjHi6azD-57" vertex="1">
          <mxGeometry x="686.4285714285714" y="378.38235294117646" width="126.53061224489797" height="134.26470588235293" as="geometry" />
        </mxCell>
        <mxCell id="XovprL_gx-ZoLjHi6azD-32" style="edgeStyle=orthogonalEdgeStyle;curved=1;orthogonalLoop=1;jettySize=auto;html=1;dashed=1;fontSize=36;" edge="1" parent="XovprL_gx-ZoLjHi6azD-57">
          <mxGeometry relative="1" as="geometry">
            <mxPoint x="1138.775510204082" y="441.5147058823527" as="sourcePoint" />
            <mxPoint x="1320" y="441.5147058823527" as="targetPoint" />
          </mxGeometry>
        </mxCell>
        <mxCell id="G7RzPLKMRkM8X4vD6-xc-15" value="&lt;font style=&quot;font-size: 36px; font-weight: normal;&quot;&gt;Logstash&lt;/font&gt;" style="sketch=0;outlineConnect=0;fontColor=#232F3E;gradientColor=none;strokeColor=#ffffff;fillColor=#232F3E;dashed=0;verticalLabelPosition=bottom;verticalAlign=top;align=center;html=1;fontSize=10;fontStyle=1;spacing=3;shape=mxgraph.aws4.productIcon;prIcon=mxgraph.aws4.cost_and_usage_report;labelPosition=center;" parent="XovprL_gx-ZoLjHi6azD-57" vertex="1">
          <mxGeometry x="1012.2448979591836" y="378.38235294117646" width="126.53061224489797" height="134.26470588235293" as="geometry" />
        </mxCell>
        <mxCell id="pdvtcB01t5W5UgY1sVy7-80" style="edgeStyle=orthogonalEdgeStyle;curved=1;rounded=0;jumpStyle=arc;orthogonalLoop=1;jettySize=auto;html=1;dashed=1;" parent="XovprL_gx-ZoLjHi6azD-57" edge="1">
          <mxGeometry relative="1" as="geometry">
            <mxPoint x="812.9591836734699" y="438.25" as="sourcePoint" />
            <mxPoint x="1012.2448979591836" y="438.25" as="targetPoint" />
            <Array as="points">
              <mxPoint x="917.3469387755102" y="438.2058823529412" />
              <mxPoint x="917.3469387755102" y="438.2058823529412" />
            </Array>
          </mxGeometry>
        </mxCell>
        <mxCell id="G7RzPLKMRkM8X4vD6-xc-16" value="&lt;font style=&quot;font-size: 36px;&quot;&gt;Elasticsearch&lt;/font&gt;" style="sketch=0;outlineConnect=0;fontColor=#232F3E;gradientColor=none;strokeColor=#ffffff;fillColor=#232F3E;dashed=0;verticalLabelPosition=bottom;verticalAlign=top;align=center;html=1;fontSize=10;fontStyle=1;spacing=3;shape=mxgraph.aws4.productIcon;prIcon=mxgraph.aws4.sagemaker;labelPosition=center;" parent="XovprL_gx-ZoLjHi6azD-57" vertex="1">
          <mxGeometry x="1320" y="378.38235294117646" width="126.53061224489797" height="134.26470588235293" as="geometry" />
        </mxCell>
        <mxCell id="XovprL_gx-ZoLjHi6azD-13" style="edgeStyle=orthogonalEdgeStyle;curved=1;orthogonalLoop=1;jettySize=auto;html=1;dashed=1;fontSize=18;" edge="1" parent="XovprL_gx-ZoLjHi6azD-57" source="pdvtcB01t5W5UgY1sVy7-30" target="G7RzPLKMRkM8X4vD6-xc-13">
          <mxGeometry relative="1" as="geometry">
            <mxPoint x="664.2857142857142" y="427.2058823529412" as="targetPoint" />
            <Array as="points">
              <mxPoint x="442.85714285714283" y="524.8529411764706" />
              <mxPoint x="442.85714285714283" y="427.2058823529412" />
            </Array>
          </mxGeometry>
        </mxCell>
        <mxCell id="pdvtcB01t5W5UgY1sVy7-30" value="&lt;font style=&quot;font-size: 36px;&quot;&gt;Amazon ECS Logs&lt;/font&gt;" style="sketch=0;points=[[0,0,0],[0.25,0,0],[0.5,0,0],[0.75,0,0],[1,0,0],[0,1,0],[0.25,1,0],[0.5,1,0],[0.75,1,0],[1,1,0],[0,0.25,0],[0,0.5,0],[0,0.75,0],[1,0.25,0],[1,0.5,0],[1,0.75,0]];outlineConnect=0;fontColor=#232F3E;gradientColor=#F78E04;gradientDirection=north;fillColor=#D05C17;strokeColor=#ffffff;dashed=0;verticalLabelPosition=bottom;verticalAlign=top;align=center;html=1;fontSize=12;fontStyle=0;shape=mxgraph.aws4.resourceIcon;resIcon=mxgraph.aws4.ecs;" parent="XovprL_gx-ZoLjHi6azD-57" vertex="1">
          <mxGeometry x="126.53061224489795" y="481.02941176470586" width="126.53061224489797" height="97.6470588235294" as="geometry" />
        </mxCell>
        <mxCell id="XovprL_gx-ZoLjHi6azD-11" style="edgeStyle=orthogonalEdgeStyle;curved=1;orthogonalLoop=1;jettySize=auto;html=1;dashed=1;fontSize=18;" edge="1" parent="XovprL_gx-ZoLjHi6azD-57" source="pdvtcB01t5W5UgY1sVy7-35">
          <mxGeometry relative="1" as="geometry">
            <mxPoint x="680.1020408163265" y="439.41176470588243" as="targetPoint" />
            <Array as="points">
              <mxPoint x="506.1224489795918" y="720.1470588235294" />
              <mxPoint x="506.1224489795918" y="439.41176470588243" />
            </Array>
          </mxGeometry>
        </mxCell>
        <mxCell id="pdvtcB01t5W5UgY1sVy7-35" value="&lt;font style=&quot;font-size: 36px;&quot;&gt;Amazon RDS&amp;nbsp;Logs&lt;/font&gt;" style="sketch=0;points=[[0,0,0],[0.25,0,0],[0.5,0,0],[0.75,0,0],[1,0,0],[0,1,0],[0.25,1,0],[0.5,1,0],[0.75,1,0],[1,1,0],[0,0.25,0],[0,0.5,0],[0,0.75,0],[1,0.25,0],[1,0.5,0],[1,0.75,0]];outlineConnect=0;fontColor=#232F3E;gradientColor=#4D72F3;gradientDirection=north;fillColor=#3334B9;strokeColor=#ffffff;dashed=0;verticalLabelPosition=bottom;verticalAlign=top;align=center;html=1;fontSize=12;fontStyle=0;shape=mxgraph.aws4.resourceIcon;resIcon=mxgraph.aws4.rds;" parent="XovprL_gx-ZoLjHi6azD-57" vertex="1">
          <mxGeometry x="126.53061224489795" y="660.0035294117647" width="126.64" height="97.64" as="geometry" />
        </mxCell>
        <mxCell id="XovprL_gx-ZoLjHi6azD-12" style="edgeStyle=orthogonalEdgeStyle;curved=1;orthogonalLoop=1;jettySize=auto;html=1;dashed=1;fontSize=18;" edge="1" parent="XovprL_gx-ZoLjHi6azD-57" source="pdvtcB01t5W5UgY1sVy7-39">
          <mxGeometry relative="1" as="geometry">
            <mxPoint x="680.1020408163265" y="427.2058823529412" as="targetPoint" />
            <Array as="points">
              <mxPoint x="442.85714285714283" y="329.5588235294117" />
              <mxPoint x="442.85714285714283" y="427.2058823529412" />
            </Array>
          </mxGeometry>
        </mxCell>
        <mxCell id="pdvtcB01t5W5UgY1sVy7-39" value="&lt;font style=&quot;font-size: 36px;&quot;&gt;Amazon&lt;br style=&quot;&quot;&gt;CloudTrail&lt;/font&gt;" style="sketch=0;points=[[0,0,0],[0.25,0,0],[0.5,0,0],[0.75,0,0],[1,0,0],[0,1,0],[0.25,1,0],[0.5,1,0],[0.75,1,0],[1,1,0],[0,0.25,0],[0,0.5,0],[0,0.75,0],[1,0.25,0],[1,0.5,0],[1,0.75,0]];points=[[0,0,0],[0.25,0,0],[0.5,0,0],[0.75,0,0],[1,0,0],[0,1,0],[0.25,1,0],[0.5,1,0],[0.75,1,0],[1,1,0],[0,0.25,0],[0,0.5,0],[0,0.75,0],[1,0.25,0],[1,0.5,0],[1,0.75,0]];outlineConnect=0;fontColor=#232F3E;gradientColor=#F34482;gradientDirection=north;fillColor=#BC1356;strokeColor=#ffffff;dashed=0;verticalLabelPosition=bottom;verticalAlign=top;align=center;html=1;fontSize=12;fontStyle=0;shape=mxgraph.aws4.resourceIcon;resIcon=mxgraph.aws4.cloudtrail;" parent="XovprL_gx-ZoLjHi6azD-57" vertex="1">
          <mxGeometry x="126.53061224489795" y="272.99529411764706" width="126.53061224489797" height="97.6470588235294" as="geometry" />
        </mxCell>
        <mxCell id="XovprL_gx-ZoLjHi6azD-10" style="edgeStyle=orthogonalEdgeStyle;curved=1;orthogonalLoop=1;jettySize=auto;html=1;dashed=1;fontSize=18;" edge="1" parent="XovprL_gx-ZoLjHi6azD-57" source="pdvtcB01t5W5UgY1sVy7-59">
          <mxGeometry relative="1" as="geometry">
            <mxPoint x="680.1020408163265" y="415" as="targetPoint" />
            <Array as="points">
              <mxPoint x="506.1224489795918" y="115.95588235294122" />
              <mxPoint x="506.1224489795918" y="415" />
            </Array>
          </mxGeometry>
        </mxCell>
        <mxCell id="pdvtcB01t5W5UgY1sVy7-59" value="&lt;font style=&quot;font-size: 36px; font-weight: normal;&quot;&gt;Amazon &lt;br&gt;Load Balancer&lt;/font&gt;" style="sketch=0;outlineConnect=0;fontColor=#232F3E;gradientColor=none;strokeColor=#ffffff;fillColor=#F78E04;dashed=0;verticalLabelPosition=bottom;verticalAlign=top;align=center;html=1;fontSize=10;fontStyle=1;spacing=3;shape=mxgraph.aws4.productIcon;prIcon=mxgraph.aws4.network_load_balancer;labelPosition=center;" parent="XovprL_gx-ZoLjHi6azD-57" vertex="1">
          <mxGeometry x="126.53" y="30" width="126.53" height="120" as="geometry" />
        </mxCell>
        <mxCell id="XovprL_gx-ZoLjHi6azD-58" style="edgeStyle=orthogonalEdgeStyle;curved=1;orthogonalLoop=1;jettySize=auto;html=1;dashed=1;fontSize=36;" edge="1" parent="1" source="G7RzPLKMRkM8X4vD6-xc-17">
          <mxGeometry relative="1" as="geometry">
            <mxPoint x="2040" y="-520" as="targetPoint" />
            <Array as="points">
              <mxPoint x="1800" y="-1181" />
              <mxPoint x="1800" y="-520" />
            </Array>
          </mxGeometry>
        </mxCell>
        <mxCell id="XovprL_gx-ZoLjHi6azD-59" style="edgeStyle=orthogonalEdgeStyle;curved=1;orthogonalLoop=1;jettySize=auto;html=1;dashed=1;fontSize=36;" edge="1" parent="1" source="G7RzPLKMRkM8X4vD6-xc-16">
          <mxGeometry relative="1" as="geometry">
            <mxPoint x="2050" y="-514.5000000000005" as="targetPoint" />
            <Array as="points">
              <mxPoint x="1710" y="-515" />
              <mxPoint x="1710" y="-515" />
            </Array>
          </mxGeometry>
        </mxCell>
        <mxCell id="XovprL_gx-ZoLjHi6azD-61" style="edgeStyle=orthogonalEdgeStyle;curved=1;orthogonalLoop=1;jettySize=auto;html=1;dashed=1;fontSize=36;" edge="1" parent="1" source="G7RzPLKMRkM8X4vD6-xc-2">
          <mxGeometry relative="1" as="geometry">
            <mxPoint x="2040" y="-510" as="targetPoint" />
            <Array as="points">
              <mxPoint x="1800" y="370" />
              <mxPoint x="1800" y="-510" />
            </Array>
          </mxGeometry>
        </mxCell>
        <mxCell id="XovprL_gx-ZoLjHi6azD-62" value="" style="shape=image;verticalLabelPosition=bottom;labelBackgroundColor=default;verticalAlign=top;aspect=fixed;imageAspect=0;image=data:image/png,iVBORw0KGgoAAAANSUhEUgAAAcYAAAHWCAYAAADttCmyAAAgAElEQVR4nOy9abAk2XXf9zv3ZmZVvaX3ZXYsAwz2HSCEhRDJCIqUTIp2KExGiLIty5QVYTtkfpA+2P7glRFy2OGgSCnCpCzSsCSSoCASFEAsBIhlAGIGnH0HeqanZ3rf315LZt57/OFmVmXVq/d6me5+r/vdX0d21auqzMrKunX/95x7zrmiqkokEolEIhEAzFafQCQSiUQi24kojJFIJBKJNIjCGIlEIpFIgyiMkUgkEok0iMIYiUQikUiDKIyRSCQSiTSIwhiJRCKRSIMojJFIJBKJNIjCGIlEIpFIg2SrTyAS2XboaFNALYDD4MFbKA0IkHrAUAB5WTJTlohbhQsvwte/wMXvfIv5oo8TcAYurizR2jXHPZ/6BPzNX4Z97wezD2wGltEwVT2IAxSPAAZBkCudM1Jt9WM68RKpntaxR8f/HiFixo8XiewQJJaEi0Sm0BRGA1BiUNAEnICFQvoMtI84yywG3ABefJKjX/4c+SvPczjv0nE5XsIupYFSFJOldOcO88DP/efwnk/CvntAUkgNamopcihaSZZEYYxEbiFRGCORCdb/IBzgUQQlQYECcKzQpgxul7Ulyq98nhPf+xZy6TLtvMeMdVgt8QIqIEmCWiF3jqXcY/fey753fZRd/9Hfhf33QzqLT8K7ARg8gmLGZjw2+LlGYYxEbhhRGCORCXT4/2jTShiFFAcYHJZVoICXn+Pkt/+MtSce5lDex3YL2jYhJ8dVMidiUIGiLECErNUBLL1sFyt77+PBn/o55NM/DdksJCklJlioKGZMnG6VMEoljJHIziMKYySyjqYg1vc8qp5EDL7sYcoBGIUjz3Ds879DcfIVZooBnbKk5YKl51JLiSJaSZaOdEkwWCyFJHTThIVslgc+8zPM/fwvwswhVDIkySbOaTOmWHaTu0w1/prC2HxBtBQjO5cojJHIOrShFVJZiCAUMFiCohuCZb77XZ774z/gblkm7S/hBgXGK4mG2cEiFbwEQTTDTTAKooKoCfOPxtFNEy635sne8l7e9p/8VzB7EHbvB9MandOm3ChhjIIYiURhjESmWUyeMNknUCThFRl9WDgFSYH74h9x9JvfYK7fpWMUKXOsL0EFJwlOFJ+WKCVGwVab8YLRIEClWMLdMgTmZG1WbcaKneGDv/wP4N2fwO+7tzHHuNlPdRNhvGLUThTGSKRJFMbIzqSpByZYeNJ4StQMhdFZsDigB2ePcunffZbFZx9nvrtKx3vKsg7LCfOQpWQ4o2hSQCWMQ3GshNFjKI1BRZEquMekCauDnMJmnLGzvOc//a+Z+9CnYM8hMG2CmTopXJupX/OnvZngXZWCRiI7hiiMkZ1JbRECpODwlfhp9ZRgSUfxoPkynHyFF//5/0F26RWy7gJzaYqpva6qGEKAi0q1Ga0eqdyoPrhSpbLMvFAJcjWfqeEvL4ZukrA01yF58L089Kv/K9g9qLc4SUlkIsBm+OeksPnG/WgNRiJXSxTGyM5EFUpABJ8ECUnwgB8mZ/SLHvOJQFnA0R/x0m//M3Ytn2HOLWJdF+cVv+HPR0BCXGkdeGO0ykjUSqBkIiLUj+6XRik6cNondN73Ezz0t34F3vQhyEt84TAzjbnHDfVu2iRjFMdI5EpEYYzsQJoRp6b2mJL4cKcUAE/CMvgePP4Yxz73b+D86+xNHKtL55mf7eC93+Q9xtMdRhGp44n6soEwOiu4jsG3Z+jR4QJ7+PCv/Hfw4AfBpmAttIR14jfmPY3CGIlcD1EYIzuQMKcYasuMyq3Zyi3qBSx9YJnBN7/E6S//KfbM66T5MnMti6hQujIEzoyl+jVdnIwLIxOSpOsfU9+Y5zRCmSilelyu+Lm7WN7zIO/82/8APvQJ6OfQSde7UZs/5yiMkch1EYUxskOpJxlNqH86qRnLr8FT3+W1b3wJd+xl9kkJbkCiSlpaECG3DmcagSvDJPvqkcZc4NUIY/PxcKeyZTWjkIxLuac89Gbe8Xf+G/jQJ4OFmaaQTc93HBWU2/AsIpHIFGJpi8gOZnyOr5cXlIMlGJyBo8/y6je+RHruBHuMov0BiTdYbxG1VHkWE8e7AaJTTz8iWG+qKFZPqjn7s5xdg3M89dnfgGe+D2kCpaIra8PPo4Sp04Lx0JtIJHL1xNU1IjsSJQiHApgwQuxkCoNVeO1Fnvjdf8auhbO0BTJp42UWOwBrhMI6nKlcqTft/AyeFFC8yXGmpFuWtCTj7vI0L/2rf8q7aMPbP4y0Ehjk0EoZADlBX+sEj0gkcm1EizGyQxHAjlIZGUDvAhx7gad/+//icLHEPlMi/S6D7hrGGKxNQjqFUbzRKt9Rqm3kqJy2bYRObDRuPYIXQQW8OsTAYHWJdn8Be+EYj//+v4Qjz0Aq4Erqmq6h8HidBhKJRK6VOMcY2ZnU5qICtgfShVdf4Jlf/zV2Dc6zyw8w/RLrTQjQUVNVrAEviko4wBsyGptxMhO3IV61mm0Uj1eP2GD/GVVKyVgsWlyePcRH/uH/AO/6AGRt+j5HcCTGIthQqKA+YlwtIxK5KqLFGNmZBIMxTCasLcCF45z/3GdpXzjFAWsweVEFdVaVaaTEm7AhriFbb/Acqq1pLdbJJIqvBBiMmKrOagiFTdQx55bYOzjP45/9TTj6PPgBWX9Ay8xA6dYHpUYikasiCmNkZzJUNQ9lj4XP/z5LLz/P7kRwfUVdFoJstoiJANd1eIE1XzA/aznUPcMr//qfw8J5jAhFf5nC2GFhn0gkcm1EYYzsOFQV1IMWMFig+4U/5Mwj3+VQJiSuYG1xFXzCtbkda9NPGhGr12dTXkkUw2uUbCYlsyXp8jncay/yo9/4J9BbIG23aJs2Nq6nGIlcF/GXE9mZDHowWKb31S9w4uE/534LurpEKjDbnqlWtLhGYWsK4rWGrEojAOdqdhVPYksG3UU6Rtgvjs7JF+j90e+EFUD8agy+iUSukyiMkR2B9x7nHN77kHjfzuC5J3jtz77I3NoSbmURo2E+T6qIzlsuLNdgZIqG8zPqsL6k7QaYxdMc/8s/h2e/D3SBcqzIwHQm6rVGIpEojJGdgTEG5xqzbhfOcfbffY59Z06wLzHMzM2FdRSNAXEYCq5ZMKSReHHTI18ENJSnsxQYcmY6LWb8gGc+///Ai98H12fzn/i0ZJFIJBKFMXLHUnf3dWZGlmUY8dC/zJmvfh536mUO75vBF2usrK005ME19po04zYy6xqCKLdCbASjZpSOIZ7UGva2Evb0Fnnu//0tWLkEflCd0nBxqw2OF0UyEqmJwhi5I6m7d0cokeYBSgeuy9rnf4vL3/wDWrLMWu8SLi1J24IVJQHMsDj4RJq+bjR3eOvFxCgkaklI8CbDS4YvS4qlZWYHJTOXFzj1u78Na4vghX53MEwBGZ7yOqI4RiIQhTFyB+MbW0i8KODFpzj7/W9yqFghYYAzLqhMqDODbGRTNWujbgvNCDmNogbFomKqFUI8mffMlTmLz/4Ann4E8i7tJCG8IqwROdL3jUQwimRk5xKFMXJHEpaV8vg6Ed/lsHSG01/9E7LuACkaCwZPItcrBdtHTFKfs88v8eq////g/KvQtuCCmDqCJR3OcLPz3T6fJxK5lURhjNyR1PNpngEtSihW0e9+lQvPP0bHe3bN7NpYGOE6UhC3l4hYLZmXPtnaeU7+2Rdg8SI4Bd/8aM3zvNJ5b4/PFYncCqIwRu5YPEriC3Br8MqzvPKdr3BA+ySuoN/voxqWNKy3272OqIgZbkaUsuwyuHSKiz94GJ5/IhQ0ELA+VMIT6tJzuklQTiSy84jCGLntmWarCdDrdcmMhbVLnP/Wn2IXzjJDDlrgcXi9c1csVBFs2mLv7Cy7B0u88sXPwZnXIC9qRQTVKqAIRoOC7WP1RiJbRRTGyG3PpDCGJAthb2cX9PrwyDe5/PxfMksJ3lFKQWkcKsqduriMJ8En8zhJmc8ca8dfYPV7X4fuIojiXVnNvg5DcBvpHM2lRyKRnUcUxsjti45umhGojpBKaPI+5Gs897Uv0VpbICsHWF8ghBUyQBvrKE64USfnHydTGddxtSsw3hpEBVzC2tIahgG72znP/fkXYOE46Brq+wAhorVR58ejuGobl8Xt8bkikVtBFMbIbU0tio4wb1ZHXCLA2gXct7+EWbyIHQxouYLUF2Q4EjwWMCLDnPzRosPrZDIwTN5f98QG2w3+rOqvehOvpLlnd6tDQYHYPvP+Iq9//reguIjNFFVX2YWm2sK1y4GCIJLTixxEInc2URgjdwQK9Kv7Wf3IpVM8/eUvMK+efbMzGPUYo6g4EH8Vlt/kO9w+82+iYLzHahBAqyX7bcnqqy/BS09DbxHj/bBmwehTSfUvSmFk5xKFMXLHoARRlKKAi6dZ/ubX2asldtCH0uNFKA3kVinMHR6JKYqrshVTJ7RLIeuV7CuVU1/+KgwKcK7hhg7XIgHaCC2kKggQ5TGy84jCGLl9ER2GjligQ9WNry7C8aOcfPoH7DWONp7ECCqCEwlBN+LDbTjQln2Em4UCXkPNV+uF1AmzxjJflvRffhmefhLKnMSD4Kt/GmxFL+ANaL301p13fSKRzYjCGLlNGdk6VoOlA4TC2e2Es9/6KnODRWz3Mi3xeO9ALEiCxWABMQoGRASR61h/cVujIKHMnVUh8ULilazM2V/2OPeNr4B3iIEUQH11NStRdNsnkCgSudVEYYzcptTCSK0BgXYGP3qBhVdeoOPXSLSHkZKQiBACbRLvSdQPI1LvOAFQhjGmgg4Dikp1qM9p+x79s8fhhy+GwurD0BuDCyOFsEUiO5QojJHbm7FcjRLyHpe//zDlpTNYuqjpo6asZBGsQuodmfMkXhC1W3v+N5qhKI6XO3Ai5BYGpqAkDBhe//a3YVCCc2Ri8AgFUJgNFhEZvcWdPDt7FdyYKxArDm1fojBGblMqK69p7HWX4MIJjj/3KPvbYNShIlVhl0bMZbWOYdjqGMw7mTC/6gW8KB5HUva59OJTcOoYrC4DEMJ1lFKgtOvFcVohhZ1H49NrtQ1LI9QLe4Vt2r/ma8fvR7YTURgjtzFV87UK0oOkx6lv/gmz+XmycgnjLOraqDfDCjcei6OFo4Vyh1mLUK0Msj6fspmriSZkZcH9fpHB1z4HHRtyHRkgrOJZxrMGuLEiCpOCuHPFkUZJPQWt43o9bmIbhTX5dQI5un5RHLcbURgjdwAKmsPl01z+0VN06JFZDavba0JYg7B2MApeErwklYDcgZ27TBevUYUfg1UPK+c58eyj4HPSIifFk6DYam1KRVEZryrkG8fdmWyweLVODkZk4p/BYKokGDP2/B01v32HEIUxcvuiWvX8JiyP8cKTFBdOIt7jxTYsp+rlImPuwWF/dici06y80fVQlM5cC+tzePg74CD1hpQ2bT9P5mdxJPRpVsLZ4VZizaQYakhtMWpI1JBgSNVg1WB82MSPjzBGFZaaAhnZLkRhjGwTrnP2SjWsM1gWnH32SfYnihY5hfONyModOirfpEKdSKiIU64usvjSs1D2oXQkWqVr+FHXsOOFcJJm7fUp11ea5np9O80P3byNbCuiMEa2AdPCOq6ixxADRkLwyInXufijF2jnPRIUiekGm6Pg84J5C8ef+B6ceQW0B5KDGUDiSIE2YFyBG/RpZnre8v58m5iqwyDoymD0BgrjGWi5fiBiGFWfqLbBoAd4BoP+jh2v3Q4kV35JJHIzWd/j1QEJoxzDjRAYBGdf95nHmSkLMudRqcZ7qlfYf+ciQGItHs9svgRPfg8eeDO4YDniLZg5xLRo2ZRWlgKhyPgtX8VSJ+5vg69UcXgKQEmxQQB9b9ScRUa3VLelo5UJGKGVEIJ2ZNI2GVVj2gYfc8cShTGyNTQ7Oxl/eIOnJqieabVg5SxHH/suezwYbwlLStVdS+xeNsLahBbQyZdZfvRb7BoIHH4A7r8LDt4PrZnK8tFg8aSCsVBW+9cG0U6ibk2hIEIBLgfnqmcsGFs14tErh3v6Irj9VxdhZi4Eho0J42RmYxTHrSIKY+TWM21+RdY/PfZUc0HhKiXBAzbvwatHsIsXSXyocDOc44m9yoZIFYgk6pjNDPn5U5z4xp8yyGbIU6FnOhx8y0do77+HvXcfIt2/F975NsRCyxLK65GChKhfZGJjpA3h+xv+N/xefBUp3JCOG0YtMMOwlo1GXDLaYyy8yLtq8+NpGVrFN2sBl0/C2hLl0jK91TUunT2PVUW8YhTUV76Pqu2WZYH3SqfT5u5P/AS86b2QJuAHYeAhFqmuyfoTjdxKojBGbh6bzQkNO0odyydo9l+eqr9QDVGn1WuQ0TrzNl+DUyfYVfSwDFDjEG8RNZUn9ZY7/m4LVJSiHACKiCVBmfHLtAZr+BycWNwLF1nDslrVFW/Ndti1dw+7770HDt0L9z4E974V9uwHtVAKzO4CY3B5iW0ndPOcmSwLVpURho5ykcoRKVTS2owfrm43EIUJd+r6ZqbVgsvhuEmdc2IJ4bVQFYhtEg6YL18gSwV6qzA/A2dPw4njcO4c/fPnWD57loWzp9Gyj3M9RFyotYtiKlmrmug6jBX63R7tvXtYWbrA/N97T+WX7oZrI23GI3ruwDzb24QojJFbT1MUpyCMxu4eDf2p1CHy4QkjlTTOZJx66gmSIseaau152SAUMzJEdXw9SoPH6IB07CtZGd4TMZjCwOIJ1o49y5ptsbb7Li6UlrmDd3Pv29/N3KH7sG95CA7dgxWBvjDT3g39xTCwSVpgU1BTxU0pnoZVV59b4/6G3+AVxLGWFdMU2TrnpNabtRJ8DsaBLSFTMrdMceSHnHz+WdypE6SrK5Qry0i3y57E0M5z7itz8DmlFiiKGKFZyWYa3ntUHfvTFLMy4NwzjzJ/9CW4/yGYkap9h+/EIHjM+g8ZuWVEYYxsK+osu9q2KBFKBDGhP0s8IQIEwSQa/pDqbwUjHm9ywGJ8GpL8I28YVU9ZOMQIGMWWJenCaxxOW7gTZzlz/FlKWgycYe/Bezj41rcy/1c+Ag+9HbIZMCmoAzcDMgMKqa0WjG6EcYYB0XjY1bVLQ0ihx9VeBh9MOCuQ2BBctLgaXJimhFMn4MhzvPrUIwwunaFYusicNbS9IVGlo4p1JbJWBPGqvMWJCW9xNVVrjDF4r7RaLZx35CuXufidL3LgP/67sPeecEAtg8tWfOVejhbjVhGFMXLrmdbTqUdVEWMqd9QoMUBRLEoSlDKM/HUAdhVWz3Pvex7i/NGnAItqOnqTOzZ7/9YjYjCJIAKDYkDpBqRGmZMOadZGSSjKgkHu0FMrrCyc4JXHvoabn+eed72P1v572P/RH4c9dwdhTFpgzWgzdmjpN2396/4Gh94FH8RPyiDODGD5Ipx8jaVnHmXhtSOsnD9Dq+zTytfYnXdpu5yWtRibVVOMISt/ZW2JNE1otVrVMmWwmVU3ZgVX84yDwQARYd/sLK8/8R0OfPrH4dBdlSVdeUGi+3/LEVW98nAnErkeNmtZMpHtrB684kqHNQasBZOEqD+bAQNYuwRlAcdPwtOPs3jiCMXF05QXzpD5AsQFw8AbDIpKMYxQjbwxRAwigveuWuDZjwIqtSpzpray0A1OIE+hNIJogidhcS1n3933c/dD74D73w6f/FlIZ6FlIMtAWjgEWwd51m6DjdSxerxuSd1ul5mZmfFI2TyHpIDeIqxegqce4+RfPsrS60foJGuk5KRioCiR0mNVsT4E2BiR4fG9aijEruGNQ3m3ybnE8RpDzVvf6GaNCLnJ6CZz8LYP8sCv/i8wu7+ycDW4dgVqZ3Dk1hOFMXLdXDH4c6OWJbX7abSFYzQDDxS6y2AdLF9CjzzP+ZeeoTh3iu7J42TdFebKgsQVqCheABM65sRZBIeaQbAUIjcURUFoLNkYypvVt1K9xpsQWJX6sJJJqUIhQt8IXTvDktnLrgffyV0f/ABzDz4ID7ylsiTbIGmw8EbxOvVbrbtfa6cnRH6qKi0jwTWZZHDhFS5962v86OGvM9tdZFfeY2+mWNNF/aAKNhW8hpq6aBVM0whv9gqKxdersahgpRbGZpj1SBgnfxfqw3wkgMPikjYn7Dwf+p9+HebvgfmD1Y6V6/eOWzz79iEKY+S6aNp7G4a5bNCyVJoZW2GzzaOUHgar8MqTuKcf4ciTj1EuXuTu+TZubYG8vxTmfqSNqMGZ4Hw1EhYSNMNkjjK6pW4iIqZK2dNh6l4tUmERaAENnbtXwYtBsSC2CqxyFGLoacKqbXHfBz7Cwc/8VXj3u6CwMHN3EEmYPgqbsBjHbCvfg1efJv/O1zj69JO0ygFu6TJtHO3MkIkncQW4IizgLOCNGbZNpAr60rBMGd5gfIL62smv1TguzIrqmDjWv4mpiUfh9LAMnHC5Nc/8p3+a+37p70P7nsqtXF3AKIpbRhTGyHVRp0tAFSKgjWfW/Z7Hm1gIt1CEMuSKqQuLDBsLr73GyeefY/noS7hXnmBm5QJpMaCDpyWOLAVHTl4UiM8wJsOJGQqjKKjUGXI6pXOK3BhkOM/mpVqH0ASJCMIoGA3C6KUWRsFgyZKMVJRB9xJWADIK22Yt63BZhLW5Dvvf8X4e+ulfhHvfFtzqUm3GMsqXrM1JF6xDX4BtwfkTXPrBw1z41r8nvXCKZJAzn2VYDZGhpTiMQOoV8W507qYu9RY+j5H6c9ihMI7K/oQgHBUftqHXo3mFJtpeY85bxaKSckktF2f38PF//D/Dmz4CWRgIePUhWjeWNtwSojBGros6OFQgBMV4qog6DZVShnOIzcWKhAJHrjAjlUvq0mm4eBY9/irnX3ia/tmT9M+fpu36ZDog8QVWFaMeI0HotLICRQ2KqfqbRrBNw3IZ1+nYydw4xjvt2nIcPlvNxdWv9VV5Pq1uRcPSVkLIo3RicGIpjKFMDLnJGNg5/Mxu3vFjnyT5K5+G2T2wez+05gFLWRQkaQt0CfwarJznwhf/iNOPPcrM2ipzriRzLizXOVw3UcN5qkOqZP1RJlBlC1YNxzQSSUQN6sd9IyohUGbk+dikUs3EeFGxkLa43M1J9hzkvr/2C/Af/m1cepDagxJtxq0jCmPkmqm7gXFhVIbVaSwgDqUE3MTIuQwdlHPwwnOsPvcUx557Enf5HPNFl9myR8f1ScRRUs0dVmw0ep4UvslZHhl2SrGbuZHIujqfGxMiOxlWgxk7jhn/XqTyAHiTUqRtLpbg9hxAD97Dve//CPs++FHYtRf2HIbuIvguvPZDXv2TP6A8cRRz/jQH2m2MySpXbn0ODXdnnQc7MSnQbEtmwm+rXkEarVmqBYqrAUE9zzr9AoxPOXgM2ew8K90csR0WD9/H237t/6TI9uDV0pKZygqNbXYriMIYuSZCNzL6J2HsW5sMQFjxwlOidDGUCDa4TLtrsLYEzz/Fqccepff6MdJ+F837JDhSSlJxGA1zg47xDLErC2MzSrAhhROj9djV3BhupjACrPV6dOZ30VNltVRkdhcrhUdaHe5+6B0c+pm/Du0Z9Bvf5Oijj5CsLDCfKGJKVB0iFmsswwFTUxjrTWpxZJ13oXbNjz6DDvduekQ2FsbG/QlhxCaozRiUiveWC3N7ec8/+u/h7e8F6QCzURi3kCiMkWtiNL4ejyo1jYhSDxgK0GVwgxCGXhSc/Ld/wNqxl3HnTrLb92HpMm3xWGOq2p2V7Fa3IUR+9N5mo/mWTYVPozDeJG6KMKpgbSjELSL4ymswKB3YhHSmw2p3DTod8vYM/dUeBzWhk5dk3lEUOdpOyGY7dNfW6neozmHSYmxajaNBVLhfB3ONjjASxub+OiGMw0/F0KfPyBatX1EqFCIgCYaUxc4uDvz1n2f3f/C3oH0QpxYrKbG1bg0xwT9yTdQRh1Tx+vVcowFWi5I0SUiFEMXQc3DuNOX3/pzjzz6Ou3yejitIvJJQIFmJUuKookmr8PT6+AnyhoJKx+a8rv8wkRuAiEHVr7MOJ18D4J0GkVEwYlGUVAxOlUGvS5Iomq8wP1hht1OSarZyIAbNBMXTXesy+tYr4Zrq6ZRK9aq2XQ++FMZGVDqaU62CVRv718I6Yfmq0MhpGXveDIPDPEYdWdHn/FNPsPsnfxbSfVjb2exyRm4yURgj10296EBSGQ6zPkfUw+oanDmOe+r7HHn4axQXT7I3hV2UJOpBLU0XVDhYI8iQkQCPhPgaz63qr8Z2jeq4/QmmWQg8EYY1XWXotg8Vkox3zBQO4z3eGkqxeLGMEn8m3ab1n+PWXvAo1IEzVQNUGTsdNvhrs8flCs+IkWGepHGeli9YOnEMTp+E9mGY2ewiRW42URhvY97QkqZvJORNQqyNE0gExBfQXUakhCOv0H3sMS7+8Gnc8mu0ewvs39uh6HUpXKi1mThP4gXxCaJpqCgi4fP4Zqc1IZRX+jjTXjQWCRjD/G4DFF8luNfRnnXUscGE3HcE64TMWfCCw6AmpHAEN76vvmbfEMHR8UND0LHndDgDONqarlVoNMcb0IZ07J4n9QUHbArPPAkPfpR+f0C73XrjbxS5Lu5sYRzrCHXidnwOYIyrbvjXYsqsm/m64pEmT2N8bm/6a67pPHT9Q/WcXPPl48unhpG1wVdRewNYvQCnX2fh8R+w+MLz+BMn2CV9VBeZmUtZWLqIMQnWJtTr2QmC0VARpc5rVK1u13Vm067D+o8UJ8vvEIai2AiMoaqhq4LxYLyhXnFRG4tWjazFhjU45nJotK2Gyg3do5s0otH7DU90wx3qsJmJn9L014vDqpL2V/nhw9/hnb/w92jPtd7Y4DXyhrjzhHF9S2T0IxktZlSt1bD5D2GiUa6ri1gHi6x/ww0YPT/p6KnPqn5VFd85NksSMqYc9fi2mWd1bazfZ/QbrEfU9UtDXUyHJ6Xd2KEHa2fg+BFWn3mSV598gtl+l9lBnzHup5IAACAASURBVI7tY8scB5SrOXO2FY7uR9fQmWAZhPAKhknVtdssvLUMT3eyaxu7v9n4Zmp7iNwI6oCaG388Q72E8UiGRhOEquBFGFhBbJWUz2jg6MeiT+t91x9n3WvGGpEf+mPCc5PHHDvx6pmJ44oZ64KaRQCayftGgpWbGkh6q3D2LNy3G7IEriHAKXLjuPOEERoKpptvUyym0Ek3fj6NKYdxoVw31c70nne68k77aW50vzlfUYvX+ne72l6/EnIZjWjH3qfO+1IYhbIrCQ5YhuXFsBjts49x5i/+lHMvPkm+uMCbDx1Eu8tkeY51JUYVFYNusOyTijbmGKdZiNL4v3n2691ZG+895QCR24TJOM5xVIIrf+LRTY939Y9PMdWusx0Nf1tTjEupJ8IJQTjiPZmWcOIY3PPW6rcYhXEruPOEseGG0arqSr2qNlUtzWGDawheXZ+llgIDZPVUBGFUWkdg+ur5lFD2asPfjAz/G2di3sJUx5/mehmWTZx89DprKY4sT4YzMfX70DQAhDBvUz9XFrC2CEd/SO973+T8j56FfJVDOExnBhYWsb5EvEdNKAEWE4Ei18PWj2Vu4RnoaMDr1WOMcv5Hz3Pox34chkuoRW41d54wDpHQ0CSshB1kpK6vWLvoXPVKCPFsDdRBmYdbqdwdIuGCSeV2KWVcTMYcn9Num8c3QF33UTAGTD1AFCoRT0bH1KZdJI2b8Hm894hcXW1FmXJbz7HUkZxCZTD6AsoB5KssfP73OPfYwxzsL7JvsErflWTtFok1eHwIxx8ONprup6vhjXdGW9+hRiLTqX9TOvZINd9euakcjtQql04c5ZAOQNsbHC1ys7kDhTHMu6lTLK2w+G0yckfk6ih9QcsmlAww6klr/6kX8KYyDdegtQr9y7DWhV4fzpyFokDzAQwK/NIaOijI85yyLOj1+xgRjLGVSBlEDNaGv7MsI5udgz17YW4vuBTm98CBvbB7DjKBVKpQzxYMBNq7AEHzPtKarT5Fs3y3khdh8dNQ5aNxJaaIpFRXCBXsxPSKCPTyUDVkpt2C/gAunaX3va9x7JFvsKd/mbsGyyRFF0PBrFV8XoyiBo0NKRzXLVET/tHr2DOKY+TWc3Wtrp6igXo6wFelhQWj0Jlp0zcOt3IBVi5Ce/5mnXDkCmwTYZwy2fcGDzdMxlUJK74TVvHOkpTMCugiVhwMurDahbUBnD7H4MICl06cZuXyKQbd19FimaLfR8uSRAWrijpH4pUZJyRe8d7jvGem08YBRZ0XUJWIGlbMUEVESGxCQULXp+QmwbcS8kRI984ze3AvB++7h7n9d2Hvehvc82aYmUXKPAS8GAtJAqZNVZSULG0BylUXMWpG+1R+1NIXqBvQyQiW3soCvHyE41//MvnrP2T/YJFOf5FMB6Hcm7hgcasSogJt9S2GkCAd7wLeyFd51URRjGx3xqZKVIfCKCh5WSA2xeYrcOIoHHjTlp3nTmdLhHF9oMQNDh0UQqdfaLWs0SCsz5aUcPEcHH+Z7mtHuHzyGL63Rr6yhnb7rJ67xIwkzCYpu41HzQClwHmH99VK8CIYa7Ae0tyRYoKFaAXyLqohAbleRcB7HQqiDWvs4AZhlXqbWEoE13U49cyUsxRnHeefLDhZKLt2H2apW5LO7WbPPfdx6K0PIm96M7z1QZjdC639YQX04QT9VcqIVBFFlX7nAKYkM3k4xqs/ZOV73+bC83+JXD7PHhWk28WIDwE1NsGJp5QCj0c0RbxgsRgdfQXjbqP60av/DseCY69+z0jkNqAR81pFk+VlgaYFtuzBydfhg3Et0a1iyyzG9V1lM1lhcuXqSQ998zlPWILbjdb2UwfOw8oaXDhPefIYvYunOf2jZ8gXzyH9ZWatR/qrJL5kVpXEwyErJBr0U1CcGcXpOKDUsJ5Eai1ZlrK6dpnUZrRSgwhBQKtKHQh4ddQTl955fOEQA6m1qHVYBoCQpCbYWYNl8CGfz1iLrJxnvoSiWIH+As889Reke/YinRl6M7uZf8+Pcegd72PPQ++AJEOShDBvKSAWbBYszOE1q3050phYhMz3gVVYOcelh7/O6Uf+gtbCeVg4zeGZDuVaQdtmwwCmYflwMZV4TQtA0nFx3Ojr24ymZ1WjOEbuLOqFpbyEyf3SedSVdEwJZS/0Y5EtYUuKiE+GkYSKmwVB5ARIYSwUphKbqaHLVaXO/BIMluH1o6wceZ7Lr7zM0ssvM+MKjHqsOqyWWHUYHEZdWOOvjlrVahlB6hGcImZky9aC5xuXy1bzmXVKx+T6dJM9uR/L+9IQ0VP/pSFGVL1WNSNltN6gMXgxlKZaBd0YSjGUJiE3CYVtMTAZb33fh9jzjvfC+z8MkkE2D7P7IB+ArXI2jR17X5yD1Utw5lUufPH3GJx/le7CSeaMCxaxq+ZAxIRyNzSKfFMOv0nRkPZfu4+bH37atbguF+sN9rhHIjeTjYqsh5CGenhZ/c5Fycs+ag0kbdJ3fpy9v/pPoH3g1p50BNhCYRw7CTxQEoTRgGb1E409KtVyJZQOjIfEweVzcOJVFo79iPNHnmft9OuUixe5q5Uy0+vSLh3jB1Omloma0lE3G3adfNwURjMhhGLM+FE3EcZgF68/fu12bYpLfR5DgakuhVWHYshNSt+2WCiU1p4DrJbKfe/+APs//hl453tDUNH8HjApmCxYk64EM4ClS/DI93nty1/AXDxBx6xh2jmpBXIJK2NU4t/8OEHEG6W3xq7xhCiykThGIncuVxZGqp9WVatHw5SNiKV/37u473/8v6FzqD7arTnpCLBFrtRJJ6nHoKSVA1UmzMnKHHOAFmFV3MXT8PIzFMee4cQPn+HCqePMpZaWK9jV79ES2JfNUvpylIdwp6AABlXBa4oiGG9pKewVZbBwjv3tNv3nH+H1Z79PTw3v/NRPwFvfCR/5VIhyLQDr4MTzLH35jzn+6GPsU88e40kQ1Cd4DQFFOnzTza7hRknIo2GCANoMy7vaj9rgDvoWIzue8Vl4qIU0DDIXFxe4j8qTNH1ZkMhNZOvWY2yIX2UrAsGBaoclEnugebBaXAFHXuTys09w5oWn4PJJ5ooFZshR58gHfXbPzdFOU8q8ZG1llVbWoY4OlTvFYgzvDGoRreYUCWXbBmUPjFK6gvnZGfygD0mLVdthUVosZnPc+94P86Zf/s/giUd46Su/z+zqZbLugHbpaWmw3kvrcaJj7mGZKGQwbjFuxOi61hVSN95BRrtUf1aO2+GzV+waopJGthGbW4wjL8pYn6Eer8rpziHe/xt/iG/txxhLGHxeaYAauVFsbbpG1SJ8bRACDkeGD4Ep5RL88GmWXnqGpdeOsHT0R3TKgnmvtFxJxw1I1IEYfNLBDzzdQQ5iyNpzQKWBMi04ZDKdYPMGV68nt+FiuVeBmfyhNKMu6/Xqmuu3TRspBkWCKkUCNQglUNKxoJSQKD5fRYzB+5wWyj7JOWwMvecehn9xkteOvcx8sUzmCxIb3iv3AGZYjbWaNdzwykizFuQ6riF9ZLjL5NGuYf8pwTlxNY3ItkcZFsXwPgyOpUo3W37pRWY/8ClUZRh3ELk1bIs8xvorT6sOnsEqvPI8z3z5c8ilE9iVi+xPlIP5AplzGDVh2RlfTVybUD1GTR3hVZUgroNotvLD3SxEGRZFlyoSd3jrGVWaVFJfklDSzgVdXebSM2eYNzoMWA2T/wYVOwzDDZexTna8BU6FsfBVrjsMdXK4E4lsexopTjVh6qH526sHw5FbwdYJY6MVJBBcpWsr8PJLnPnzr7B67Dn2uIuk2kW8h77D+LDEjOJRsZSkIZBEBC8eJx4vShX9jEq1+MudZDoMf0QeZFB5ij1OHWo0zONhEQ15hbULVFEWly4yt3uewhVVhTmDYCu3rEWqgUbw2CgYd8dctkjkdkGqiuMhd7qe+hHqwpYC0at6k9kWFiPqweXw4lN8+7d+k3emyj3FIt4toeQUHrzWdUDDUjShgltdDFzxUldb0WG6RXVwRo1qI9ZPhE89zatoiWMWy2aNd+rbXV1Ll/oAEn44Ya6iLgxuhrZi83gihpmZGfr9HmmWMsgLDCmJrZI1tZ6LrfbS0QzftFOtP9pmV200O3iVH6r5vcnYzVUTLcXIdqbZPjf7/YRxqQ9Ja1r/1qM79VaxPYQRBR3A5dc5oIvQ65MXaxjrUAn5gkYEfJinE4K7FBvWuqg7aVMdqrl2Wvhzo679Wtm4UQ6n/tY9uPHRpoT7jD+v02Vp2iEFwapgKmt58rUiwcuakKEFZFKvkVi5a1Sq2uh1gIxW2jgKVpp83ytPIU6ZH9305To+73qlw08ce935xD4ksoVs+POQ8buj3+jIVWoRstJVA1ZfBetUA//YsG86WyeMzT5fFLQE16Ptu6SaI6HAKXUrMkojMKWymaShRCrVwrYTs0xyfXNV10o9JXbVFuMNZnhlpojDaHDQcMMMqb4IGX+k8tFe3ZveEKZMtFwrsb+IbDc2aJNXmgs3KNZV/ZtqmG+U8UUCojv15rHtZnPrpZPeSPRn5AYhOkVpI5HIrcD5eo6/9tiElVT1FsXD7WS2VhiHVuMob298qSRh3A6L3Dp0YotEIjeUKzhJtK67XC1MUBN7w5vPNpljDF/18qlTWGMQ3xDD2CdHIpE7jWZ2v0wL61NmZmeD6eJC0Y91MyBRIW8a20QYYTiXWC3we816OBnVODrkLSXqeCQSuXa0ipGAYfzbXLUwuU4RxshNZRsJYwMBYwyeyTDPK+3XiGq8AaJ4TUGOMSoyso6NurL68W03xR/ZEsZTy4Z/zs+F1W+mtaPYt9xUtl4YhWGQh+BAS1TdlFQHmfAerEseGB1vI65DNJu7XNF7ERtrZMjk3KwOg3zDckMG4yXkkFZLEI1q+Gpjr/HY/vrvUUyUNP6fcgqbcTXtdWqU8yjiO3gCq/iA5q2A4mLw1ibUi3q76hqpV1CDSTJ8vfSesdV3MMphHPZDsb+5aWy9MA5/eZ7llYuoDqqlV2TsR1knG+jYPuPH2DS/p5GRMFkI52r08moS2mM73alMa48jSVPCGpa+yoBRQqdoNcF4g4rHG4fiUHEjgdS68LoMj6giw5zTYWH3YVrN+Nz8ldrj5gWhFJmSqKqVwKv44X1RQdRi6s2Hwvbe5ijlFc5iZ2IUUj+6nl4UvOK9YJIZOnOHYW4fkISSl2pATPWd30C3WGQqWyuMYwGoobqDUoYVLKZUpt8sYXZ9ft610+wnrrUkwFVZlJEdwPoo3rpNGG2sXKmhe6vjzBTq4kPD/Ud/1zIrQ8GrM2kmbIjRe0+69icbZsN7N73NTolGHp6bH96GszLD1w5XUVm/d6SBENrD6KqB9woYSrW05vdC2kYJgjj2DUs0xG82W2wx6sgd03xUFcz1TDZf/yTfNIvwWt5/2v5RJHcKk8OpcbkSFYw2rEgVvEBpqtq+TY9HXdAdQpnD2kJUwWroTI3qmCiGAMdG+T7Z4HbijE3YbejS04nl2CZmMioXcFVyUcct4uAqduG8Tf13/bkik9TDi+EoBzDW4CWhS8nuA3shsaFwSFMRG3fjdb15bKEwTs6njL5mrx4/XOtvWiDzRsdrcu3N5o0OwqIo7nTWf+veeawJtWhl3WtHLUaG80immjIYbfVxPaFD9ITe0ovBV264pgAOrc8pj9XvZQDjK6GFynM7Oh+jnkQdpl4ndHjy9a9yskRgSEBHNMQIwFDwvWos2DEFHY0sRk0nMfTUc3D3HKDDvO4rTeNEbixbbzEC9dzI3Ow8S1Vl+bDkiqxzGdQjpdhIItuLhhJReT00BFMM8koorAUjGGNI04SWA1c6SleiCDZJUQxl4VERjLVhFRn1FOqZnZ+nVE+pjoEKXUnIkZF3RcZF0Vd1Cr3qOmEUBauQiCExofC817CGZmItLXXMDlbJXEmShFJkZVnivMN7h1ePiCKiJEZQ7xAciRHa7YzEJuT9kiKsAEDuStJkvLsRs3PFsukml+HAR7CdFpiU9G1vWjfO2rlX69azDYJvoBZGhZCvoyFKzzSDCepXqjY9CpHIFjMKdmkGvxiBVpZRFCWFG9B3JQ4wNoXUYBAyyZA0wWWCtwkFBicWNQneWHplQWdunl379rJ3bo65wwchS6GVQdaCu+9ntKgmsGfP2Cmxa9f435OkGayswsIirK5Bvw9FgR8MMIMedFdgeZHVxQVWV9fornVxvhJyX9Bbvkw7ETqJJROwvsSVBUVZYguHKTzig9WTZWm4TP5mD2llfLy9jYfQOvGH847V7irduV1w18GohFvItliPsfmYCsN6qdu4TUduY254TN+6kZogGLQEaxLStsVbGKSGPBUGBvIyIbMH6cweZO7AAVq79jC3ew/p7t209x8IInfPXZAkYBOorDZKB0UebmfnRxNQY4FsE4Frm7kxs4Owx0FRhmMai2m1wJqQQ1cUzJWOOe9hZjYI6OICurJA99xxuufPcPnUSRYvnENXlulYT8s4Oj4nKS7RSUa5yN65677EV42OLDC9zsWubxVNCx6B0jlMmjK7fw/ce/e2Pvc7nW1iMQIIqknYyMMMxrToqyn9QD3F/0aiQmMbvNPYONZy2v3hHsOgkkbwl4z2GFvSSwSPqeb6LK669RicJKzmiu3MkM3PwkyLPfceZv7wQZIH7oUD98GuN4GZgyQN1lu/D2kKWRYE0YR5RFNFfdZzeNKy1PORIzxURaZHp71Zq672FY8XD1YwpuoO6vXT0gTS+vA+XLC9e2DfvQjKbLnGbN7joCuhLKDXh4sX4OQJuHCaEy8+zvLiecQ73KBHmii2mrdM1NHyHju2tFp1X5p/Nz5LMz1FFGdcFRAUgpZk7BOHmVodRqls0Sh7k7cdDdDC5FCr1cKnCRfOnYXvfQc++QuItMGkYOwGsc6Rm4Ho9MUKbwE6jCf3IpjBIvrHv8Prf/ZHtPIlOpRVftRGjnZt/M9UUVzXdG64qRDZvozSBjZiGA9aRwWqhohPwJgERSicQwwk1oI6jIR5ucK54PZMWvTVslIKfdsi2bWfuQOHkX2H2fWuDzJ33wNwzz3BBVoN9sJpWSALt0Orrz5fCfetuYVN9krvMOnB8aAuiOhwPlUbfwNJBpfOw8ljlBdP8crTj7J6/iS6tsQ+q+zp90j6XZLUsrqyTJYarIHS5aStBBVFfVh6W7zBaNjEG7xxDLI+zjiMt4hPMJogWuX8DUfVzeIJ24la6Kv4VAlzjKUxFMaykM3z4N/4JbKf+HmYO4xKgth68G9r19q6Q0ZuDFtvMQ6/TFNZiwlj3/AVGnQzEOeKUaGx4ew4JsVxmG5A1XaERr7fSEyd96z01sg6HcSm9BRWuzlZq0OatXGthFUEOnMcuPfNPPiWd8CD74K73wT7DkGuMLs7zBf64EK0NhnvzNa7PZhMPtxWTXbsZMx6l22FalX30wF774fdh0m0zzs/9gloCyxegKMvw9GjHHnkEXzRo8yEXZmh6C4hCgdaHdygh6EaHIigKnjCknR1Ll8dWStUaSc6ild4Qy6km42ObpqnmHhP6j2qPV740z/mQ515+PTPILN7AQkC2Qjyitwctk+Cf/W3rwrmyroRaiRyYxC06kx9MG4kdLjDvEEEsTC7b5a+93S9UmSzmH0PsOBT9t39APe8+73Yt78V7r4H5veBT6DnYXZvmBO0CmkQNgNsmWNmCxCp3Jd13r9mwYrzJWgBBx+Au98Gn27z0N/x8NQP0EunWTz2Iq8985fsSTznFi+w23RIccOBjDMjJ7dRIXUpovVA2qBqUcxYIaDb4ao3aocPaXnHXWXBY//6d/lYZuFTPwnJHrzNkCosMXLz2FpXajVe8ghmsIT7489y9Ct/yG5doeUHlSt1yq6y0ZE2fVlkR9HMAxx/NBGDurJqeYCGecLC2LBZw8AKOtPhzPIK8wfu5cH3fYy5j3waDt0fxM856KSUgDEZJpkDTIguLMGmUOYea0Fsw7LayK0xzWK8ndMZfPWLnGJUKq5yB1KZ7Qr5KuRL4Lrwg++y9NorHHvycdplTqKOREsSX5JqidWCxCupE6wGn1Eol2ca6SrBfTose7BNXamjcxvvwVQTPBnlzByX2y3e8Qu/BJ/5m2Dnq0hkA2LXHTJyY9h6Vyr19ynYmRmcd2hVOWN8Mn3EtBqPMnEbiUxSFgVzc7O40tHtD8jaFjfIaZHS6uyiXyp5q8NCy+AP3sP9H/0pHnzzO+H+N0PaAZOBpMGFaAyYkMMXen8/TE6zCaCQZFNUYaMGWs8J3AGJ8Apg6kCZ5oMB0UaHLtV/2RxkbaCEv/aL7PYFH3QFPP8M3eOvcvK5J/ALZxlcOsM8DvD0vcWVSmotszMz5IN+9UZ++KbrCxFsI2SjURKIOIzmJL1F9vcNR37/X/GQ3QUf/XRI10nbwMy6/SI3hm0gjJXKqcDc3DDp1xgT5iiugdhEIpsxOzeLVyUvC/pO0WQGl+4iJ2MxabMy0+KBj3yY+z7+MbjvLdA+BK15sBlUkY/DwBiolkWrB3CNEOobIW63aWOeiC+l9qquewGMApGqwBNHiiPFA5mFxHr40CeZ+eDHeOinfwa++w1WXzvCD3/wXXanBsFhjZKg5HlBy9gq6hVEQrEC3XaWYs2VzksRKUlUaDkB1nju936H96UWPvlp8AUYB7INuvA7kC12pTpCh2NhsAYvfY8jv/G/MZtfZncmuNyNBUo092w+EINNI+sZd6VaYxARirLAe0+ZznJZ5ij3HOTu976PAx/6CLz1IZjdDe1dhNZUF8sOqRE+zG5R9+ZaWSajEtr1MC/8m1ag4k5mWhBck2A/19e0mabRvL6jVyS4cA21Gy5j2YXeCuDo/sV3OPfEoyy/dhS3usoD+/fhlhZpu4LMhSo8pdGwasU1fwXbqEdRg6ihNAmrYlloz/P+X/lv4UOfArMLktbotdvgdO8UtrhWqmc0CWFgbjfeJDgVrE1xuOGXvc1zdSNbSDNKz3mPMSYE1FR5hs4YSrGsFo6eS+jM7WLm8AO86zM/B+/5ENx1GAY5zO4C6TBqaSVQAAYdzUgyihYdb5E6/CeMr4ews6g/9bhA1vN9HhkTx9E1NYxykRUo1NOSlF4JnbQTihx0MkCZ+czf4C2f/im4eAaeeYoXH/0LXF4wWw6YKQoyX2AoMeqrFA6GwTihcHsVzdroV8LSYGF5MBh/busIVq/RkjnJsQ6O/N6/5CHbgvd8qnLvVy+tPRU7t+ndMLbQYnRAEdxTmkGew8pxHv9Hf5/9xSXa+SozrTbS/Hlto4FcZDtQrzJRBzIIpXPkZYnJMgbeoe0ZFkuBPQdY6+zmgfd/mLs/+nF480NAB0jD2CzNQqI9duz46xtdI0BiXcp1XCmvZnqnMrqe42vnjHyqTavTa4mRYI+Ph1FVxyl8cCnSA9+FV17g2He+zmuP/4BD4pnvLrNLhEQTXOFD7dlEKGw4XquEpEr3UFGc8ZTGk9ugiNbLcOWRrWG8NSngxDCwGZc6h3nv//5ZaO+FVvBiKDa80jOtuUaugW1QRLzhTlEh27UHFpcxxq5/efySI+sIRSC8BvvOZy3KVptVpzB/kJ5tMX/fW3jThz+G/cRfDa7SpAUFFKSYpIVIKOw97dibNbppoWHX20SnCertPPCvrb76/uje5p9o1J8rIqYho5NSakJQpm2DaQEteNcHect73stbjh/jzDe+xuWnH8d3u7QGJS0L6kJBAkXCrZRhkWgJITpe/GhOcttMTTYHE5CoJylL8v4ir/2LX+fN/8U/BNeBmfn1c7m3a+PZBmytxag5YbjegqKApRO88pu/RnrieWZ6S6TWjP0c4vccCVQdRVUZyWhwlQ6ShGWB1VZCf24/+972Md7+4z8N73o3rPVg9x4Qg1MoFBJNSGx6hfe6+Vwpg2Pac3c+tVt6Ogah9nmqCQucG8C7ZYy10F2E/hoLX/kSJ37wfea6K8wOetiiRCQJUZ9mFaFApbm8lwzb1dZf76bhMM5a0uHy7AGSt7yfd/zKP4bZfaGEn9iNG1TkqtliYSxABKWFlDksn+H13/2n2Jd+wGz3crUW2Wi0dMXveGf3JDsIbdyzeFIGpsVqe5bFtMXhD36A+3/yZ+GtH4Z+1bnMzFR5bVUyP0KCnWr13Uo2a7J+4vGd1ZyvJIyMZcaPKtzWONDlkB95+Rw89zQnHv4Wa2dOYwtPiwEdlrEMxkTRaNjWlaLcEjYWxtwkLNmU7uwhZh78OA/+l78K7TYk7RDMWLtTpxcnilyBLXSlNsPeHdZ6yFKSXXvAGsQ7xE4Wzt2EKRPl0/IdI1vP9c7DdTozdNfWKMoCY4WsnYZ1CU2b1dae/5+9N4225KruPH/7nIi4wxtzTilTmSkpU6kJSQhNtAZmISjMYMDYYOy23R6qq+2i6K7ucnW7FvWhl9dyd69e1b2Way3b5cZFlctgG09gMFAGjJEMwkICCQkNKKWUlKmc8w13ijhn94cTcW/c+6Z8Ob0h7z9X5LtTzCfOnv57bzbddCd773krXPcaaKZAEkqQScGA1jwSo1gi6DJMh1hr8IAp2lL4Us5k8cyLDcSUyihcNgpbd3HF699I6zsP8fjffRn/ygF2piO4qZR6tUJkLWnWgYJ8I4rxzBG3qwVWPZNWaL76Aq6dwd9cBu/5MDQd1MaBLC8EsPqOfS1ghWOMwSIMXQM8xDGjW7dyMo8F9BMhznyLsIpCBEMsjTOQlOqVZrNBkiRUKhUaXpmJa0zbKpffeDtX3Hc/7LkhdKvQcRgRwIG4PJmunCKweigyK38EaxOFqtOdITw9E7uwlDTUpnVYjPVkklK9563cduNNdB5+kKe//NckPsZ7z4Y4RtIplBRnciVKVovlOBdWBJNl7Bwfod05xZN/8ydcd9VeuP5WaJ6A2gaGgcazx4oLxjBNBZeJRJaJHZdzOG3Ty2Ya3tj1uv2o0gAAIABJREFUi8JNnseKFrndxlq8c8w2GqgqzcoE5vKb2ffGB+Dmm4MLaXwHtDNoahCMed3TgrE6x0IcDq01ih5L0xO6ogSXkQ+32BZpCxbUYCRknJrKaBgLG64leeNObrzlTtz3vsMjf/xZvHfU6WDV4yUF8agfaGiwmuAVzZTqSILYNv7ESxz849/hio//BkxcDiw1ew7n1sWwogn+SuinllEk86bwwuN87zf+KTs7U9goCf3UOIMYi/b/pmsXDO/9qkM5QhjyyQqXOn25WEYDK9EbIRVDGiUcb3bYePluLr/9DfCW90J1AhKLsxHOVIgkCWGVwpTQjHmFInPfrjZc6iFz7bPuC/TSOoosaOM19zCFfpVqApnGaK/npBZRyAzwcej41ToO7Slot5j5iz/lwLe+Tt3PYGkQa0o1g8iHqLR3LkSkTV6I4KKU7lt4avYKmQ+FK6IIfBTTjkew+29i0698DOrbgDFSZ4mt4LwPZQwpsnK7PueLcB5rDysmGDV3oYb/hdDeNTBTH/xnH2AvTWKiritjKBjXDxSl6B8rGhpRoKF7QkGEEAexxtg4oSnQrI9yamQjo/tvZeeb3wP7boBOIxTatkUB6SjQ+Lsj2tNtj75KJ4FLXfgtjfmvUB/xUotPtPsTnUOrKrnPuxn8gGRAA/wMHHqeY1/9Mi/+3TfY0G5QT2cZj5W0PUOEJyZUPkpNhJOVjU87HJl1GKDmDF4trjbKC17Z/a4HmHjL+9DafppmjHoMmTrSvOh4jMfms+5wxM2PFXWlhqFclAo3gAVbYcP2HWRHX8B6yTt8D7H+oD1nTrmGg+TfRBGZRmS2SntkHC7bzbUf+Bm48gaojgLgkhrBBAiQQtmSshgcjDqvrolg/ny/IXqY/6rInDf9is/ctUqfFExNhYyINnWsEao79rL5I7vYfPPdHPjTz/DqM4/htEM9SoitIpnDO0CDAqZdxeviQ/K4uagiHqwaZk+fZmK0zg+//Dnu2HElcte11PN601YsGcWc67vW+EqzslcrVlgwBoPeFMWgVCCqcPmV+zl9/FUSn7LsSuJDrBn0rPpevRPNFfqWtUwby+lkhDvf+9Nw+5uhthGqEX6mg1QsJuqV7xpiiOWi4NUYLEoVT0zaPkVl/83s+dhV8MiDPP2XnyGaOYa0poEUYyzia8GTZdp5IOiiHzkCRN4iqvjceq1XK1SMpWoSvvdfPs1Nm/bBlbdCOorEQiimp3g8HsWeBbnxUsGKCcaiyFOfp1sM2AoT23dzzNZwzhMNBeP6RU6Nd17yepaGDGEmEU4lNcaveS13fugX4bJrgREg1IGIRxMAvBZj40ziJavTlTrEyqBUbyt3kcZ4Ymx1OxmOyNbh3ndwzVXXMvtXf8Kz3/oGE4mn6jKqqRCpX2zzFxihT61R2/M4iAQhOdug5jybqxHP/qf/wN6PXQ4ju8laEbZqAMcykuAuWaxYjNETyjML5BlleUZqNg3f+gpP/+HvMj57hLprhRXmyVMsQwZ+E2ot+uFcuErhxdPozNJotdm8aTtZw1M1o5yKLMd2buDqt7+Tsde/E+wEmBpIBZXuKAEKcTh/EnQeqRz4ZIgh5otP0p8DWbx3LfCdUI/1wDM8+vu/zdjUYSY7R6lkzdCL+WKPK52/gD0oJs9KMqp0TEKjNoG/+mYu//i/BVulE4WCFjEKWjQ6HlYAmA8rdlXKGWV9pYOdwK59nG4rvjD1B+e9eUT54PgeYqUhA0s/jMJEvcZotULqFF+f4JBWqF97G7f8zK8xdt97IdmMi8bBxN0ZrNCQy/0Zzuw4hhiiByFkd/QNJkp/hZAClIyGnMB9N3PLb/wmVz/wHg5V6xyLLZ156+suukfOz1gs0pAMqEXLjGvxII5YU+yp46QvPguPfRN8UeVHARtSWfKovPbNxsMZFFY8xjj4zoJTGN+ErU+gM6e73IqullRYhUq34G93OzKXajHECqJbsmvu3TCq+JlpNo2McyIVjqhw7fs/SHzv22HzTjB1cIF0GmYwj5DmZQJt3rtvJd1ZQ6xVCPQKAuTTDgYcRVpH2dGaUwMjCxMb4IF/wo133sTTn/pd0uefJpk5feY71mDSFbPWYlShRTfT3Vze+VOBvBC6M2FBPTVTozl9gkc+/Xvceu2V2Gg73tRwREhXpveeoTlHoXLJ6pQrZjEWPNQ5pGdjIYXKth0gEVbp1i4MhX1D487gZ59LyB7qOyuNQpvtv68KuLzfXSAAWDoyyavtOn77Pl7z3/0a8bt+HDZeFoRie3C7mgvYQkj6JfTvoaU4xBkgHya+azt5Qn6175OdKnlkrjIGm/Zwzcf/LWOvvZdTY9uYikdomwTfbVmteA3uSlGL8RbjTT6P9dz/C1eCPXP05XpKbgBLkGn1Wp0xA7UTL3H8M5+E9iyxZkh+Xo7eeZc2mC+XtgW5gnmM5QB4MVDy1I2sw9G/+SztP/9dtk4fwQl5Qm2vK5uiIXE3n2j7eO/dnQwtiosP6cZBJCcaq3ic8XQk2HmJF05OC27yWiZvuJ3NH/xx2Lo1NAqmQpdXHjxFSF7ntKzH6YDQG9LOh1gW+gKNdGeguSOrpF6pIxQn9+DakDbh+Sd59tOfxL/4NDsTpXH8VaJKAlisJBi1RB5EFRXffRa89MSRLFeJ0/LvpStoEZ+3zvKIj4hcDS9CO2pztDbKtR/5VbjtrVDfiqdwxmV5olw+95Yn5r7DurQUzRVzpc69zIJqqE9IlLBx91W8ZJLcf05fon9B0S/fwyIO3hvE/bH0IS4+gnAMD6t3DgdkYkmTEdKtm7nynvcQv/3HIfZQH8cRWkAVFb3yFgpdZ4+Z43waOs6HOEvI3Lf9AmoeS0kLHxdgY4gnYCfs/ef/huk/+RRHH3sIklnqkScWwXlF1QXvmPaCmUbDvpyc5cgVcouuOM7wVyH3rAWPmpcgkGuZZ0Orw3Nf/DxX79wPV23Nz6IcXF3iAvVJy/WPVUJJCgPS5I5vVcXu2kUaRXSMzUk4PTeEFEXH88LQ89b5HRCew6nzIkIKzdtj8Fh1VLDUdIRKbQcvR9u55oO/QPyhn4DxCiShh1x32slrPRTB5PkfxSHjdIgVhMm7s0xcBtXLGPvJX2P3+36RY5O7ceMbkFpEJ+rQjls0kwbNpEk77uCswyhYbzBqlm8tAt2wQr5o3xwYglQeoRNlpNZjfIV6J0JeeIFX/uyPoHEYUEJyVBFTLS3Fti9hrBLB2IP3HlWFao22tbRtTKrgXJ75qME7ruJy18TCfduGQnEl0IufOPE4AY8llSqzdgy36Uru+LmPw633AQbqVRgbp52mvSmi++LMuadDDHFRUdRmRcBWYXQT3PsAr/vXv8n01n286Gu0bBUvgjMeZzJUstz/UTBKz5N7co67s/ggPD+KJVKhnjY48dQjtL7zdegcISLFUHBaC6FYbOLSFo6rTjACwZ3qPdfddgd+ZJSOCplz4D2qGZ6wFMJxiNUHJ54GKTN4XDzKbDzJ6S17uPxdPwGveT3UNkF1hCzXbm0U0+PO57GcnHsaKFercqgOcSnBSG8BwINmUAEkC4z6y69h38f/T7a88Wc4mU6StSrEmpCoIfIaCsmJwYnJrbwLI3wMSuIg8iEDLjWeJPZMSpsn//LTcPgAtJqIc4SaOAHDxI2AVTfbGGPyOoCC2buPozMNnImwUZxPkg6VNNe+emysIVYZREhGa2QjNU6PTKJXXc8Nv/IxuOUuiOsQJ6WHTohsRE8wlvmAQwyxGpGbVkU6kTGBPGYrODvO9nd/lJvf/3PMTlxOVt9EMzMUBe4dkhfMH8T5E0Uh0T/ENgWHkGHFU3Mt4kPPcfKv/wzUYzIProX6UCaup5b2iI6XIladYOxCBK7YRTw2jhOLGEvwiztE0qChAYG6uJIHOsR8UIGp2RnatTonduziin/2MdhzbSgAXhVIQFKIUjCh3xRDXXWINYGuCzQkQIaGeZ4ZmoDB1CowOg7veA/XfOzXedYltKrjZBIDBi+9lIrSRktO0HNP5FAEL4Gxmmibim9jVIjSlG00OfL9f6D1/UdBDGRZCF8F9gZZLkovZfLiKhaMEdQ3MLnnGjo+w/sOPo9ZgUXUIsz10/dNqwN3dTjVnkcUMXpC7pfD0RElNYZMDC1bYWb8Muy+W7nl5/8HqG8kMwmptSE8kzKPHByMkcyHS4s2PsRKYaFxNjhGQ5ROMcRUaNBGgE7WwUkCe67n9f/6N9GrbuVoZTOn41HakcGJz2kvhl4uYhETLMTjuSHkX4btCh68B5cxgic6dZSHPv1JyGagkiA2NP4rV9EZzBq4lJ47+4lPfOITK30Q80PAW2qtBtmLT5K0TuAjhzMG0QTRBJWF5frcYDJclN6iA0exlrGUeDI5O9ibjNR4WtbiknBfTlYm2PrAR9nx7p+DLXtxKUTVOrZIqSlYp0W5xgUJBOG1dv8WcnQOl26Orbm2r/4QK4/+MThHOJReBka1EBMBgjEWZywSJcjIFiZvv4+0rRw8dAiTzZCQIsSAoMaBFM5LQbsPhQ7uZpmHHh42FcWbYA0GrVSIrWUkazKpKezchVQ2keUtjA2SH0HREvDSEoqwqi1GC8kY5uY7ODIzS0c8mQEvAhohGs2pfFOG9r3qMSVVLtay8KS9FpalETRRxYXzNQbimNOZMjO6iV33vJ0t7/xJdHwnjZk2tj5Wurf53zllj4oH0JSWXoZZ/2+GGOJiYAGhWILJyWE2b6DXs/eEDgntqA7VLWx7z0e55oEPcjQZ5yQxmYQ0cicOZxw+JxMGUuh5GOf5XOSM4ERAPGJAxRA7z+bOLE987k+geRKyk3mhlYXO/dLC6hWMhYm3dTvV7TtpJHUyCXHGntthiJVC0EIzJBJUI9AE8UI0vpkNd7yV0be9H1oeEaE+OrqMLZeF46X5UA6x9hGcpBk2ry+jBqhtYOIdH+KuX/hfOJxspW1iEIc3jsy4bkUcUSmVjzsXLKzmCkKkMZviKs/859+HU68Q0c5pby7v2HjpBp9Wr2AUguybbnDFLXcwE4/gJHTb0G7po0v3xq00lFBSypkILxGpVJix41xx2xvZ9Lb3wfb9UBsJ1HYFdf68BHmHYnKIFceS+loobmHzAhfFVBZ0vRpccxv3/cZvcaw2ylRSIZMENM7TOCSUi7vgc5uQpY7OqVO0nvsBPPkIZDMkdOjVZLx0saLdNRaHhOoSG7dR2X8T0w/+LaNZgyop3vg85rS4XBcRVrSGpqxhi2cJbVXF0MoclWqVdieFiU1km/dRu/8nYftufNrExPXwYwGx584eLnirxd8hhlh96KUcFTOU5oSaFDDWYMe3Qr3CLb/2P/HYH/w2Iy+9xOZISU2LzDhQxapH9PwmTEiJk1FUWB2rRNA8zbc+/UnuvPl12PFq/n2ywFYuDaxeixEgyYfW3uvxk1vJTJDjPrcYew3VVi4tdelY3YWNBi71b7nrD3634HVVQTTCSQ27eRfJ7hu48Zf+BYxtBa84a9HBIu7n4Slfo2rGEJcUevSv4FINRfA9kAq0rKDJKOy4hps//gniXTdyuCGkLsEQEZojOPqetwX3c5bzRuA2IjhGXJvJdIbOg18CTmPTUKHnUn7WVrdgBMgUJrey+6ZbuzFGzQdO6KqxwHKRbQqV/iX/9KItyxWISy5FHUbpdQUowwAVLJgRmlv2sfU9PwuX7YZaDfWO2Ni8d+I5XNOBZYghVj0USlV/IReMlhRLB0MoTNKRCMb3wNhedv/ar6PXvIbMjGA7kvNai0zC+XdR1Ec9W3KgF09mFWc8xnvqWZunvvp5eOEpEIPNTI/cuMADuJ6fy9UrGAVcCuoUZlpsv+NuOiYhE4sXxVgpCcAFJvYLgPkm6/nIsYsQZi/M/geWhfa/0PqDz0CfyJUQiHfeY4xFUVKJmLGTNMau4MoP/zLsvhbajkxBooROq3EWZ7YY+t3Sly5fbojVjfLILOcEKiaPORZxxxSgMgrjW7nu4/8bkzfcwUwySVNjkChvtae59eiQvERiyJ20C6jEZ/YPFKNK5D2ROmquQ3zsVY5/+QvQmA5lc6DfScSlU5dqFccYQ89ixSC1cdi6CzO2BRtliJ/Gd1ohhLdIO8kLFmMsbVKZf3KWuT9dPftfaH2Z+/uuVY7gs/BApr5FozLBycnruenD/z1cdSNkKUQmb+9qSaojC+19Hsx/Fv33TuZ5VaxZ8OeGYnKIFUaRP9i1OQrqjXSTObo9NXwuXqrjYBPGP/wrHPq9NtPPPsJlscN0WkAHlQxEMd6AxggRisA5EBCthyQL2cDOZuCErT7mpYceZtP9L0O1DtEGVHqnVAjEwTNcj1jV5yYahKMzBmyFa+66h5PeYOIqLssbhi7pcLswzriltqj5CZxX92a/HbfoNguBtlj8cL71y994QCXv62YNcRLRyFJ0bCPtiW3c8PYfh303hxOWoAcbbK5NLiWk5tit8/xmabtw4TT/IYZYSQzm4xYlAArx6EE6IJ7UWIhGoL6V/b/6v7Lx5rs54qpktopi8KJ5jmMGZIiGSjbnOqcUtVR9Xh2HRpN6u8WRr30Z6ICmXe9T8USVz2Y9Y/WeX+keOgEii3nTWzhhEmaaGabb5XORyVAGv7uw7tXBTwvhWI7XnbNQnGcbusC2B2OwKouvP3cJzhsvlsx7kBSfRJysbGLvO38Se8utgQDVCXpkIb6W62bpF9LngqFwHGI1oVDq5pR3QgnzmpMgoFCgMgnRBrb/8v9M7fq7aMsohgQnlsxAZh3edhBpYmgjkp1TEZLMQMcKrSgsPjbUrPDKww/DwRfAN4CsW1zcarA0rQ/1jUPD5fWJ1SsYAQjNiD2AjWDL5VR2Xomtj2NyhupSgaYeIUZL4mJhv/tZC6s5Agdgnul+nnjgQssgoaccB+zb3nyvu0ewhIhYJBYZzk3IHDixmLFRTpmYPXffD3e/DcbHg2DUoiVYz048U6K5znl9vhSZoXAcYjVgrtejGJnB7jO9qcMB1RrEk+z65X/B6bHNTCdjOGqgCU4MznjUpGA6KP6sZy0vgXiTGSXLK+PEtQobRqvUpk4y/dUvgZtBaObWafegc813fT9bq1cwinYVLQN4ScDH7L/3fl6dbaFRDHmLKhFBjPRe58ucW7cQg3U5Ft2yrL6zx0JrX6zh2G075z3eQdNbXmp5NrzmdcRvey/YOiQJ1GKwBqzFSK8jeVHL9LxiKOuGWOMo+XIQQrxQcqNSQ/MNiBOojXPdr/8bWruuoeXHqDCOakImhswEoXb2RQCCkPbG441DxCBiUByd2Sk224yXHnkQDj4NjRMYlFOzU6Xnr5wqtz6xegUjwcrLdRU8FqgSX38LG3bsIrOWPvtEA1ljkGyzbBG2lCU3iCUstnPFhXEOlramvffl/QiKUYdRhxVDmxi2X8m2d3wQ6huACI0szghEFiS4imTBCzU/lrq8QwyxPhFikELuDTJAEnILnQGiKkxu46pf+TjRrv1Mm1G81EPzBIq5b/4npqeWLjxjqIR8cFAiL0ReEFUMKbE2qfkZnvirPwFJgRabR8Z7KxsNgnEdVx5btYLRAx2UFO0Fe00VNmxn0549ZHEUCop3hSKISliGU+wiyAezFK9LTs9SccZQ4z/FakZiDPHYBva96d1w9c2QgTNCG+iQM9WEPlm7fh+ZIYY4ewRxJjkNJ6BoDuzFI7i8vqpCdQuMbmPHr36c6ct3k5kx4qyGdRXExxixGCMYEzxmKmVa+WLBjJ4KLKpUMqhmEHkNcUvTwtJg+sXn4PhRcA1mfKt3AibkQa7nZ3zVCsYy+sLWdpTaW97N0WSCto3zDzXvWG0QLZceG3CXLoJyVGspy1LnW3HOF/1bWzrCOTfeuWDcs+z+PUObuBztDPFWj7Nh8SW3iAKI4vCohSyJmIoqXHHrPZh7HoBoHCq1PDVD+0sNr4g+Ukw1g5bn0AYdYnVifi+JKy2+983IZqhvYP8HPsL0yCZm4zodK8ENiqBqUM1NhxIRoZeupfSatg1EOiX/XAsijeZs2YxYO1xmlcNf/gI0GyRZ2j34UAU2Yj0/X6tWMAoQY4hzzaon1yLYdgOb3/B+mtUxxArWCkYEqxHG25wOrYiR0gicPw55zosJ+zaD2zfFwhkthVms+cJivy2NcpH88/LrpRYBtUonzujEGd5q2F9+HojgrNCMDKeSGn7vTdi3vQ98Nfh6jMGKUgEquVDSgXsXHhmlPyV4MD14kPZUFubzdE9ZQNbJAv+GGGI1o8xZtXnjqlD3JiJMBoBXqG+Ba1/H/p/5eQ6OVTmRNJBRjxdQYjwxqhFGTG8uEsl5AtK3SOmv5BklziiZyTkWCuIgSTPGG1O8/NA34ehRksiAT/PjFqTbUHV9YhULxsLdIP2zLkBtE+P7X8uRtpLZhOrIGN3psZx0g5Ym06UdfGdFqVnwy7m/PiNLtGCkLnqkvd8tZ2z29tUjyPg8T1GFEGNQj1XFE3Fw1tPctIs9P/WLsHFnINyIDfEFHBbtG0DFMRdbPxOH6vkL0Q6jlUOsPfRGrOQmQKkPqYZoPxJDNApXXscdH/0Fpsc3MxVXSU0oUZ4nVdGrjLPwczD4SSgPF5ZemQwh9jDmPZt8yitf/RLMngLtBDcq6z9UsmoFY0BhFjHnjo5etY/NV13HKa3QyiBNXdcNeIE4kesEedDfR8SuQuRCMN8LGDyR9yROUa2Sbd7P9e/+BdhyVSDcmAgvdAVj+fEoC/ehaBpiiHNFOXQCmApM7ID9d3Pr+/4pJ6o7SKMIa1rEEhZLB1FPKBkXlWbB/qdxzvPZDc3Qr5RnnjERjj76bTh0AMhwoqHdHOtbOK5ywbgIkhr77n4rnZHNvDrVoJ25kIpaMKYWum1LpGyct+VcsZhkOVepoyEeG2UxkYsJ9p0GFwuCJ6ZpRtl374/BtXfCyHbA4g2hmLgUcZC5umm/BjwUj0MMcW4oPUNSg/E9yK33s/k19zET12hbwdmiKk6opxoEYsnyPEOUfTyC4lxGTTwT7Sn8974FvoUhBVL8Ou/ZuHYFo8Rw15tpj19OGo1AHOOjvO6f8YjRPO7Wi/mFsSLzLuc99lje9zLileX3yzrWMz6HEGc0IsQaE2tcio8anKkwZevYHXuZvOPNMH4ZkIc7RAlNTLNc+ZjrwJyfALO4m3NoYQ4xRBm5wCl1p9GcJ4EXqG1n50/8Eltecxen4jqMTdDJ44WBg2BA7EA8ceml/wiUzHfANRjXJj/85t+Cn0H8DAkZtlsPZ31i7QpGE4FLuPn+d9MxFSr1EbI8YVUlaE7zW24LsDbPR7m2hSORZ43zu7X+rQoeUYfkTDjnlCyq8Wo0ws43vyO0kcoROHApQjrIRT1DDMXfEEOcMST/T/rfBqZbBFpj83t/Grvreo6T0DQxmTElDuq5QSUYGZlrYjtNktY07h+/AaaNZtMkBf9jnWLtCkaxYKtwy11svnw3HaeBwiwZg8zHMxUv85Vgu5jLnONZ4PVysPD+PGo6qGkjtINwNDFpfZJNd9wLr7sTIgPqgA6WNpZWLhj7E0oW2fvAMsT5wPBqrm90kyuk78P+G28SGNvB1b/4LzmRbKRd30AqcZ7bLXNWWe4S+jWmZDZFgchlPPq3n4f2KYy1wPpWc9euYEQgroGtcdl9byMd3UDHGpxRnAGnoHrhLLkLjYKh2hWasvyjX0jYKuRstGBdGxG8GFxtjNPxCDs/9FEY2RB+2GdJF8w5i551HtPQcjwfWHhkl7wgzM2NXTh9Zqll8eeob1KdZ435f3GpdPdbPha/woCJUOqwYQ+3/9K/4lWzgUZUJxOD84Ea05+utsyFgo+jqMmwtGi++DQ883hoMefdBTz7lccaFoyEG5jU4a630ty6Bx0ZgzgiJaLtBRUz8PNyqaR+N+r5d6Ve/GVZFqiA2iAQ0Zi4volT8Sh73/pOqIwB1RDHJQKS8J46MIJQx1CBrjOl9MD2zZsLxRYXjzkOcWaYX6z0BM9c0VgkkOdx4r6k8jNZBkVeb4/FXsu/ct1flxuZlY5Bi6XcQm6tqbDnH31PhQBo6XHJhZ2xZLUxvK/DZbdw54c/xikzgk8qqAXJW3acLUciwlJ1MYkaNOpg7QxXjUa0H/k2xPm8qsMY46qEz0K/MJzh6gfex6stQaNRqiPjmCheYM4dECaDAnKV/FtesfKFp5G+X5WEplfFq8eYQO0+0XREe/bD3W+Bluak0zA8fMFyUxsWIsDSS+2fZ5kjHAcxFIrngqUoTcXodvkSxGSZrWgWWHMhlMdZv0VaPp7BDoS9iNd83wbvQ15dIv/1EHMwKBSl6JVqSaMqLpnEXnsbO299A52xLWitTsdn3T6KZ7MAWDVYLygOQ8q4OF596gdw4Ech2X8dd9hYw4JRyXwLjIOREXjt69m4+7U0s1GyjlK1BlEtpU8sfhMXNHJWalnyiJfGHAuR3iICpB3ivMai3biVne//MNgRSMZyazGgS/ouhT6WjGKs4wLDK42idJfRYtHSEDcooWl0EIo+/xuqcBblvLS72HwxZ7AEwVXYoz7/BxlChtEM4zOMyzDeYbwPpca0KLwhoAbNj8FJhBMbFkxfbtxQZSpjrgIj+VVM8FhxEFXY/J6fxe24kSkTk5pAYO1bp1uNK2fpL4IwnIIVb1WwXmhOT9M+fZLs+WegMT20GFcjFI9JIjwClQmgyp53/RQnzTjHplqI2PyHCroIT6v0xco7Q8/EBlz4ipTX6ur2C7hVAVzm0LjCaVvjitvvgfFtaHUCbHIGM9Ol7vBaBs7jpdK+yag8WvqjekEMdohpU6FFhSaxb2KzFqbTQjoNpDONdE4jnVPLWkx6EpOdwroprJtCsmnIpnqLmwI3A74FPgPv+66Bav/lGI6k5SPY33ltUwPYGCZ3susjv8KpeAwzuZFMTH94hYU9SHPDMD2DwuSCcbRWw6QtHv/aV6DTAO8pGx8/AAAgAElEQVRQ1ZzLsb4QrfQBnC0UQ4ZFCPU6oQJXXsum2+6l9a1pTk+9wmjNElIRYF63UV5EV5n71Xk4wPO60cKTsvgMIn2vVObZfzewLmAiZqjQ2rEHue8doSajVCAu4kC2m6m0uNOtMHHLWsbC+x7iXCBkzuG8pxInuUh0WCzOtREBY0AI7YKgA85DloV7MjsL01PQmIETx0Bdz6MyNbX4rsdLrYfEgjcwPgEbJmFsBGo1iqbVmCQUnLcjufchFJKAkjbui2hk8FqU2ZjKcLgshd71UYgqwUTcfDW3fei/5bHP/C5bbEJFW8RRzPTMNNVqtX/9RS6wGJDcoIjUYIC02cI1ZrGVw/DCs3DrTgC899icqbpesIYFo+CJevELYyGqs/NdP84jj36DuDaGkzaxuvz3A+i6+i6QtiOyAmpwaYd9o17mfO/F4KsjTMejXPfWD0CyDaSKqOJN4dQq4kLL2fVwOruQEBEiGxFZ0OY0Uomx4qE5g40A14asDVkTjrxI+/hhjr30ErNHj9E+cRzTauGbDSRtE6kjEuk+C+oXd42JCWNBFDoamldnxmKiCG+FkYlxqqN1JjZsoDI2iR3dQn3jdth+BWzYCslIKEKf+uCGsxkkESR1QtPeMLn6AQXvwmCtO20LVTU/DxHaHirEcNPrqX/nQaYe+TvqonTSDuPj43Q6nXm2stAkFTgXQlCiTf7ZSGRI0ibNH3yP2i33IlYG1lq7V7SMNSsYw5RdkEMUIwqpwuhGbnnnu3nuv/4pndOHiLPSOpKX2JVw+3Qd+8h76EUDyyZnagynxTJy5XVw0/1QHQeXgbQxZHgMoVDcEGeL3iRxfidh5z2200Qkg+ZMKPB86gi8/CztQwd45fkfcvrwQZKsSS2CSpwwaQzqPD5fVD2+oPXnSpTJ/84Xf1Kv+JADBUBFLOMmRlXwbY93Dn/6ZUSElo1II4sYyzGvNDOh6SN2XHUdIxu3Ub/sCti8Ga69OtQAlRGIRwms52BZeuC82CClS997Oei8XVtTee/Ic1Z4XoWq0ZohslVsNMG+D/48Rw4fQA4/R71WZ2pqiiSJuy5UIHTuyCEDGxeKSle9b0VgNInJsg4Hv/co1/zYFEyOYIzBq5aU8TLham1iTQvGOQ/OyCikgrnnfjqPPUxj5gRV1wbvSeKIzPvSwNCLYNGdX/2pS5pZEv16oBIo2FbAeYcXpWUjjsYT7Hvbe8GOlnylPl+jiFUtvI/eUdGnvC4Pc63Z3udr98HqTb393dQVcud+r5dC+KI8seQXU/OEB/Uhb8wKzExhT5+CqeM0n3mCqYPPcvyVF3GzJxmRDok2qbsW465NxadEHYXM4BUyrygGNQaMwRdNHOjFLtXrnI5fpiwoBYwYVDPIWogYYmuxkaUxPYs1hkgt1in4FBXINKJDRPrsdzhhE46ahGYUMV2rUN9+GVt2XsXolh3Ub7wdJrdivMFIBBIFT9Bgf7aFguZlSK+Bdqn/dreHaDF/CP2T/1qDUuQWCxvGJ8g0w5kR7Nh2tv7UL3Lgt3+LzLVQIxTPczEaReaZA4uhR0HeKWkUxhAbi2QddPYYHHgKbt6EuKAEhTZYgw0c1uZ1FV3DkdMFh7S24EeP8Oj//S/ZX0lpnz7NSKVCO01xAs7kbCt/IdlHF2hALBljLAuUgr8oWBEShdR3aNqMV5IJ5Lb3cNNP/3OwE/nvy7ltQshfXEpvL2vf5yLM5ntC1y7CVSl3egnxtAylCYBQwVCUcO9q76bS24KbCgSWtAVZCw4dQJ94jOe/9490Th4hcU0iTTHqEe+IUYw6TMFYxSOqXfXGiO2RLsIhlMS15ke1OEQLuTT3l2Uicr8yEFit+ZGF10ZIjckJIjY0MTMxkxu3sPXyHbBlJ9z2JhjdCBOTIHWCUIwhy59a093ZPAcKaX5+EaERrwpkKK1c8teQ3DJY20pYoYD3KWKuDdLi9J//R17+yh9xmc4QZW2MaJeUY0oKw3zzStHCStSEu2lyw4KI09Ek29/4XpL7PwR+EibHu8qIWQeCcc1ajLDIJZcq7L6OW97xPn7wV/+RzdZQ8a5k/0jvzwXTCy5U7HKRL0q77IugCqgGV5iJExo+Yzaqcft9D6C2Trs9Q6VStBwuzzYXc1CvzQdoYZRpmBBMl17PkfBNyTQTBecCixOFtAFTh+Dl5zj69BNMvfgjGi89x6hvMWk8Y4kw0zoF6vBesdYGQlUJIqbgslCUTwqvtWstBEGZewd08bvQte21e1J9rrk+7lXfmrkiiu+pWV6o+cJFVxpzh04wdeiHTNsqxx78OvGOq9hz483Ur7sZxraEnqDRCJhasCAX8IqqDPB050iAcgbmWocM/C9BwfKWibe9n8NPPsLpl59gQjpUyDB55eOyWTDXCO+RoXrWtuRjxRFpi4PfeZCr730HTG6Flodasb21bYXDGheMiyKqwhsewD/+MM2XnqDSaWClSkRIWg0Pxnota9SnugMeFaEDOIloxGPsvvF1xFdej/chxqQ+LyHVfWDWuha9ciiKRvSuYNGNPcIK1E3BxexAEU3zPkz0zWk48EMaP3iYl7/7dSrt02jWJspaTGZtYhxqlKmWQwitwuI46gq/BVt9CXNcpKsFqh5VcC5cFSNCTBN78hlGzGmOPP8o/i9itl2xl5Gdu+Ha/bD7Whi9IoQBjAnuZjx5Wxt8PobLV0PyDM5q/nyENr/rdJSLCWlXVNn//p/n4X//v1PRFolvIShWDYEt3PMIqfoBhaZnQPSUi2BHRurh1En43iPwxl2QhKtqBrawVmE/8YlPfGKlD+LCQMG12LpzG4ce/0firBNiHyoYDTcwVJhZ6eM8X5D+AKTkLjNRkCAYJapyyhlmxjZyzft/BjbuJnOQxPWB2OWgSxYWvlBlK3zdXMxzQv/VK0yYPIaoherhMDQQbQYGaToDTz3Kob/5Mw5+/QvIoWcYmX6FsWyaEVKqmhLjiA0kSUwcRcH6lPJeluiBuZCHq+RAOROL8cy/GPzR4E57740x1Go14jjKiUEdqpGj7lrUGzOMp23cyaOcPPgshx7/Ns//wzcYzTIqPoXxCmgbyEKH+a5Lr6irE7rbFzWcLKEzhHQtovU5bluNNtHoOBjLmIXjLzxJQhtLFnIgJURZCxSOjbDMMxqkbAtaLAlSGSG54WaojNDHJ9YFtrFGsH4tRizUtsOVnp13vpkj3/gSUatF5LNcuybvXXYhj2EFBkbf3JM7ksSjGEy1TqMFe25/A1yxH1SJogj6cj3LGzrTuN/aHPwXDIN+KVG8dXjfIbIRoNA8AXELmsfJ/v5vOfLk9/FHXyVuNdjSyYg0RaRFJhmiksvVCPVKpxPiSNYYllOAu9tzry9GqLlSFHyuixUsmvcuy/wjZeEtlMMYJfVBhE6nkysNStXaYER3MowxoClGlKpaoo5hJEs5+tef4pXKOFuvv5GNr7sLbrgFpIbaGo6IqNPBJqO0m1NUamP0xGVhS67diftMUK1VwimPb2X8/vfy6tMP0zzyJHU/i5s+nbPze3fOmIGWVfO4VwslQlBc2uDQj55iL23wDcQUnIQBJX0NYt0KxpBuUEPsZsbufieNlw7T+eEj1OiUKjtcjCM5X6SS5bsoggboQRweQ0eEse072PCaO8HUQSKExehHZUfT2o8bXFzk6nUekzFkGJOCm4VOG5on8X//VR754mcZ1yYjWYsxl5I4j8WSeUdmXShPqyZ0Q0FQE4rFh0qHgwzANQahG+PXrrmiIIpR8vIdweuhJjB0I4TIC1XXxs62sKMzTH3/FIeee5zZ8c1cfde9bLr1TmxtAtoCkaFSKdK6fM7ilHUuEksQQlUcRtj3kV/iH37rX5HOHmODQmSle/2FXPmC3vxYgs6ZBzyRyXDtKdpPfJ/KLXdDEmreauHGXsPCcd0KRoAmbepUoLaTbe/4MC88833UZHkB3sW14/OD8820XMYBC/nsGToaqEQ0Ox2uuOZ6uOo6iEY5T5liQwyibEKpAC6wS2nDkUPod77NgYe/gT/6DFfFwb0Xi0VEcZpCziyNfCgArkbJjMcZT4YPjEIvGG/zeHmx08Wh5zjgz//jMqCclkg9XvLJmqL7TQiQiuZsShGSxJHEKZYGnJyi3jzBsb86wPEvfZaNV17P5gd+CmwEIzXwp/GmRpY7UQ1y1o3T1gYKJnRQNLAxjF/O3je+m1e/+CmuGDe0Zhp9CoL6UIEIzTv10CcpKY8AFYepGlw2ywvffZRrbrkPVPGml7DR76hdW1i3gtEgQSj62dCaqtHqMqq8gcKNUmbydZXWCwGd8+LssNDxzTGAFe8zbBRKd2WmApt2Ine+GdoJVEaZ64Yb3PjCMaEh6JFOyx7KLsMld1O5dqgbmk3Dt77KS//4D5z60bNsNCm1dJoxY2k7RcXg1YdJqZw+oT0aftDbc4KEBKdjsefCtl+sJMPc6a3/fd8cOM+59q0vfV8tAwspi2EHZZJ4cZ6h601+lt2QrTI6XqfZaoAattdGsFFGJ+0we+worj3Ld3/wQ3bfdR8b77sPRkaJJrYQSTW/QzFzn5j+I1r7CELRYzCSQDTG5nvezqnHHmJq+hWsdIg1DddVi/xQCcJtTgx6kJajoCkjEZw6dBCmTsLkJoyNunm6axnrVjACkLnATq3McPDBL5D4FuDDZNMXZ7nAQrG77QtoouaTSp8Crh5DTLvpiLdezvZ73gsb90F1W+mgfP9GziqOuP6mlCUxXzYGAI600ySOTZBbM6/AD77Lia/9NXrsILV0GonaWDwmhnaW5Rp2XljBhEk/zFGmG/eLEIxzRNiuEDQDw6ko4bXgIXcleEnzHzilBdcvC63zLhRL30v/cQQj0vSllxSJ++2OA7FExpB22mRZCgq1iqDpSXb5U8x+8485+f2vseWG1zH+lh+DkS2YaBSiOtgEFZO7/KSrJq5lS6cfQXkKVrIlTmqw4TL2vvPDPPPHv8eWuINptyF3MENoyuAkQ40LXVEW2LIBtNNhvKZMnXwVmqdhdAyiClbCaF7DntR1LhithcZJmH6RzivPM6YuPHjz3bBCEz1vO19oSxcmxtiV8yXLNIkTxCbUJjbychqxaec+qG0KT74DjAwczqCaeCZk9v4A/vzbWofoN3RCtoB4ECWOFNw0HD3A6f/6eU589x8Ya56kms0gJkPjEANXsfi8TJ8UG4PcjSXdEoZQuBDL8eD5r/tio2Qhi/GM1z/vz8jCW+t9WuxU5v2uF8fScBMkWDPGt0lcStVHzE61OPLtk3zvwb/niltez+773w3jW2HDbqTTCsXQ8wLb/XtZw2NYya+Z6Sob6kOyPvtvob77Opo/miYyTaxPc89ZXo4i70u7aNMCBXWeyKWMagO+/zC86bJ8R4qRPP1ojV7D9S0YxUHi4dmnkWPHcnlg8xqA0l/54YJgBWKMpV0YE9FSQ9MkbL/+JtixE5I8rujoTiTnD+f7fFcvlDwOJoR+iBDcUc6DdNCvfo7nvv45ao1j1FvTJCZDK55UPT5PTPei+fpnexTLu76rMsZ4Abap6kA8mQmxsFgbjPmM2FQxzz7Ek09+k72vu5f4je+Byhaob0ebHhsrRHSbOhdJHWsT0m3IGEV53myUdz+ZabHjLe/g+SM/IvYplfY0cR7D1S6TXRe9PSoGJxa8Y0SavPDoQ+x+048RcnZz21tlzZqN61gwelqt01Q7p+DpJ9iSRGRtxYvJ3VY96MDf+d6dOWT+txchxjj4wzT1pEnCbH2SHXf8N1Crh6/mTfQ+3wN4/btXNY/5gQsF2FuzcOQFDn7x08w+9102upOMShtTUdKsQ6YuuOp8cJ52BSrLGRWLqPCXOgoHiAoUvQgBo57Ed4itkjaabLQRLz/8RdqPfZf9b3of3P5WZGJL8BV7k6ctFEJxjY7fkkMhkJVAyRCvMLkFNowxeuWNTD0xy2TWQbIGYhTfJTrlKy8g2EJBEIvPUqpRi1MnD4PmVZu0lxazVrGuBWO1WoFOhwNPfIcNjZOYSFBjC4cBRpagFC8rLihzA5VzPJNllsbZTGQLH6vM+UXg3TW8RbfthD17Qz1O70CjfMaQedcc4kxQkNJdmDxmj8EjX+FHX/1L4pOH2CZNIjOLIyNTi4qEaiNesQqiRTxNyul8lMfFIJFG1vZccwEwzzOkgkiEaCicLggZDgw4PGo9zqTEmlJrZRz8wv+HfeQrbH/tvZg73w5jmyAZRTsNJK6vzYteCEXp/9ADmAq2WoV0li3v+1maJ47TOjCN0ETEocahZLlwW1w8GBFEldi3idNZWo8/QvX2t0I8Am5ui6u1hHUsGBVcC57+AeJnMaaDlzgP5Pf4B/Nbiyz66YL7O2Phcq7a/VyXZUg/GbTSDC6qsuu214deeDYOAz4ExAZ+O8RyIDgknQXr4MjLHP765zj+0Oe5TGeYiKE5ewpqwZulasO4Q4IgJc23EYqSqZSZpwthoVjuEHMhpYXc8vMYHKEMpMdqRsVl1LRF5/ApnvvKi2Q/fILr3vsR2L4zEHRchlq7NvPx5tV5BSTGq8EYC6bFrnvfzjPPfY+RpEKmHdRkYWwH1hMLzQ9ShBFQ8J5IM6YOH6DqGmCrC663VrB+BaMqdDJefPL7qO3gEgc+FFo2KhQ1HtbeVDMoyoVe/4Tyb4RGo0V160ZqN9yCVscQjfO4w9o761UHn4KfhgOPc+AvP4V75Wm26yyjonRaKSau0BHFY7G+EggeeLx0UBuYgMbHuRdheD/OG3ImVDdWRiheruow3hOrCw2Z1aASIaRUfZMtaYP05QZP/Lt/5Jp73kV8/4egFqOahM0uKhxLCqkOvF8B+aA5wbCImPTUBAPe5O0bLcSTcO3NTG7dSfbqUzjrEePzkpksOizD/OkQDF4soBw78BRb26dCkXdZ28Jx/QpGn8HxF+kc/hHjNYPB4pp0OwjMe8vONeN/KRfpguPkTBms89m3QQgq5JT2ICQzgWx0nM37roOkTkqEFYM1+ROj82mDS71f7BjnI96s3QeDXmJAXo5NwgvNwHcgm8I/9EWe/tqfUz31Aht9g9apE5iNm8hEMUkl/LZkLYatKr2c/Lwt1ULx57V8+VYIvfrHPndFe7rN14oqL1pM64FkYjSl6jwTCmPJGC89+AV48UWufM/PYnbuB4nBVkLHiiJwKeSsqeB9UUo0nbLj5iKTW3VgKRDyDvuNR28iTDzKlje/i+c+8yJVk5JIUdhe5m5kAEKIR3oMhozZwwdCzV+vYM2aHr/rTjAWQ9WSwvEfkpx8BnEtjKngxYXUMA2Ms6I8FJALxcGe9ed6ZxdavxyHLJ6cBRid2n98UrC9Bn4qhPMqOt81IsPReIyd974VTIxFSDE4MSSi55ktVtpWd1JYw08FUIwi1dlAc7dVyBogHZg9xNG/+kNOPvZNJtNpEg1l3MYmNpGqwRvFuwwrIN4htPPLEWjs3S6ARQFwKc+gi1HA1vo1vbDohfhzW6n7bJWVtN4TbvLPvSQo0OgojgZjxtF86bs8/jvPcuM7PgCvfwDSUcjqEI8GRncEJEX/0qQ0j9Db1wrcrrL3dI6aK9Kt6+0FGplnlATueAv+2w+RvvKd0NjdZKDknrX5Y6yiQNGfUTzGtBlxM3DsEEzegNN5ssHWENadYITi2ejASz9kxM+Cc7huk5nCeyVz5MvKdduYTy3LH+qBAHqwDOnTSstdyFWCg6NjY7bdeGvolSZRn+6sUsRdzqcLT/o3d5E15QsB1dlQPUhioAOmCYee4ck//PfYo88z2Zmm1iUZSKCw59c3WJcFN8/RLegOIZest5cFXs/lcg1xJphr5uRXPX8394JqXjQhfKtUfItIU6quyeOf+R3GH3+UXR/6ZRjZGSpGnVSoCOTraVfErg4Mnmlx/v3CG8QaiMag7dj3rg/w9H96ls7sNIm6Hl9hkVJI3ZxHcRhSKr4FLz0Pe1dpf7NlYA1Sruai/CgIoc0M2uH4s88FBqBXfJZR1A4thMPidUJWL4KWVozZwh0XakpmYuiYKi1T5/Ibb4P6JIjFeU+3fHI38XZtnv/FgCp4bzGSoE7h5GH43td56pP/B5ONg4ylJ4k1Pde9lATmMM64mmC8I0nbbJc2+sxDPPl//Y/w/S/C6WchaYGBFEPokDmAVfZohcPpPyAD1CUOr4yB/a9hZO91TMWjQJVY44GCEv1Qka5XGRSjHuM7vPrsk9CZzZnXF+yULjjWnWAEB9oC3+LYKy9jXKjUr3kNSp+7EXzfjV1qy2e6LPeIB62FxT6fbyt5bENDvzklNCJumxpNMxpaS7koZ6LNFw2UkoRdRU/yKoCIwdoqYgwyfRgOPsZjn/0PjM2+THTqEJsSwercRteqy50Nyvd3YAzIcsffcDk/CIpmpI6o02Aim2GLP81Tn/19pv/mP0N8HDpT5GJlbU6iwUYAnxecmJ1ix11vpFXfTCZ1pEsMW2wTeSgAxeKIcRx75cUQcggVRC74aVworHFX6nyJpBmk0/jHvk3sM4zzIRlVi/k/J6poiXmlADKnP1nAmd7c5QqXge0uxLNZ4Eeau+4EzeNYoXhBRy3R+Hb2v+YeGN0G0TjegC3lYynk7lR6g1+XefjrEK1Wi2q1SrvdphLZQCCYOgTPfJ2X//aP2dx8hbprkqjDNTMscehGACX/9kLjRVigsgL9uXJ9assQZ4Vzu3ICiA2PRhIlODH4TofN9ZRXvv1FJl99mm3v/ijsuI0k2gywNnPaFVBDZhNsZQy7/y4mrv42s9/+KmPiETJE5h+zYZSGmKXgsShVoxyZOganjkB1M2gSLuQaxFq7lQPwdJmD3c8c+CazR18m9g7xeW+3PJm/ZzGW9PTAXKF/UjtbK3C5v9P5fQ7zCuny96E6hxaEHABjiWujnO4I0Y13gB3HSQ2RKpYor+XR692wdvW5C4NqXi/TGBPyExsvww/+juc+9weYI88yms1QcWleuaYUr8ld2otf0aW+G96RVQEJIQkvHrWKNyEyH6mn0mky0jpBeuBRDv7h/wsvPArTL8H0CVynjQfy2i8sp4H0isIIIhV8NAI+Ys/db8dVxpGkltfxZc7Q7L4sQjnqsepIxFO3CscPgRbs1rWJNSwY+++WlD8zjheffgKrDvE+Fxy9RfPB3xNKwc1a9H0Ly9kMaqUnrBda5m737J1C0v1fgCzzzHYcI5suh13XgNTwRvKmzbl1yYA+PTRLumi326RpShzH0DkNX/sUP/rsv2M0Pc1EfTSw9NQQSBeFJrzYHSuPhzMRjCuDwps+uFyK63vASeh96YwLTHYyYhy202ZEwTSbuCMHef4P/x944mtg20TVhIwgGEMBhw6rXjDmk0GYG6rACFx5M9v2XMPpdhoEo5Z4vdobp+H6hrFtcBgcMZ66FWZefiG0W9O1KxjXtis17zbc41cKaAqHX6B95CBRXruve2MZIMQLpXS+uYJWy4zPJcf4MiVMLni7Vut8WzsD4qgCrqvYKbZaZ9Pe6yGzUItL2+sJ0SGgUIYCwlVJYosYD50jzHzjzzj+jT9nQ+c4Ti1NFRJVvGov2XtR5eksrcCzvUHLnYNLxsB8qy85/tbr+nmis5aVZgHvwlxSsZZqpU5HhLR5lCf/4g/Yc2KK2jt/koQajkq+tcWbV/WPvBWA9P6GlxbMCHQ6jL/hn3D4xWeJ2q8Sa7vEog7xKJ9fHxWP5AXbRSERQ6Ke5rGXGfUNYHQlzuy8YA0Lxp6YEzK6YfBGG15+gS2uQexTuua8no15XJo8ZYlBrMUxncFWl3KTnjEUZyCTvOhV6kiNJXrtHTC+EYRul3KlyEia5xgvQWkZ7mya34UICBVSoA3f+i+88PnfZ4u2sL64boqYYFYUzuilayct4CZf+Ndnj6XG59nuZ56Nrvf1pWjXlM8dXgQ1IZYmRvBpC8UQZ57t1jH19T/i1ce/wZ5f/hh2Yi9NVyOxdRZqurTa7Mi+eSHZANfdS/Oqb9J69kuMug5C3BWOrrCsRRHxgfinYXaxXrBZmxMvPMmW7HTY1hrFGnalQi+JPLg7vM+gEpM98wPGSLG4Xm8xeh0NjIboXDFxdV2rJRZg798ZDuQzZRB2XbelT+f4NwMW3a9q15p1RkiNwUUJyeRG2LQ9NyO1rBjOv5NLFsXVD+4gSwqdo7T+7tM8/hefZHctJcn71BVjBgqXW8kVv+S9PrujWu5yTvs5i/G3LtfvbqPI+QvKtiJggnD0OdvSoJgsJenMMNY+ysiJZ3j6934LXvwONZvSbM/My6crO9VX/GmU3p//n703DbIku+77fufezLfV3ussPYOefQEG2wwAQiC4gAQJUTLDpLkIEmkj5AgrJNmWFGbYjrDDX82QbDMcCjJog2KESFMCyQBFiOAiAsSAAIllAAxAYBZglp6emZ6e3rv2t2Tee/zh3nwv31b1qrqru6q6/h3Z9ba8udyT59yzC6CqZFmGlyke+OCPkzdmyY0ZuI89dxOE/qO+MEWrYpyj4tZh5RIMJ7LsGextwdiFif87aK/y+ukXQbMQZWoEiZuRsFmJnda6lXDjVnot2ynbUAjXjbbBx1XGvI7YyGcieIwq1gtKQjtpcPsDb4OktvuWpbsOPcYHCm4VvvknvPbkv6fm21xdWkfEdGlHzKgJ2Gyu9wA2o7/Stp/3H15slB+84YGL3ziUtmRIts7M2TM88+u/Aqe+yHRyGWh3haGjP4HhpgvFERARjDE452jc/xBzJx5kPZkhNzYGJBWLQg9F/0YEL4ITIfceawSTZ3D1Cmw5dWn3YB8IxsjglFC7cOki7dUr5HkzTt4Iku9qW/1a4qDGeH3Qf2wtH6sc+DN2r4F9uo+kRsHoMSooKctahYffAW0HtsLufPx2BwqxaMmwbgUuvcypJ/+A2dYFpoxSr9Ru6PncTBYySnBsRSPdkf27cqln0en+Gyh4POnxi+dp1PO3sR4+/DgqYU8AACAASURBVFk4hbi/KMZ3OGxz5tcv8jf//tfg/HfBLRIKMfaPtJufSmst3nvoeBbe/n20GkfomAQvvRxwYoeSoDdbnBicAYdiRDF5B1YW97Rg3MM+RugRaugkTb6GvvgM0xWPzXJKoTP9mJAyu7UF46FKLyccYPgxkIG/WrzRaMCRUb8uHV96HxQeLgO0JMUu3AHH3wJT82D2Zv7QjUNcy/smnP0OX/+N/4PjnfNU807wDUn4TXmud7L9UDG32z6Cbm3fciR++RzGXuLA+Du9v8b/izzR0eV9h5+tjaeo9zwOPX8TIsjTIso7jCAqeFHW8xXqScrty+d5/lf/FY987JfggfeAr2NNI0asxsPpyAvaFUiSBOw0PP6D8JUv4PNVmosrJJVaWKCYaCLVBI/gTEjZSFDUh16Xev7Ncdx3T2AfaIwRChjP5ddfJmsuUa10pc3wdj0watyRxxm3Gh3YRp7XRvuE7wXFePAkHD75MCTTwIFQDNhAX/E5dFZg8Qwv/8FvMr36BvW8ReId1is21jrtu+OTzPm1bKNOfRKVa5+iKHlYaGVljXEr6RgDo17jFseIGqcQXBk2RshbnzHVWuNIe5HnPvFr8MpTYDqQLXcD4XY7rLVgUtAGdz/+/bQwSCXBiYTgm6gxohZPQi6G3ITFgfcZFXJWLl9gfLrG7ifqPS0Yw62V3n1ur3Px9ZdJJMe5NmI0an2jNzPq85I/ck/AazSlWo499njoni2hU/ytjU0ki3Zg5Szn/vh38BdOMSedUClJJUQlqsGIwRjpbjca13Mdd4Drg8Ks68WHIgCAUUPiUhKXYH2CqKHimsw1X+U7//aX4YW/BL8M2i7F92wyszdbdkgC1OCRdyHVBplzOBNSNYoUOQZMqaEYgsO6jJXLFylCjfovRek1S9+9PGpPC8YuBCCHlYu4lUtM1yusr68B4z0GwOiAlsL1MOIYfZrDwHg9b8Xgv0k8FoNnNhqD3yrgxNAxKU1bg5MPQlILvgBzE4huk0CIG4+hRzJaUB3kTXjmS6y88HUq61eYSYjpGvG3hR/rJp1tEIoafVlBUPcItgjlKBWOiP50KW2Di4PuKykMyRKLQYetCKLolSQYvn9a7FM+goDHRx9UQfe+f4tFMzbz3feOOAn9jn6CRm+D17F9ttxfCKSgGe36HVU8VjPmXYuFtct869/+a3juy5AvYrQF5Cij4x+GLutmyQ6xIDVoHOHQybdip4/ho84b5r6gIB+jtuNuRhHfIdEMYi1h1XK7BmU4FGn3YU/7GHutkxSkRf70XzGfOHw7p1afQSnqnwZ0fcHSPyVdv9/APA0pCSMYpdLzR/U+KX48QoLSv1jUvl8O1sCXkS+LD1SVTBIWfcK97/0gJHW8TXBGSgxyC9x91E3ZKnaFQAwoz0Rxn8mBFHjxO5x76i+YbV2kmoBRjcHlpZWR6A27nC4daUkoEj/UBEFiNGCGSI5XR5FEniYpqU3I2hmJtbRaLZaXV5hbWECswRiLGNMnMj2KV/AaE9hVuw2ZExON8S7H5zneKXnuUDEkaYXEpvFmejyezOWoKCIaSi+q7x6lQCHce/39hu/scNu3/gdSB77Tvv5rw2y23+ojFNU8Rj1/W0OPPhRwpj+eodAiTctyGMNMfpmXf/fXuG+qDve8HdJDKNUBH5zQLQpwPZ7Da4ZAUgE3S/0DP8VLT3+bY4lgNAMx+NiD0WCoeg1F90VQI4h4VpevcDxrQU3LTDKy695iYjfxizL2tGAMUAK3a3P1zVdI8iZ4jzFJMIPTNbhuCBn4u52zGF6HyohX5d+PHmWSM1EAY8hIyGvz2NvuAlPBiY0s1dPXiHmr2B7H2DWIMbtAZDfF9STA1TOc/sIfkVw8zby2AXB5nEEJ96631rnBq9ourw+1cEEir/SouFjU2WMEFEPuhXY7CMra1AxXm218MkV653HOtT3YCjaxGGMxJg1mdglJ6425uaj9hft15MhRVldXWVq8wvrKCtV6As5B1kFdjhUltQa8Q32GlVAODCyoCxl/XaHoQAqtQFAtp7sPLhrLDHIr93tyC8tkz99WUDzx4/ydgtHQgaWiTXyWc+qTH+fe//K/g9sewdg56PbnELqpQ+XV3G6A1GDubo49/B7yl79ERRWHBQEjISoeH91SVkKPR/UYdbC6CDM5JhYSj8uSm3s9E2KfCMYMfIdLZ1/jkGuHhzQxsQfh/oQCWEPmBDtzCE7cByZFxEKsjWq2ainfRzcrLJckrsOLBYtAtsybn/43+LPfpk5oMtzfKqq8Irjxpp4oE1EsaCV8Jm0wGSo5ohr65GmC0wRvqlCrkdsqFyShNZuSzsxRWbiDudsfpjJzhJn5eZiegcPHwuBigjnESljJGxMFpmXWw6x34DxkDlZX0CvnyJcvoWuXeeOlZ1m5dJbpCuRri1R8xpTLqfoMmzdBO6gJzWu1aNCsMVFeoCjQKFGahO4MIXBl6y27di8Ujzd50MxNhhXHzMUXeOXj/5J7/sUvQ9WgtaN0SEiIGnqJTLvtgHbDMzl9mOOPPcHp01/Cq8dJaEcgUtggoO9ZkbAs5eolONqGZCqEPEiwSAR62N0r770tGL0PuYtkoG2SvEni2ljTYzBls/2oEPHtoG9/GX7f+1Fv8rd3/A2IJ/bN6nhBG3Nw7G4gRaI5ZveS3I2HJ5qA1hfh1NNcef6vWWidI7F+DDPW7nzdMF5doqOecAwEbCT4ZBTFGUOHKh2ps5JXSGeO0Dh0nMrsYW6//xE4fhccOQ6VOUgPB+HqXRSGSS+NRwhttbpv+qEeXB2SeZATj5DSgvXL3PPhn4RsFa6ch0vn4Y3XOPfC87xx5hXqaZ1E24h0MLRJaGLIY1cXg2g08Wtomh2us2CSO4vr9/xvvncwgXvUhAT/3AB4KtkKlaU3eP5Xf5lH/of/HaGFZbq//V0hFPH0GorfJChh0aQWTt7PepJS1WCSTw1onsfC4uUdAgRPe2WJquaAw3tFbPDiBw1S2TQA6SZiTwtGl2fYigAZvP4yFbdOhSy6E2Kx53jvC9PYuKkQej6eTTHooxgUjjA06ZMdvzzQxkQjMdAhaTQ48tA7QOpgqghJZDnSNaZONiLDF7F76XZTBKtpKAboAONa0HqNF//4/+WYXaVq87Cw2gBlZrrTGLz1iqfl18jbbabE06hX6ZgUX5viqje0Z++gfve7uOe9H4J7HoKWgm0E05epAnbzk9foTx2KEBTEGDxCK4xEQoI0FoAMKlU4tgCHH4YHHbd9qMNt2oaXn2P93OtcfOVl1s+dotE5j2ktYr2nImBchs0zqibBGEtuhDzMTjjqwPlu1uFGNsnZGBzv+uTVbazF9WoPOMR0AIPRKbxYXLWD9R3mrr7M0m//CnO/8EsktRrZqiOtVUt1xwv/7KDJ+QZCCZHtxkJ9Co7fwd3veoKL3/osdfFY1+n7+WBlKEFZvXqRqvGQd0iSKTIKPmd3PWvZ04JRoj8Icrh8jtS1SDUn18AMy2RVLMY2ejQmYYSDITaDr8d9OlaAdn8gA8ffxH8i4HD4JGXqtrugOgc++CwKBqAlVjARIZZv0G6n3E0RczwJRY5Zu8D6k5+EC9+jVlPEZ9GHt9koNwdiDdVqlaRWp91xrGpCJ51h+o57uf+xd8GD74TGCWAaOjWozxJ8VuGku97ugXnsD0cpVo0DVK3Rd9b1FloUg8FiqGLEByZuipV/DnTgkUM0Hmzzlve2oL0E3/4CF176DhdePUUlW2dhSqn6jIp61GXk6jZdnIyfgYJYJydU7bvWnUFZZ9J438JK3YBNSSTHdhZZeuFrLP/+b3LXz/1j0unj3X09ZdP/TYTQjT70IpgkZfqBRznzvaeY9uvo6joy4F/tpy2lubIEOMr5jNH73PWs7lY2s6cFo0mroGsgjktvnCbRDgmOnDToSuL7bWEbSMZJBGf5t31jjkP5IRzFpYaOP3khOhVYWl3BTZ+Aex8CKiBJPELv/y0/XruVUreMwNQNHciu0v7ulzn73FeZthkuV+wW/K+F5qFjEpbHKS6FRrOdtYb3ivOGZjJF/eSDHHvw3UEYHnsLVKboXFmhMnUPvr2GV4meqhgEP8GBemdWZuWFoDQoBktPiQnG0CQ+T2EfLybe4wpCI6rpDmptsIfhA2/h2A96ji1fhGe/zmtf+SydpXOsrl9hOrH4vNWn1W3Nxzjqid0kxGaHaHu0ayUFrQNgyBHpIJpgJYGkTeKWyU//DXzjL+BdPwzpAi5pFKFMO3eyE0KhlNajIY/3gbdhD9/B+uvPMquu5x8u7VMeYWXxCrgMbJ0ehwsIC4Ddiz0tGAPxeNCclSsXmI65VE5BxaB4hswnG9DbzqzR4qgbqotQhH5PCo8hnZpDZg/B3BF8u4OpVPqq0A2b527247Yz6Aqewq8rhbYIuCasvMGrX/8MLJ+nahw4F1MTtpPG228PHz9nhUF7wMSkMTCh+5tyDmFCLpZcUjqmxsJdD3Ln+34YHn0C0jmws6hWgCqVQ0fDCJUGRrXLwHpia2M/c1kc9n8mEMudGXqmwd4P4jq/yzR7owQxZfFJA5JGYC55B+Zm4PFD3P22J+DZr3PxO1/j7JkXqJklqn6dRHOsOox3wbJb3Jd4bwpva++ki1QWHXA9lCl8A7/FDqJYlAQZbynyGsM5x4VEIqEl3sobnPqL3+fe+Sm4550kyV1oEYrjgZIr6IZfB70s2XAKCSTzHL3vnaycf4kK67iOK2YioPTSqKOzchnydUhmwDvEJF363Lq+f2OxpwVjp71OpQqsLbN65SI1a2hj8ZLgNVSEKWMzwTPpJG1XgGrfgzzq+JOTiZeEda1y210PhvSUSkI39MsUTKGf6W2mQe5WIh0LDdfp4p2zGj8zOeCD4Oss0vzm51g/8yzHEo9xDqs5VkxcNpWvOoqGIXt6/Nz0a4Cw0T0TkJCUb+L5ifpQZDlW/lAsahJIUvK0RsvUWNQqOnOcex7/Qap/6ydCiT+phBJdUolRx735LCo2Qa+v3uQaqvT9Hfl7GfOaaE3tvvNISaB2kaRhx8oCpNPwxO0cffiDTL/ybfTcNznzN5+n0VliRtukeY7kniw3zMwvsLiygpcYpqMaoyChaLnWT+IjPIgiE5tOt2phHW9CLL73KCEVqJsypnlXU0+M0pgS1pdP8ezv/wpv/cV/AfceIWWG4IyzPXvjTUKx6AkewTpwhPnHf4Rzn/9dZvMWVtKxvidLTt2vgl8FDb1hY7OjPeGt2dOC0SQWaMPiZUzWCkxSYv+0m22nH5p1HfN5aYctnK4TS1vqzNx+Twy2qFO2549KTd9MKO7mFdx4DJ5xwZodrF6A1XO8+vRfcbSq2HZIRFerePUDuXUlP9sWb8JI02XUrgJvjtVBcBh1GHK8V3KvdIwhNwnr2sAevZeH3vvD8MA7oXEMKkdDOkZEWeCMWvIVBS82EHPXHf0VdlzfN71zSEJELLUgTQ8doj5/GPL7efCxt+Ge+ybPf/lJptwqDe2QaI5fXi4l8G/ZwREPP/kDpZPL0AnrtCqIGzir3v0RlM76EjOJRdYvcO7JP+S2u94FzRySBbixzV02RFdjrC6AP0o6e5hKp0222mJcgS1RT6Id0A7FHG6wxtp12NOC0drYVePSOWynifWhNJGKjxGmurWHY9Kf7pSvYhONsgwnBmnMhzJwJISE6mj4iGHe19tjs+sghR+xeB8+85JgfAjKuvKlz5GsXiVxLRQlMyEwy6piXcn8Svnv4GFCSkGfj3GMubpAkTgvqlgyDNFciAvmNWMQW0HTadrTt7PeuI2Hf/K/hvk7YfYoZAKmcg03Z5fD1MEfgmPvwR55nLe9+6e58tW/4JUv/yfumW5S03Waa2vdh7Ir7EvrliHnwxDB3hgK3ih8YNwZiII4JRGYq09x4dSLmE/9G479zD+F5irI9A6d7eTodzTEhU6lyokH38mlpy9Ql4RU85H7Fo2Ly/tKtCrcRHVlYuxhwVikIjhYukzSbpIQ6xV2K25sUWu8qZJgM42yH04MtcO3w9RhwLK+skRjempbQnHgDLZyGjcV/Y8d/cLKZ/DGi1x45qvM5WtMV4Q1r70+f0WGgivu+0Z3bEBwjrg5g1pEqBZKZAM5Qgb40KGAlLZpsCYzHL7/XSw88SPwwLshPQRUyV2CqdS2ZFq/+Zj0XIvfVaB2G2DJO02SQ8c59KO3ceiHfxz9i9/ntW99kdQKFZ9FhhpM0GYwvWTDebtB929rxp5iFyppSnutRVqpMeU7vP7UZzj2wENw/w+A1OlZP248Rh/ZQzOj+tj3sfyNvyYVR8powQglwRhdHqNsO7sVe1gwAij4NpdfeYG662DVhYdIQjK0kRBLtx/hTcrCifshnQWqNGZmQNuEIJ7dTHLXD92r1P430umAWefMk3/IXHaRGWniW+tYY3EmlOoqmG2oIVoeqOQT6voUSwFU3QVZz2A5riSYSExm11BIIGnMsJ4Jl1sGZk9y4vGPIO/+ITh6F6xmwQdnbCxm3ibY0yaZy5s939s5vlDEJSaV6AYQBV9BPvLf8JYnfpxXfvf/oX3lDFlzhYVGBZ+vhwIeeEwxKyWJtP1WVONP8XpqN+Vgr2DQcqQ25HdOiaOS5nznk7/BYx87CscFpo4DN8dqUDaEd3V29cHfffdbSY/fS/7ms0Bz7BiqHi5dghP3jvVF7lbsaanRoQOJYfXim0wbTxJ9OUKOSM5N9TFeM3oa76ieBE4sh+5+IJikCiOo9O+5/zHqKl2wQD7/VVrnn2daF7HZMsa1UJ8j3mOdJ/FlM6r2OEHRXmVIExm8q+Pnpvd96HqhElr2XFxrc0lr2Lse464f+Xnk/T8JU3dDK4XZO8EksedCf3zprQEbwvrTBajeBsce5Z5/8r9x4okfwy+c5HJeJTN1vEkIHR3cNu0ik2NnRi/oTcm1Q1IxiOZUfEY9W+cwTZ779L8DXYK8tSNnMPF5qo+BTiWkNTDTHLvvHeQS8ma7Vpi4xQgpfKExbpqruvuwhwVjZEnNVbLVULPRqsd0H5qdf3B2GkVgQ5foSus4j4V7HgRTI+So7D3iuzZEwRPvT/fq/Rqsvcbpr3+GBlcRdwV0FSs5CUrqoJpDJQ/RdqEHZwxgFEHEdLeNj90vuIa19FhzRxwqSsekdOqH6Cyc5I4f//vwyA9A406YPgqNGXCroB0MGQ7IQ2mC63e7diOKKfTQSwI3OCrBEuIXSP/2x3j4o/8t1dsfopNO400aInvJh57v8txtLxXnRiH0c8ytw5kcif7nmiSk62vMLp0h+9J/gmx97P47u2hSRtE4YsBWwNWYvf/tOEm6zaSVGHJqQhRTKKe4d3nSbqaeiHG+QqWKwqXz1FNBfTsIQwVRi/hufaVtHOdatuuHbi8+LBpTrZ1TVFKcpGGFXZT/AtT3zKjFlcs2t72E4q47bUK2BK8+w/KpvyHprIYE43hVxgtWiabUYUE22bxu9J30vRI8DsuqneNKeozm4Ye4/6P/Pdz3HqgdpWPqtBUgAZuCFAkQIZetOMuN52Qw1u9Gz+BGx5qUssre4lBcIFcDUgsFW29/lHt+8Z9Rf+C9LNWOsp7OkNkqvjBtSyEio74d80Kv7Wmc7Hkvd1yVgW0SfqCxLqqqI886zFQs1fWLvPb1J+HKaciXgA6eDCUWZt8hfhPPKGzlKelCQtoQFZg9RsvW6JgUJ0Egdnt4StEfdO9i9/kY+/jMeMYDDvI2K2deD0WWE0XyEPVkYsUJkRFdokf4DQb7vG0PMvD32hBqhCuKxUVfkyGj49qk1Tqzh++MtTHTHh1LMnS39pqQmxwCRbpFvEgrVah6rn7zi8x1VqgagzXTwdDswRbVYWLx7KCFDwq90hGG/CLDEQQywA57Xzucc7j6LBftcU488WPMf+hnwc6GxUxSpWJ6qf7BlxSOn5TG2nz+xjHIGzXzW2XQQzew9CK8McReipUESEDmoXqIYx/9JY6dfprXPv1x8isvU+8sMZVIKJm3vMrc7FS3UIIiJDHmoHuEzU5z5KltzD8Gn/qeX64/eWb4UAWtCGJCzStjhdw3qYhQaV3g9J/9Nif/wT8F5iGZxWEQLHYgg3RHMM55LhbSOhy9g3ue+H7OfPlTzBvFkpcW5Rr74A7eu73DjXaXxqgDb4byJ0orJfXgO+TLl1HfwYtHjY9DhLLHRcJx33p1zMMxvP7b6nYt+47SQcojx7Y9AGLJpUJt9giYFFUJQV/GIGIxMR13fwvFiNKDZvDgzsHiWVbOnSLN1mPCf4pq2u0+DgxoFFtfeff2iIxAQ186oxoq26jiJCWvH2a9cQcP/dDPMP+DPwfpbZAcBmkEBqPlBzBoS3R7UWx3/nbbzG+gMXY/ljiXUbOHwJTFgEnJjKVjq0FAHnmQu//R/8Khx36I1dpRllyCJilz8zMUXSkMLvaJvFZP7fg9R9kMpPTFxvpquE7RsCkEjUtCuy5DTs2toW8+Q+fLnwbWCj2aos/qzmX/l+ZJYPgY0ZwqFWrH78Y15smNRawJOcIS/eM7XJN2p7G7BOOW4MDmrF49h/o2TnOcgDeKL8wTO2JquJHwED1OKi74wpKUpjfMHDkOYtHYgb3XomZSTWPvQ6HXsk7bkK/Sef5pVi+/ibX9LNFIbKba54eS0sbA+9F3sGskk1h7RYNQtpqTaIYlR/B0pMZ5ext3vP+nSH/goyHCUEpRpvuo9+D1h0ZhWQFJixa+YTExewdUTlD5L/45Rx7/u6xP301bLZXEIiIkotS1RV1b2A1SCW4eBk3fo1HRNvW1M5z60p/A2hK49UBngMa45Z2joAnM32LgrntJpg+RS4JY2/PVm/HPz17B3haMtGitXsRrBzXgTOh9puK79Qn3LLp06REJDnqMoknCuljMwhG6GkuXCG8VkRjQnV1V8C1YucArT32euulQScPiaPReg5qLxlunm29BHaDwKoWVP12zmSOhY+qsJvPc+cSPkz7xEYKZtBYXL3B95+lme4fHHfdaz0fCwo/Cy16MWcF1psDPU/3Qz3PssR9itXacK75GJpX4+6A1XrPSMsJFen04yub3xmrOjOlwLGnz/Cd/C1rLseSjRVTRUQa164rNztGGNKP6AhmWXl/NWLd3j/Ok3edjHIdBfqYOWldZvPgqx7WDpJbcgVGDUYJZS2T44ZCCiQ1/du24fkQQuppHn4vkIULRGtJag1a7Bm+5D0paz62I7qpOc3Atsqc+T33xLFXbIrEeyRTxg0JQhtwn/YWQN+Y2vce9zK6DZMxJudISzPxtnHjXh6j88M9AegR8NZjDTbF/qTnvCDm9ddzs+R8nGLeHQb9c8a4IYPXVOlZrUMmp/u1/wFtuP8nLT/4HzNppTOcKrXaHeq2GqonOlO2d0UgX2wZjDVseRwV5TYrgvV4++wq2WYHnvwJP/OdABXEZBkVswk3TbSSBdJbDdz/E4sXvsrx8mUbFAh6H4FRCukZ34+aT6RawtzXG1UtYt0piPd4ozgi5keBvlCKUv38b8g6MchIX6NMiJj2va/NqDI6i4kEyRII5teUddmYeatMlDeTWgwKtLCN3WegL6Jqsv/pdplpXqGgTiYXEx8//AEbmLo5GP6sNHSBySWjZadLj93P8nT9K5YM/BXYeTB3F9pisDoyyh5jFxrgxmmt3dBFYddCuwiMf5L6/+w95PZ/jCnPY2eNoUh8SsDqo+Q/ygb5tiyc1FtuMMhChPjXD8cMLzHWu8urn/ggunoVOC3C9kpc3C2LBWeZPPkzHGyrVavfcg5vBlO7/3iPym8pZr0mEqIfF8xi3jjWK8w4nGh3Ywb84UhCiPefw0PcllD3pPY/6hFd0/YRj+N+hkmMsdLyjtnAIGrOAuWW1xQKuSMe4dI61119iOlshpYOSQdecPjD/Q7ds6/MVhigC1A0dqdKsLJAffoDK+38KaidCjqk6RHOM5qFhcnmA62aa21/oxfgOfh4Sl1LtgG/D3GFgCuwhOPkE7/rY/8rV+UdZSxZYXO+gpYVjwQ+8RL1TeptKUaih/9+EJ8t4+tmmUCQ0zHvj0hLtDKaMYBffhG9/EVoXQPKQ3mMG75Bebxa0AQxoCifuYWpuAWMtRTWp0C7sJrcGuUbcNMGoo14PLjp9rxp9EHIOyII/ya/B0gUavk2KxztHr0qoBoKnlBxf2iabr0HKGreyHLfC3P5D0X/s3g1RoOM9Mr0QBOMtrDEC1NKUxHhgEd54HttZJcWHQvK+0LhHzD8wbDXYGsIegQE4SWibKezxR7n7Z/4xHHs4pGVIEmmjawQMm2hpjANsBBl8rR7UBd6QObA1SBpQOwz3fR/v+Nj/SHb7O2jN3UPL1EP6hg/l5orYA5VQeKFUXWDk8zyabui3JPXR0CjNbxx/2BiqnmolIe808VmTmjY5/83PwNUXQVvhJNSUiKh0zDL72DEiM+He1+aZPn4Pa9TJpIojQTHkkrJuZ8DOQFLZYhPqm4+bwlnLczb4uojDVIiCMZRizvFABq1L4K7A6WdpP/s0866NzXKsQuI9iR/RnHjE8be3qNpEkA0tcf22t64xQiWszDTBOyUXy+yd94E0YrLtrYmCVmwi0H6Jl576j9TrFmdrqNYRX8XIaBd6oT30zKvbgYAkqFRo5ob6sfu486P/HOonoUOMpi/C9KDbG3CPh7HfGGy0ejUgFbBVsBbSJC6iFajC/Enu/nv/E8sn3s969TDeJHih1KM0CMbeVixcBqwK6FCUspi4CWOimRn+ffk7IxNvqVFmk5zpNMdbj0nb+KvPwdc/Ddki4PrkelG+bSR2hOQkzEXlEHPv+TBrjTtpVg5BbQ5Jqqz5lEd+5OfhjrdDMoMvlYXbC+E4u0LlKOtGpisQFIyBThP8EilrkJ+DtddZ/OzvcebPPoG/fJY6HrIci4ltp+K+mwqxTbZtXcXgGNeuMUpBgMQUA5NSN1iWZAAAIABJREFUnTlESHzeFdN309BRB+sX4fxLVDtXQHK8SUATRG1c5o+Z++sAm1ZYzYX19BBzH/iJ0EfPVntm0u6214sT7iKIBP+W2HBfC23OhMpQbV+lZRZ4x8/9I9zRe1irzqDVajCjEgykQijuTrE4ohCF5ScvflrSFvvncNyyevNneqLLVMVqiEaXREAyZqodXn32y3D1DKxf6QVda7FMvJFUJrSbbUDg7rfx8E/8V7SPvJXX9Bjrhx7ikQ/9LNMPvhfSecBi7N7iVTchKlWjHbpoJxy4SNdU70M3AnzcxEP7KrQukH/jSV7/9lNUW6ssJB3ayxdIxCDqgq9Ni0Hi/3KjMxmv89G0F5mqgLEGm1imFxYoWrncqhA8xrehIrReeB7ttAAt+V0KDU12pGajAuvtFnn1MLe/68Nw77uD3yceOvwZpL9irVxe9BxgM0xylzRGoVerVdrtNqR17v3P/j5f/61/yfF8lVlRVAWDwfpQhTaPgVNhoRTnpWwzHRXSPvrova/Lq/yh30/OH1TAYfDS6/6yvt7ENGY5/6XPcvynHwLXIqQBbSAUd4jEVD2Vag3wUDkCj/wg9z/wPsgzSFKozQMNXLTgGbN3EiDgJqZrlOfLI6XedR6InZ876+BW4Jkv8t0v/BEz+SJHU0e+tkzm2ljrooo+evZ17DeTYatibvhY1zpCOQwhjJXYBKZm4sXdCox19D0UYodw3+aV577Dgs8QomlMTbAabBgYMQn6769XxZoQ8JSpJa80qN9xH5X3fBjSw8G0HYVxCKzRgbHK4/Vx0ANcI1QVVcUYQ7Ua6wff8QhP/PTH+O4n/zVuaZWZShoqFBlBXR4Xz90RKK1oyiP3PtO+ZXfve9GeDB2YzlHF5TeClH7lSUKDrS4dC1WjvPHdb3D88imYe6B33krQpCm93UHSEjFQaIFqIKlDIqGZQSmNRDW2ANy5U9kR3ATBWMyWCXEIEppDhIkUUgtkq5A04c3nWP38H3Phhae5LXUknVWk5TAiqO1fj8tghJZGe//1Ot3NcF0UuN4IhQYs9PwU3nuSNIXpGTAJ+5+pbiTUHCbxcOYMnSsXsL6Fak4I17JIdzGh1xC5OyAY85xKWkGM4FzKhSzlsQ98BA6/BaqHIhEXUXmlEa57o8ADAEPz2h/gocAsnHw3x972QRaf+SvUrVM1Dm01URXA9e1fCDfV0pvSaNInRPtfd6325W+2GdQVysQZVEKpgqK8U5IkdNrrzFVWeP3Tv8NdH/1nUEmBNPhdCQURiqvaahuF7cKTotFYE2RzDJASiQacvUf/N0ljlB4R9RbYJGSQXYbl17j8lT/jta/8GSdqnuPVNrq+TCqg4kOdy7iKEpEdiXgqVpOTjhzarFyL1jjwkNNvmQFQr7GdjnDjyP5mYTNNLwRjdS6/yZQ4UtdBTMihMn27XQ9tsX8Ml+e0tMrDH/gxuPttUJmJdWsDS8oj3VhCLcz9PU+7A4OFLhSLMA1mnkMf+UXc2jpXn/0CWbZMPYkl5BTUl4WjdP/X0kjFd8Oisn9PlZJw7folt2E1ksLhZEIFGYkOJ2NI1VHvLLJ09rtw4RScmAIzTaiu5GPNn4AdTZhQBRyo4MXiJTyRgY8biu4axuzNtI2bZ/gVulRkEIy2Q47Oqa9z+nOfQC+/zBFZxrcy1jOwGjRLawVMFrujW1ATKvEPDj9iBbfXMF40HDDbQjBefOM00xYq6mP4QfRcl9xFQ9aEiSAh0FF7xmxrDd47Op0OU8fvJX3b34Lp27oHCsxByOIIpsua9nYLnr0IQUJUe14HOcrRn/0nJCtnWX/tadbJqNSncOt52UZT7BXiH5Rgch34fvzx+t2KAr1GvVtEN1SnWPxT/BVScSS+Qyu/ytnvfIU77rgvNisPYqkIVC3G2Tk40HZ060/hwifdO2T7ag7tPeyQYCypg5FkgnO8/JkDzUDbGN+CfJnLn/k9ll/6Buniq1TyRcS2qaYJXiztZoZNKnjjQVy86WZYrRpzJlvGFrTF7pGi1tgbYysjFA6M0qq1WHUKqAiS1kIfRtnP2uJm9yx+7zPIl8kvvkZDwJgE110r96IAu0XGt3EWXfOZ9kyyHSxLdo67H34fHLkPzBwagzmUIsWZIYY7fF0Hi5sdhQqohdosMA0KC3/nF1n7vSXWF89QtwkihkQH/IDaL+D6nH6b0GZ53rcvlGIkbN8YPd4geBLJqGmTy6e+wx3nTsHtc9HfpzFO48ZGQQvD1LzXPeg7IBiLKS0ipQQliaswB1L4xhy0r4AuwitPcfHJ/4C/fJo538HZFLH10EDJO4xRGo00jKcKmtAjw14lk7IcUsKKbytnPTiLW3URyNBOWySLQc1Xg58BwJsEl0wzfeSukBKws4aSm4TNzKel730bzr6AffMUPnO4pI66FgaPkdAPzsd2RtthEoXPG3qmftfpsGZnmXr7h+H9PwP140ClGwmrcZVcULihmNJBLjv4+gA7gmjtwxqQBTjyBCd+7n/mud/7P7m89BqHNUXUobFnhcTOKGHKTH8ChMSc4u7AJcTod9GBb7YT41CiF4njmsjqvIaEEydChZyZ5TO0n32K6rHHQison2HFY8QOeE93AGKBarhGCTRfXHu5VP5exQ4HC8WVNh4j4J3HtVagcxXcIiy/ysqf/w6v/cGvU7n4HAv5Rab8Eom2AV+SMUqvekghEE3fMUZtW/nHiLJQW8tFZKAu5+R7jj5jumMUPoeON6T1GfqKUO8bbEEoAmgOp79LvbWEqMMVTYvjyr6bxM925iEOJT2t3SNQqZHX5zn89g9C9RiYKYrVeWE+Lby/43X6A03xhiHe5hxwVMAfgsOP8uiP/j1WzDy5VCIn8Zio63crZ40yg25UVxkdev63jx4lSpkqS2NbdUznq1z43rfAtWH1CqgDLbq37jQkKDkxEtbQT/d7ncJ3QGMsbklZcLnwx1ZCpZLsEqy+zvk/+TidN54jbV+hUgHnw01ONAttY0b4ZjaKMNwPfsUyBi+l027TaExNZNbZ//CsvX4K0TapNWTtFqkJxiYdYGBbsRwUKKL7gocwdIVvSo3G0bvhrvugUofYF6+cMCS9AYbM8XudWexJSElxrDWAFO7/fmbu/Ruyl7+IZMskmiEo3iQogpFoqZFy+6TI8CeexOij3haC26lrjuyu93p0LShGHcsX3oAXnoaTjxPYue0umw/obfvYoYVFjKjCorE1D+QYyYEVePErvPI7/zft099gLr/MsemUTquJikHFdBu/7op6IbKFbWjfazz/QmuJb7M8R2r1+KTfKgEdJY1cFQgBMOBprV2lYjKsyVDfQfF40RAEI3At5R2KozoFNZZMKrjGMY684wNQm6NYU5ZnYaPmHftjHb2XoGBc3zPYAjKfQu1O7v/Jf8iqnaVtUxCPtS7WUdXYmceNfH5HW3nGWR10a/xDiiOEv30aLL0gsDC0kho4Np3ynSc/BfkiaIfC0rYfHS03EjsWlVqsaxwSwnfXLoKcJ//ipzj19BdotC9xSFZIfYt8vU0lTbrTbmNXei89nbG7WtuA121tRTfqfLePUV6kYG7Yzii9x6DwUogRGo0GzM5COhu6Mu979EuZwCSCYDSrS7RWL1PXdXymWOt7NCMmrqi3H4bgvSdzYJIUJ5aOmaIzdTs89F5I58BXwzmNGb6fHg5Y1A1Ht+mAAglKXMQYEK2RVO/gwb/zC1z+3G+RL79CxWR4F545W/Yuljt0jCUlHZ5i1W0yI0G6lXjKn9LHCwEqojTXrjDlKvDcX8P3/xyoos5jk1uBP+wcdkwwGmC92aQqOdg2NF+n+YVPsHb6aY7oMjNTgltz9JKhe8TQ3wFhaw7sQdq9USypV+Juo7PZCMXeRSBHHLV0L7z3kKZAzv6vk1pee8d7or5bqFmXF3H5OurWAIO1CR6HikWlt6QQHa4/MwmSNMVUUzoOMq90kiq3PfguqCwANTzJppR5IA5vNoI+Vw4GEaKAk1l48H10vv0laF2ibpu4tgsVk7QT6y0P+PK3MqF92t/1QX/oloLLaIjH+EXWXn+Oqc46VOcx3iN7rtbM7sLO3T3NadQVm1+AK9/izO//X6yd+hp2/TIVcaw0W6xJnXU7QyZJtOWHlZpHQhI/xYq/ZFLYoPD3QOjKtV/DZoXGh9rUDLa5GnbIj926Z10E/hTtiXpBR945qFQg78Siyfsd5a4HEFhDjrWWy1cu4l0ToYOxDhGHmBCNqhJX1yJghO0EQnjnqVZqeKdgU6YWjlF79HGwIZm6les1+JAOsJMoGx8hMLkEqGqbis9IPeGT6p3c/pFf4CLTXM6Ejq3irEVEsVLOCNx9UPX4vENVMuZklauvPw9XLwEVxBp2oDzwLYXtC8Z+ng1EfwyEJZlfh/w8XHmW07/9r2gsn0KX3yTxTfDtUArOWJyYaP7qFyK+dKC+yKyNtrKQjCu2iaNSRwne7oVOuo27UeWxxiCoNwPH7kXKKdARA9UG+5Mjj/LBDZhSxYKGnpz+6kUSVYwtx3/2+2P6RpLBX2w2g0qruUqz04H6HDN3PABH7wPfACyZy7s5kpO4mw9w41EIxsJy0GtqRwyjnIND99M4+U6a1cNkJqaE9YnV3QkjgvcOawxGHdpag/OvQnYVYt3g662x3kq4NsHoNNBZbAXWi87TkKP4vc+S/emv01h9nYpbo5ZEDdDnWDJSaWFpQeyL5rvNRAvh0E+c4zpCjRZLGgMx/MRbf0PZ4VG3dvxRvyr/ejPBGn1ksfKKF4OZPgSV6e07Unc9+kVLoUF3v5MkaMu6gjl3iqoaRBoIVYykmJD5GsLGpedf7JYLM+O3/t55ghElkZyZ+TnOthKq7/wQcARvZ/HAVL0SwuI3GPYANweFOJSe8TT8lQqYCljwFtaBXBvc/aMf5c32FEgFG1UtFYFYMH53bgZjEjJvaGkVY1Ne+PJnYe0saDNYlPZYc+DdhGs0pfaeflFIhVCRpHMOnvs8nb/6FHLlFLNJRt5cwWisC6IOwWFivzFip7SeaXFAFZ0Q2ve60Bwn28bnLG7v+KP33UwoDu5T9B0J9yYTG1obiWE3m3muDZvoX+qgtYRZuxrEoFQQSUADKYeIvNi6bAsYvPMCrC4t0soctz/0brjjQbA1fBJ+a3a5RnGro2dENaUPLEW1LAXqAOk0HDrJ/U/8CG0f8vK8JLET/e6dYUXAJuQYOmoR9ZilM7D2JnTWQmeiA2wb2xeMheG+sGQpkOdglnBPfYIXPvubLJ57idyFbhiJtSOLfRe6QfFXS68Lv2FXdyiE2KBQKQm3nqAraxvbwRZMqSOO3/MxMuFW3ieYfXpNpwY7jN8KBjuhx9hKwec+h9Yaq2tLFI0HMAaMYGI1/26UfKnyzVYpQYCZqWlyZzl68jHwVdRkeCJ7VXu9+h0fYEcg3X+jnhX1npYq3uWQTHPoAx+GqUNkpkYmNZxU2M3NkhRwUriiIKFNtXkWXvwa1IvF837nETuHbc+8EnPFuu6dDNxZ2p/5Tc5/88+YcxdppEqr1STLM2xSdHEe1sbKcZjhpfY+GRCOG23DfsNrxbAA3Kgazgaeyy1fQf/xB88H9r9wLIyiSWRQJcGYN2m2VulaGgZoqZv/Vc4jmxC9uRCcF0x1Bk48BNV5XCxcHoi/tMMBdinGT35iDHURKraCawPJHLc/9DgrTJGZ+u7XGCUWrY9pKYm2OVzNeOObfwmdJUj3s1Vp57HtdA1RaDehVgd8C/xZ8s9/nOVn/xIWz3NodopOa41KrYJ3gYF1XWMS/xugOym96GvXU/wZxYRikM1oEt4aYU/666HfDV/KNaPbWFzDm+jyiMrTrbEaDH3pKMXW5GFbWyTLmqhx6IDJtOx+3arM0r59DblJ0Oos1A8BKRp6qvcfYP9Pw76FEpoRmOoMeE/lfR/hytNPMVW1uPU2SdcUNrxngAy8H8S1Ekf/uEOhBeJLqShK3mrhtApXX4fbjgBTwK0QvX79cU22gloNWF+F1hmyb3yaS8//JdXWWaaTnE5rlWJijY12/T4mNtrANS7AZXNs3ze4d7Cfr200+niB96FLeN7C2EHz8vWdf48hs1UO3XkSkhqeFIsNBbcKK++BUNzD6NloPDa0bpo6wdFH349PGyW3z7DPe4xxlp3hP6PpW7rVeXKMdBDJ8OIxxtF88ZvQvkyvgu/gWAfYDBsLxo3uo2goXquX4cXPc/avPkl+9TzOK5oKmTj8gSp/XeE1hv/eCtFmI/hM7hxUK5A1Yxrnzt0HJ4YsbVB74FGopIgqxlcQn4ag//1uyd7nCGQVQqiCFSCB9DB3/sBPcnW1Ta1SKf26MNCH1ZCoRCv9zRQ0isFhyBA6eHHklTpSqfDa818DXQ7uLcqP0IFgnBSTaYw68FIV3BroOdrf/lNO//lvM++ucHSugTUGrx4xhepf9qD1T4v0vd4gErE4dtkUG7frujYbFRA56pTKx7+hzLEcfHNrQKHXqcTHa8+aVMzoIvMDe/bebpFWcklZtXNw1yNg0lgRJXznIMZScytNxT5D8RAbFIunAjID1Xnuedt7yWwjeLnVgxZCNPgyCjG5sYa4XSE0GNfABryoF5wnKGIMKQ4WX4PmeTAuuMPjWtpvI9L/VsXmPkbt/fECnRbUawIrb8DTv8vqc59j2l9E6NBu5YDG3LtC2JUCI7piOH4jBYGFmZahrrIjuE5f4n3hrgwSavDXff6pCa9zIxQ2/pHC/TozyLAiDf98kYfXPfotRNyl+5rWGpAvwZULVF0bi9+gMt6IBdYmc1Q24We2RvWud8L03UDSrQ6WS89AtV9a7NyKiBynm/IfRJ6CVEgffB/nvvdtjrBM6lt4Y/FRu1Qt2uFNENi15bKNW3uuJRJl4BIGcRmSr5Kqha9/Hj78npCVHYPFbBKOMXiUA/odxuaCMco2UejkUK8A6xfhlW9w9dknSVdOY0TIXd5t72O6DTo31m5GF3ieYJp2Ik5+s8PeVGoqnsBbUyAGFNqiA3Ukmk+gMY4caONjFlqhJMyfeAjsLCFHMvgWx3nJD5jLXkPQtCy2VCNGIKnDibeST99O1nmTil/rFqcPtb0V1f5OF6OfyoKYtrAy3ypf6678w7lZPJK1SIywfu40Dd9CTCleb+y5HmAQY5c0hYZYNhVaD9CEle/x6pOfIF+91BWK6nVknuIBrhc0BC8Vpp1b1X0r9gbZr4WZO06EzujSKztXbsgKB4xm78KDdkDbJJQYoanB9DGOP/w4TdugbVKcmBCmEwuPFHnSEgtJ3JxFkaASt5KKoaqICJfOvwmtZYzPsCZEtAu2byF3YO0Yjw11fe9j2z8B6FCprMLV7/Lq7/5r5vxlKmRdoShjamB1E953LGoLequtnTzGTUY3qnefXdeWMcpgvtF8b5EeIrfwGDApYOPfMEQhGA+CUvcytBfEpoWRFJqtNkgFXcpoPP5B1m2DTlIjNwaPQyQHyUF8FJL9bp2xx7pe/sahLRLrgITzzmPVQXsZ8tXSaEUru22ezi2E8YJRHYlkJDEMGNOGxWdY+szHkasvkq2cQ/NWDIigV4+yPETpX7k6zDXkZIw60fHb9TS5Som8bxhHLFO8ojhYW4G0ET7RsEIstv2IUbc6bzbj9W62GBqktY3vUVpJ8erDr4yBmQWCf7HwOGifxlgIx0nO5AC7BaXZERutAWEeq7Uq3qTI3HFoHKFx20k6aZ0MxWkGZAgZKhkqrmtR0+64I461BfobfZ6bbSP2VAWXsfrtrwJNANot3y2Hgfe3sMlpMphxN1jEBMO0KIY2ZJe4/Of/H63XnmY2aTJTD50OxAjGmiGhGAbpEcbklWh6kx7MF4Ma5wbYtsCakOjG2h6ulTWO3ndYriusxoovtxznLRx8k114sYDp3tGBkntleiwWb857RAyqnsb0DFRrPa2x8C5G/5Jh2M90IBT3EgRIQBL6HmoRVBKQKvN3nqRtK3hrEfEIedQafaSh8UIxKAP99Ef3txvxiskpaGiUEn0bcs68+AxUBHwHQWNMqtDt+nDrMZGJYcY/zj58zRp0zsBzT3Lxpa+R5kukieJwGCuxcSwj9t+GsOhrG9UTqEMa5xj0iIMtuKG2viK7cfv3y2FrLUtLi6Aed4t0lem7RNXYtkJ7gm9wK/aRUXe0TE/0vUYgz/Puoebm56AWWkx1BytG0uBr6vUKPcDeQUzREBtqjZZqGfVV5RWh+sDDtElQY0jTBCuKEY3C04ylvVEiEBi2mA1Z0CbnHaPFbO+fweHXl2D5IrSbVGqBjnvt1A80xo0QbERlKSIaO6XnQCvkw1x5jmc+9++Yd4vUKjkOodVpU4mCcSIOHedjI81xMOFicB3VCxq8VomwO/cfunpxcW4SRJU6Smd5CZy7NZmxKBglN+BMLz9r6DcRhYDsfdD3BpGCmqKIU4+xKZkmTM0e6jOh3mpBwfsZg6Jn5LMkCZx4kKaZpiGrWCOhzR7EgBczgvZGHKlI8dLA3zZa1m/07eD5d//2KQpSeuUw2SqsXIRDt6POozaK/YJnizLm6m95JEG/jjfHEmcwrpzzZVg+zXN/+Ksc5U2mbAvJPXma4hIT8xDHrDyUIfPqhm0Eu3mI5ckdktnFwPRzqXEDj1Idd+/+ZRoX8RjNKbxaKTCTZzTPn4ekhgxWe7oFoD5HjCerWJL5afzS6tBiajwKhlBQWak1lfQYRi5KS+owczi0+Cr2LTG5wjVf6PQH8nJvYsPIQ6nAiuUtb/8g68/8KUneRLNgWlBseC43SVPs43dFCttYU9YosTmGsmTUr6TvSyuOOmv4089gjjyMN4UFUBhKFz/AEBJEe/ffAWj0Rzdh7XUufvVPqK2foSGrpOoCUajDJga8G7FkjygxoQIbMRARRXVAYAwSQPf9FljRWJ/gqPdj/KRDg13//Ysr743gUXGEWo6BkVd9RrO5AvkaVuojR9pXkN4fAZx6rEDSqNPMPYlsRSj12xyCxuiLV/EzjxfBmTRoi3EXpRySXzDH3qgH2HvoD2sbhQSmjzF17CRXckG1qHwDqEFjT9TJBUxsqDfGFSQUWuVmo4z4K4UlrkffgiPVFqtX3mDW5Ig4QrpGzzM++aLy1kMS+tkBPk6KseBa0DoLL/417Ze/TKW1hK1ZfFwCJeowHkw3MnAcJlfVFbqmrfJn14JNLR1Dvxo830GhNuqMrtf+A+Y66bVqLkodG+Nory/B+iJMLdD/eO8/lB9+Abz3WKfUp+ZotTJm4up36yPSZ9YvqLjcIX1Qq++tymXUaAfYQxgkmdGmVANSwd51H+ttZbHdZL5aweBQEkQkVJQpm+79AEUMsILrbVvoCcVhF5Pgsb7N5bOvMpuCoSihaLv77V/Oce1IfLxDvdqmQOsqvPk9zvz1f6S29gbV1OBzFybXKEYHV9DXyiQm9RxuYyoLwt1w8A29DaXfjPv+eu3f04oD8RaVEGNyPzlZZyXkJ9XbIfl837aVUUK/xVDuCiLjMUB1mizzqJ10fT0CZUvJuIAuLfLVDnDrwaAZyNQClekFKmYZ79f7wlcGMbhIk8E3mzE4GW+AGzloWSgOHNuoI/FtVi+ehVjbJ2Rjmj4XwIFwHI1E4o0q/LHICuTn+O7nfo+jnQvMJh1UqmReUKsgHhOrbWs0l467weMatIzGJBSxxWkcIKIe/9vAJzjRMXZg/wEri4rBi42OfkA9IhmH5mpw9U2YO0mIndrPgjGPNBQ6HVTqU9BZhsYchpTNFyLlv+O+3xgbLWUm4XUH2KuwkM4Ajvljd+FfO4fXNkYdUHC9/tk3QzEVA+83OeII79NIdPlt4WqQYTo0KJo1masCr74AbzmGxcdC4gficDMY48F4CO291iC/yNWv/CG19hkSmkFj8QZj0uCTERd3lQ0cyVtBJLBCpozbRhDifsNg+LcXgxMTunSLw/sO6tvka5dBO+zvkOugIQfhWFynglhIatSq0xiJlb0HTKKFH2ViaunK0AF67rbPGPRIHaRo7Hd4DB1SIGX68G04W8GJ7foZi0YJ1xM64TYJDJ4qGalvwuIlQul711VjtI+mDzAIQx5lnQeyK/D8Fzj33J9Tyc6QG0PTTONMHSTBGo8VF/yQksYCfNLnm+nz0xxg21AEJwYnghcNlTbIyV2b5asXIAm5dPsXSjABFcRJqNhhLNSmmGrMhB6J6kNLqO4DX6Te90IGN6LHIpQmpKcJIrFYhZSz2gb9xvv93h8g2CsCDdXuvJtcEtQkYAxGBCPsan4n6qlZJfUdVi6fA1qERWYMArq2HvX7Hr3uGroM7TO88uVPMZVdpGaaiNRRk6C+ZMyW/qg8oGvr7vtoU1uTdvedCN0F+4RrppGVeMrnM+L4I4ce5z8cc/5jz2/C/Uu/L7wZVh1Gldwp2Jz26iUCoW+U5b+7HtStwwLldIniTwLVBfzUEXQ1QWIxX40m5SLHLKz5o9Om8NuWbpVQWvWHNyFpGzBGQV2J5osf9cKheuE45fo3B9hPcAA+gcO3k9kqubNUhJjmM8rXuAlv2pAfbh5/MOrnxZDDeyuSKMa1yZbOh5qpNkWkyvUPA9p/SELhxxxab7L4md9gavkFUu9JfYJYD5p1w2uUtBfNJ5EpjxCKQMyVMWPmuzyVW3QBb2FlNjIcuedMHTi+jBh78NxGnfPAbzY8v/H7y+AvRBCxwSTicwxKB0OSCIk0oXkJGgts/DDuYYatBokpKV2IgLfQuB1z4q1kF7+B4KJQ1K6mqCZWMtVeEj/QV+heFJLonFEJ2rm3Bucd1uTQWWOIuKXQFuNbPBob1x4Ix/0FIbBFbA1q8yw5Q90meA/gMRoaA/driv2Sb3SZzPHHAxnI7hrmjWXPeZdnjBrTgrMKZKycfYFDrAINlMbIMQ7Qj6TTXqXSyOGNb7J05lvM5YtUTIrRhKL0FQACXsuBHlr6f4TGuNmRt13ge8L9NvOIhhVRAAAgAElEQVR/Dh5/rOKlo8cbe/7jIhw33n84hym2H1XBaDB8JGmKNXDp7MvMJzlxTbvJeexB0h9FVFFrU0mABsnCHXSKrhdD+/cimSYJ6SrgVYOpjJy8tUoypP2XvTwFK9MDobgPIUBiACzYGtWZw/jVK73FUVdobWBy2gKP0xGN1keOWXyyCckpSqYemwjWrYUKOHOH9iQ7uBkwlUoO7Zf+f/beLMiS67zz+33nZOZdaunqBd2NRqOBBkgQXECKFDmSSEoejYbySJyxYkIhj21JHof1MBOOmYiJcITDD7YFRfjJfnCExwo77LDHtuSRxwqtQ2o4JEfiiOIGEAQIkACxNHpfq6trr7tk5vn8cE7em3erurequruqUH9Eouvem3nyZJ5zvv18H3de+TKSr0Pk/Vp5afN0YUM3ZZu68YeRUT7GQxv2ThCyn/XsNhExkGfkG0uwepfNGeM+xibmZTEJWaocPfpI8Cd2/YBGfCpV05HogTBPh0nvDoMrzVN1SmQEdRmNxhrdQDPosSwcBi68JxAbwGVgK8wcOQEq3owqDu1s/N6rEPLMYYzBuRSWFjrfH2JrGCKF1/8t6e03SGyKEw3BHuPXw9ibGBXDtd3o1u3Ehk1+ffdXH1hiKKpCCM45yNucPlKBW5e9H+ygYiQPMqhGRDPHUZOQY8i1YHyK0RyjGSYEGvSG1fu/Cy3PicHRzWjiXIjacxntxho+Kja4C/IsNNMflNMbrbr9+XGIvQYDoBmYhNr0UQQTNreFggb3YZxHJSXfzt3UgRGDksH6CmCQA7u9a3dhuP0y73z9j6m057Ha8huapQhVfVALfNgU2OG06PgShxzbEZrK7d2n63uf1G/tF4rgEh/mYV0bs3GP7MYF2FjdRkf2A4q3UJjye8ffmgSm5xBbI1UfLWhMFDyMOYYUQ4poHt6hV73FCMZ0LR4qEc7EIcraEscRQk4kOYv3bkPewIe5Q56lviu5gDP+6ClXvFMydoi9hM4StQJSAalinHSyfQ1THERMx5I2qnD7ZthdKigYG5HlOZB5IVoj0IgiJvVQdxwNs/jivybJloilFaTsUKmaUHeM3V7qJftg8Xm3mWKBEG3Ye2xy7qb9pFdB2HZ/tvit1Nci0XXnLbiciJwoXaW5eGsLjXG/mvv6mWLXzx0KrmOMgEYcO/kozsSYKPHBSviAGEOO0SIFVn+7gbDh94k6sbhibxoKLg+m2Bzu3abY/2VNQUoMaP8+sN20TBxib8ChtMOQx0zNnoCQBrOo7dmLHY73gAZaolfDjjFgjCXPvJKTriwG16jZl1ThQcMsvPsShpRUCzNThqGNiN9AXq4htqvM8YFI1qPuM0gkFQY22I/PtHf3KDRFCU7+Tn9EsZphsw027t1i1F668gb3/UmaR7wbLf2Mpf7EeSROiCo1FMEYQ2SE2GgInIDA7npa9sGmUjpCPsSiCLF65nr71jUwfh+lJDGFfWv/vtdDjA+lY0o3CZUjJyBYbXzyDUrm1HCMYJa9NWsnEf53SEfE4FRRzVhZXQL2r7j8oBHNsowYh8sdURHMJ95w5/NJFiaDzo89DYwmEIGhjozGnJS0FOdPOqyjJlzpLwmRhaW+ypBzHyy6z9vNhq+guS+Wmm2AriHSRJ3FqcWaqBu92bl6P6I37H34KRGcfppWNMd05MhbDVx4WFu6dPToF34iF3yOxSzX0EZGY+EK6Lq/F/WBNg6Z40GGF5iEHMSANR2/X9fBwSaRp8NmyGYzRhi0pG11zdawopi8ic2beAuT9lGH/Ukh7jeiJFvEmJwc75oVsQgRXjqyFJltBlhF+NjZSzPQtHaY7HAMhjnrlnsUN/ldfY/Hub6nxiPQqcYuveeKTjZxdpohr5zLVTrk23/qNC0+v79zLZpvf5vqJx9FmCPPKtgk7DMNC3h/+hGKHoeSL53vhE4GOAGowPFnWIpOYxYvcLQiNMJcreTeFyRiBvJXFvD7bLum6C6x8DdJSLnxznd48rOfg9rxga4V+SnHYOGH2IfwEc9VoAnahMTiRMkN5OKZpNFee0SH3fT5FzveyC3p2zBmOv4K7qnnCqhTYoG6a9C8ew2fFd2zdo/DQJxRMBFNjEuJJTAC9YVxwXYJfeH7KiTrfhPCKLNAZxDKR//gF+eO091N7tcxVfS1O/T68jeFzyBUUiiOwoz8kNDb065GU0isQk5z8TLki/RuKzgIhLoQSIakZOvMyQjscWbPfAgXxWAczqhPoYdBt1j0Xg/PO0d3bvpfI20z6xbh3kXYuNPzUgdFukMcVOTqE0UgzkfsQ8iQJIN0ULTPvMqQv0ehOG8UndwGxMcOJWRkG8sU6RX3u6PlQaC02TBI5SF8vTOUonT+2xXNe9IJcz/aHcLE+xEYrUr32FQgGEtY2OLYdFGV2aOvr7Z46yq0V0Eske0ygv2nJQ7DVszRAjM89vRzaNWQmiZGwGIRiUFidpIPMtKUpHWX1tuvQBKVAh9cqXeHxOWgohjVHi++kZAf2njLmkjHf+i3ww5bv/TlUt1EkRgq2G+XfnTbEjE0G80OTfNG4sN95puh5+2Uy0R1yh1tm4EFIj40qkr7Dkr32j506GTrO0f6JpxsJZt12+toy0OOwXtPfgy2T9/7onMYzWncuwnpGqAYU0qazUFjjsOexoBMwaNPkVWqtIx/g77Mot+4v5PZZMiIsxVuvfsqRJCjXjOXHCRFisCMLft+iP2KHvpV+txbuWWzNd3f2vA137Va0beHcfv0o3z3YntSf98OZ+doRMMygkgIfS+sBVIQ3YkKCkz22of7ByccuqFRYVvcR3ov6wm/GVbobNxb32dYcZycjuD6BZj9BJhZUN9dv5YdB5s4+wrrzJzg+OPvZ/XiTaouw4Qq5U7LEvQojH43gqNqM7J0CVauoEkElengJ/IeeZ/kfJTkfVDf+3sXRZYvUyyrvt1SHbpZ+tz/+wBGTZMihmOb0p2I9NBrYwysb8CcoM4FDfdQaxyFCd/MdjSh7ba9W9hpv/YmrOa4tXvozcugTcj9Ku2VZA8wBIgsxDWmHv8wUf00dKII+60ck4+/oCSJJaLJlW/9KyKWQdLwq6Nb2WSoSWTXHvMQDw/eWFMWjgu71oT1PsfA/aZOPX5xPSyZthUORYZ9CoMjdg2uvP0aZC2wsV9UnXV8wImzOB8WaCN44uPY5AxgfYHRkJxiJyTGIbRVcHmTu299G9avAm2KXDo7a/0Qex1lL0axlkzhT+z4GEuZbvZYPcatsd/6+2AxkjF25O2SD65/A/xWx0hhesQx0AaTHd2ebyJ39fex9Gwg9G+OH3ieUZjw3Yx8X2NCcEwlwvrCDVi8CflKxw3p+37QNRfBT9861J7CzryPlAo6pGbiaIz+XRDytiPOUh6rNNELL4CuU2zxOGSMBx9OvezlP5TTCxbrawxsQedg+Dzqob/3gX4cYnNE5Q9doSfoHH37FyermLEdY0Pf6E440MPv19/nQDB72vb33crPKdvo0ySYpH0ByNu877FztH/4HZJPPQ7VOkYinHiNZ3/uYxwPRR1EmAZXYfbn/mOu/O9fZSqKiZwlT3O/V7EvvKw7RUaPtYjBIBhnkcyRN+5w6aWvcP6v/W0MNVQroJHPt1qac1vvoz3EfoGA3/Zn8AFXeYuiqsYoqjawZ3YzcjnGVJl0H3WZfnRzsZQ02nAYOciUYXcwZOjKUU6Ta2393p1xsZVHaOv7DYsMHXEfGX6WSsHOBzXHrZ5n5/2fXANJ05S1pXmWr70OrIC2ttXOfoVTQhxMDPYYx85/goY5gkrsNx0JjJ4Lm88VUSW24rdt6Bo1twRvfRvcKtpsEZlqV+Q/xMGD+j2AGAGXou0NIA/bthxO823xls3oz8C5E1jN4L2z7h8EDn2M+xSKkKqQZS3Wbr8N994F0yJ/j9Dqol4l4Lc0RgnTH/9F7mWnUFvDGi35g0ypjqjpHJtBxeFMi9w2yU1GxAbXv/tlWLmGiYto1MPlc5BhimF2LdLWWjcJyH73Mu87f+iDxwQrWxm1h2/o0b1qbIkH6Gtj8ok32HbvfzvFlv2/T+0PO8RGVCuWmaQJF18G1oIPTA+0GbUDBSRUgIoSePRj2OMfwtaPh1JSxUnad9EYoyaKmgw1Kc7kWJpw7wK8/QLYNqRZKEF0iIMNhbxBnq3jxGdXUk0RyXc5LnV3sOnsDonyD7E1xmeMPURm60M3K5kyMvimr50JKHthoug9hjPt7UyNca7ZyZTbzrXWGMjbJLLG7csvQ+sWhhXUNTtBOAcaYZwzFEcC9gxPfuxz3FxyrDQciKXkWqF/jvqIwkKDDBplxympiFHEOBDPGCvpPLde+SqsX4G4CaQMRFIc4mBAIG1lQAo1y/rKXZxx5KIgGULKbq2w3RC2B84XulaSIvNOFEJK5D1BHXaEaNNfd5grdFde/QR90E0+lRrc9v3u91SatH1RhxHFaZv2xm1o3YbKCdrtI5ha7WBrjEVEX/DD5Fhv3HzqY8ycej92fgXHCqbII6v9s0M6f3UalO7nQq7S8L0hoxZBK79L89t/SvWnqlB9AiS5r495iIcIA2gb3Drt5goqPgNSJHkIjCnySo/G2Gu6f7F2puU26Z/KYJuR9evgQBOG3YHplaj7cb8MhpvfpXu3SQyLw/o3Xv9Hm13H1I5H/Dd5/8c/JNQMFDLv+9AmjbdeANuiVo13UZ7dm1AgE18xrxu7Z6A6zdGf+nlaZg5nEp+ppEcjFDChUseA2b53rohajNpABEEtCGvceesv4OI3QRsP/LkP8WCggEQGNIPGKhtrizhR1BiMKEZC9pjSUc6rrIVlaphlbKJebP/o+SR4Im8Khn6QqcPOYUb79LT0730+Rvop78fgbXV/JpeohpmG7zt8QV2rilWouJzrP/guuKX3hG+9PDMKf2rqMrDH4ezHqD/xCZqmTi4WJ37bf26E3OCrJIjiQ+/LuSp7iVqniHEY0NzlVGxOXRe4/MIXIF/A5qtYbWPVDUt3foh9Cs/UjKcJ6QZuYxXrCJlwgqC0xX/l4u6biuf3acKUmWKHSR9iLETloRrY8zV6KMfCyGwQfVLT8LOKXWH3YTSH3l96PiGbWzEGazoO3uN+Vq0qjDiiQpTFGGcQmnDnKhw/SRTXOciRk4XcW/zd/UshfpKpz/4KN3/vJfLsHvVqTKZNxPo5ZVR94IyAN7EOCVVSH3vYmSsKFoG8TUVSstYtGl//fWp//dfAnADq4FynpqjfQvaeCIE6kFBCqlGxsHCHWtqinisVtRixCOqnTmmR95O7/n3gPe3fZ/ohRRlBCitJKCJKwdQPZ+ZmMFtrdLuMsU0JWvL5bOeY9P7ja8gDQUIP5QiTXg1WIXYZlXQN3vo+xEKaLWL6sxwfIBSMsaylWWNQtUANjr2fMx/+DMtuikwSbFwhF0MmXmvMDV5flBGSvxASJZTuKYLmGUZTqm6Nu298HS58C7IF0DUgxez3UP5D9CGHlUWqOBIFqwJq0VCvttfKMGwn9SBNGj9Oa2c0YrTGuBvx+QcbZrOovQK99cR2H6OC+somru3VO5z0/oMMcJz7d87Z5vXbnfSOGCcWZzLUNKkkTW5e+D6wStX6M95rEBFUFTSi/omfp3LqI6R5jHEgalAxvpix0NHuhkUw95QBGnKfSFtM5/Nc++o/h7tvgSsSLBSFYA+xn+GN6DnkG7SW7hKLIrhACyOvSYopuU9kSJq2Mg2g8+940NK/26V92jt/g0nwkClujfHsbEMtAjpATIbVWdzK96Yj/h563rD2Jj124/4Ps//lhYjgRMiNw5k21VoO7QW4+Bq0FkGzTXp00NAdHBEBjWH2ac596vO0zDHaroojBg3EQQoSImOQmMGBN6RE+TLTusDSN/4A7r0Jugba9u9dcw5J0P6FwWG0Aek6rdVFYjKMuk6kshaks7MetxrrcRhdH7ax5a04CquHiOC0zJAPtcVxYFSV4ijQs//FdG3SvoJ16RDZlHB3/+09yu0bM/zvYcewtrZz7PT+D7v/nXdrBDXgrKBWWV66TZQv885f/gnYdU+k3xMYIrFIFdIZeOqzTJ/9cRr2BI5KONNnLzGbjFX36GbN6bmHOKKKI3IL5Ne/zZU//W1o3oJ0FUwOZHDAy/tMZpfZb3AYbQFtVu9ex+RNbKitAuKtDVus98FjsyUtpX93Ti/ECLX6FCIG5xyPnj79sF/ovsLQXKndTKHFNyOwqURzcJfMXoA3y2Rh07FBMViBhCZm4zpcehkYZIyTG5r3KyIwR6A5xdxnfpl0+klyKl7qx2EGNLqupaOY+102OMh4FcVJjrFNpmSZeuMKt77yu6ALsHzbBzts8y2/N8ZnD2DIS+6+e5/YgdUFbNbE5K2+OTNEGNvtzuywtTxrAw4RiGJ74AW13cQAYzQinWNAgjnE3kHI5ekkxRHhNMFgifIWtnWTexdeoJ8xbt8Lu09hDdRPgX2MJz71eTSuYzXHaop0pP8AAZ+RfLyAJRVIjT+c5NR1ldn5l7j3x/8UKg6aLSYmnNr9x4fvPORR2vL2+3gWDSwE7VsXDsTB4m1M3oK0FeaMgvqgt71OEdvtFnmeYq0SJxH7dqweAiIKH4tqifl5idkHJyjgTXdda6v2rfnBFy7hmoHcfH2zqd9HtyX/3enY7vT+m3TngfS/3JAEwu7jxrE2JidnNslYvPEjjuk90FlvVsRnRC4W/m7Lu3sWRmD2HMQNohPPsHHrHhXAasvPcvGmsYIQCniut6X7XSgCqlQg0ia2dR23arjxpf+DM3/zVyE+CTIFJCBRaXL0TQI1PV91Noc/TPTzPP9iejxUxTwqnbA/MLBoC1HEj3v35yas3EHyJmiG1dyfJcGm0JNdpqCVpcYHXskW70jLnev/dxyUR0NJ0xQTR5gkgUT889DCUMENnd+9I9r76b0F+1t/+8TzbeflZDHG+8mCWUkJzLHYAzPUHk7IKtJr5oay1tn3W+nw13fdZv0O5DL6f9/qGNavHd+f8aeqFI2W77VrR7fz3t3rTT+K1/oztdB2VM49AVSAGr1ltHxFwwM78UsPpoDElqnz52ncXmBjaYlaZHG0UZP7zf6i/h0GctDvUhxoXhSjvsJHsV4cDuc20MYNFi98j9nz56BW94q7s2Ed+cQCnhDn/hbO0ImOEELyAS9cPpQRKtP3HmG4qEfoEyNI6b99SUI7VtGukKkYHGCdg+ZF5r/7RczKVaq6gZUcEVCJUGMQ0ZIfmoE1Ts/6H2dR97qmJqUHPQeCy1JMZJCpCtH0ceSJHwMzB9QDY/QCgXTmo9/8VDYWv1dh/8tfOvV8XKvTTnMSG4VF7gJTLLSg/jDfPt/iMI1RGL1g+pnYiO+19N12lt5mCQZ2en/tb2MYY+5njBP2f0tI8YYVEQ0bkr1go2K4t7rGsQ98GOJjQIJiAzkr+9EO/vT3Sz4Ca5k6+wR6b5GNtSUMGxjaCD7tmyn86p05XVAdhs6Zzp9CJxxfJCXWVSRdY/HCJWZn5+DEsXByscnaMxdPig2C6WofAi5Q2T0huBQdEOnUK/V6tQk93BO9nBw92rCjiInQMAusNkGus/bKV9DVW8xWgbwdxifCifEMRcpspM+HZ/rmzlbvqZ8xTvxQ3StUHWIFIosay0bLsfDORWafPA/xDCYFseX6IH5M75cHdb/B/pO/9/jzWQZWrE8vBmDC/pdO5Kmf+j3sb6sxZgvGOAb6LTm7yhh3ev8x2ui//+4zxt6PveKJod1qcySZQU5/CORkR8rvbow/yNO/V+5VLCIJJAnVM+dYvnUN3bhBRZtYF2OdDSReUclRU+hs28scZNWQL63TuHWVKbsBx6fA1vFJxx0OISUmJ/JB3qZLCUvKY8+/Dwz9AmI4/A5NH+hFeFv7egb1PGfXwyhYDEtw/UXuvvZvqbg16rGCS0EgNxEqXctaF/1uo/43MwZjHP/sEQ8UemKE1PrcrjYVaLaIWOL6a9/h2JnzkFuoTeGIybHkfUzxYObLGh/2v/gHn3v+7t0lqkmMuDYiKV0bkaAapn+ZM3be/4CxvqdxkbIsKd0rtsmYJri0c/+hbe7g/qO/GO/+u0VEhj1Hf39d2qKRGaY+8lmyTDAmxlAkxZYhC/cAofMypKP9GyJgCoxhdnaG2xdeJ9YsEAKHCRzJiQsKnNkBY4TZpEK7sczNO++yOn+dI+97CkyhqUdo8PtK39ooM5uHyXg6rKK0tIv+lDMO7ctZ1M/8QzCWBjYBC8x/6/dpz7/JdOIgb2LwKf9yY4PFqD+RwxaMcTOtcUQU/2Tvtjjb5wJ2oZiGzQXXbtFq3KUSwY0fvcXxJ56E6TmMiZEg7BQ9sMB73aBq/7t/9jvP69IS9+7dJE+XsLaJjUK0OQbtSepXaJDh757VIT2HiGA6zrvuNRPt+4GB7yYxvIsZ8t0O77/TY0LHwehn26K/RiBvrbPWzDh69gOYudMICWjF5zo7yBE4qj1cpqBPRe11sVVk+ijHjp7h9qUrVOpNpqeEtJkhaoLLTxC1HaY1CUyY76o5kXVUTUq+Mc/VH/wlM0lK9Mg5RBOsVIkwWIq8nOA1lgxvsHy4ZkoBcqegissyyHNiA0ZMx+y8H82oA24QxJu2XYqVDGiBrHH3xd+nlt4mkQw0RYw3c3cyJgXm0RFipI9eDN3nOGpJD+4CmIxeBGIcpBYRRTTveBJNHBPZBOscFVa4884PmDt6GmaPIWnmrzcxCqX9mpuX1DrIsM//5//V81PPfgCzski7uYLRlFgcRp1nikNzGBUmhN4AZ4/u+QU/7H4/6SLaWWzezreYPOz7T4pyaKNSSyJUIq5ev8OJj30SXB2f7PoAM8ae6didgIWw7hByIiwxHDnJ0TNnuPbWy1hSSDMMeUjhJ0hhLZkUBWM0DpGMWNvE2sLoKvO3LrM2f5u5o0ehWsWnK7Y+H0Ah1NDGbw2wPDSjVpgfmiqRKDaOsO0ViA2wQbaygEmqdCsP7K+JVMShFlPFAEYifKTUKqy8xfJrX6aeLSCSYYIbuJNKMKydDlPsoxU+NuNBvhPpJbghd6uPP5DALy0WhzXrGMm5fuEax089BifOYNIUiSooJuT7hfeyQdU+/9/+989DQu3kWWqtnPbqGlFzBZM2QSz9xgIPHbEOeintoCl11EQZxYAeNmN62PefFOVQcQnavqFeMVQzkDMfQfUIUjBGbzM5GOiJogwCnen9XRSshq1IxuA0xsyd4/jJM9z80dvEuoyVdRBF1Bs5yy9oq0w5nS4YwZmCiDrE5KAZJs+x7XXy5YssXvwu9bV5okoEtSOwnmOTah99e0iMsRCaFIwTyNrgVkHWQVbArGBiQKogccno5udVvyy9F6dYv0jvR9oBDWCN2z/8GunVF5hhxZ8lPr9ud3DC1eID30qNdJnmwIP3apqD3w/r5bjX96jAqAhZYOaxc1jnjaXOONqRH+A5hDtvvMHsqVMwdxwxFcAHYHoPqtm0dwcZ9vn/5ree1wbIzBz2yBFs2mJx9R6NVoMoMiF42b8aIUckR0MU1+AL2w5jHIgL3zU8cL601+5vhCgyWM1YXG0w/dTHkWgOXKVjcjlws15K//Y8W5hfgTHmYslMjOQOM32Mo8eOc/PSG4hkCKZjxJSSaq2lMlLDNMmuolrSVKUbrjJdn8JkTaJ8mao0aC3Nc/fCG8jKPapPnQXJEGkjrIPkgC2F1fcP1W4OXMEiQio7ycA1oXEPknVYvcTam9/k6itf5tarX8Xd+D7Tug5HHwGJ8Hp11MNlyhEHe3WKlaeIIGTZGtY0oX2Lmy99mfr6Jaq67lMvFibUzrgONDDYvgTpYugJ49C7zaIc+q/v01iDdiuq2KLMGt4UnBkvcs1GMZU849I7b3LsxCMw9whGoo626AL1105ifOm91V4d2F2AqNOwaSqH7DbE67DwEq/++T9n+uZrHNMN6vUZ0naD2LZRycisf1XGRYiWTSl9bFCk5FMu/775oHa+7U8OMOnD7ZAzPez7T4qe/oqimiEmIs8jlu1pog/+Iic/8StQf87TwIOkMZYxkhYVWzDK2kKO0Ta4e3D7e1z++v+HmX+daV0iMU1EMlTiThi/AFZA1KEajHGl+5TFPDGBlGghRBbSvPOWGLVkUmHDTrFuZ3jyo5/Fnv0gnHwa8iMQnSbjCAZLkWdF1QXNrJBshjznVhh5fgPXXsYkBrK7cPO78O73uHv5bTY2FkjiHJE2kLJhjiKnP8OTP/8boCdxMosR75Ny0r3NXpxeHaYdJkEeXmfqGtTMAsy/yLt//E+Z4ypxvohI16MKXbNpL23rhT+7X3waQf+KRB3FxBw4f8zrtdvHYmsN+CohPuDOWwBzAaNCzSVg6qyYGq25Z3jkc/8Qjn4EmAGEDBu2Ojls8Hl7U0i470GlH4B9/jeff96PovEShtSgPsOxRx/h3vUrVCNLq91gbm6KtL2GSEYo4epfVFF6ZRRj7P2mdOsyER9x7FCJlP59RJMeD/v+O+lvUaFe8V4Dsaw0mxx74mmoniJzVUy0s+fbsxhFkcsSPwQp2JBJjJgEiWvMPXqOxt15XHsDoxtYScGYjsbgLbSBGRa5J0v3Kg9HV+vsXxsGo0pCm4gGkawSscLS/DssXf4hzUs/Im6sED16EkOK0ATWgaykqfQHto13FGZO5zLIGohugNkAVoBlxC7CzVe5+e0/Yu3FP4Db36fGPeYqTSosEbslKrqKJWV1dZVjU3PI3HmarYg4SXrfwx4mmoXAUrwQFc/oLMvw9l/SuvYyFdkAbQ95kO5+19GPWATP0Dlp6LnSFdE6J/VMly1eYvl6CZ+DNa/jIy/2RwYTkcHXlTTOWwCtTWmlGyzfnWfmA89AK4dorrPtv5N0H+jJ0nQQLU4B9vnnA2MEpGMqstjaNMef+zhXLl0kby2g2TIqPsopzg3WGVRsKUJrUsZY+nozH+MOGMXOF67beLsAACAASURBVObDvv/2++uXi+A39ft9V5VEuHPjDnMf/Awmmg3XHNCZvSUUSuYliDBRHWpVph87x8biPFE6j0mXgykNsIoYhzE+S44JlWdG5RIebjHw3MmHyFuKyD9RR6QZVdOiuXiVjfm3WXj5z6ks/IhY74JZB1KQ3G8cD+s0o5u3ZJyjCDqJJEXsKpi7kF6Dxjvw1ldY+e4fcf3FP0Tv/IAZ28JKjmpGlqU4lwdCGzRnbdJo5kw99dPE8QmwXnjo7JcfJaA8ZARWSCfbi3gaHzmgPc+tF/8FNC4Sm7aP7Oz4kHWwnfJ6H7hRif6VmWN5I/9m5tJ+mtJpZJzr+/8e4LggQo7iDJgoZ33tCtH6AsnjHwY7Bxp1BEETqIkf2KAMHeDYnKirF/uF5nEEqINUefZv/QZ3X/gDFi98mxlZRfIGlhQjisgO30zPwA4yx60yRt7/Nbf7fs/71YPuYu/9prPwNcWtXSPWCsy/DserYI+AVHazu/sHHUHbb23xq6AC9gwcq3DyZ/8jWi84Vq+8hGstE2mbRByGbo1L1e2Hs/tb+7RwRpUYxaRN2o1VagKRNqhW27Quf5urb34Hqidg6lGOnHqa2dPnyeI5osefJarMsq2C1LpB++1v07p3ieXb79K8d4W6W8Q2F5hza1QigzV1nAqqDqe+TJdn7AaLciTOWFq7A3kGifUWCvbLBo7AGAUQ64fCtaC9yp0bb3EyWafIEFWsJSldWf6385uUv9Sec0b9Pl4/w18y+N2mKA/EQESUkgdB2rkcm2dMuzZ33vorzp38EPapBBM9jmUqeLmLezowGXTShBxMRP7tdXNE+mTT4FOInUJqNU58+jQnnvpp3vrCb4PcxkWOinVoNiQEbVxswRTHQdnBfxAxyVvpDw8vh44oYCUla68Qt2/yo6/8nzz7q+fAJWDfo4yxJOYXy9uzPItlDpl+lspP/0PSV7/Cwhtfo9a8Tp0lqpHQTNsYG+MyRWRS5liYtTIwDYQcNMKoxRJRiXwVBFWLrmdEIhw1QpbdIlu9w8baa6xcFDLqtN0c1ekTzM3NMTU9jZ2d3fTO63fusLq6yurKCpG2qOkycb7GNC2O0MLSwFZawZ+p5NpAJEIRrAkOpdImwCwz1GZm6ZCRgo6I3Qsy5dbooUEtYBl993ucnEuIGimCCcJA8CmKbEpzykodKn3rMfy7KcHaipqNsriVPgyN6ejvXAFfLcQ4RXI4Fs/SXF/n3Vf+gLNRSu3pX8VSB1Ig7AHucHdHv4vgICHq6sQlqTNI0k5qCBYTz8JjMzzzebj8F78LMg+sYLKNkCViPKgUTutgxhowBfR1gdF896CXe9zq+fvhK4uXp6l2LC5OfDmlKBEMa5jlN2m/+EWST/76Lvd6HyK8aBMsRA4ho4KRo1hjmP7ov8f0ycdZ+v6/ZuXWq6TpMpo7EtmJLUm9tigZiiJqUI3wOVMVJPNrhByrIOIrO8Sa4ciCBpeg7giyegvZMKwDLndDA8bKBLoKVBEizUi0gdVgng3RqEXEuScBeRC4ouCPM4AFNeRUIDmGqZ+F2izkIBFAMPWq2eM0s0zUwzaN/DZ3Lr1EpC2qSYKkKf2RXD1K3wNEoX9uSQ96tMThrXRP83t1LSBO0DZMR9Beu8jNN77KU+c+BbECFYQESHDYjvZ4gGNviLyZvY85BjXDIl76Q0COwZnP8sTffZLFb/wJ+cLrqL6NZWWsG/lSOn5aSdgntgeK62yK/VuDsoih61ZpyEXRpIYInIrusfT21zn57C+iM6cGn/Ogh2MPC4pWMLn3p6gJzMAehagO5+aYO/UBlr75h8y/+y2ePJ7RWryGkA1pbGtIEDxVo/CvLwvmRHwnJA+aZDNEhbhQmDqUxlIlMQ5rG4i2cbmiucONiKI20vWFQrEZJezpVEB9rIATiyuqZ4jDkQfG3a284JljRMoseeWDnPy5/xSo02hsUJtJgsdzA7/xv8JezZ7ih7y0FUaaMP8qzeW3qOdNoriK07y7R3EM7ahXeZOHw0HHhoAmiBNs7rvaMjlxRXjEpNy6fYGFt77B8Q9OgzkBzKEhNrUwlx9ki10pLnHIwCt0Xa91TDQHs0c4+hN1ePcbXH15nToRsTax+OKvoORG/OJVb6Mv0ih1GOEm2yB0xN/DzuuX3oYN0p6em1thklkXXkZX2Cj8I+FvI4hEiDqmk5TW2hWa736T6kcfwfuUSybVrV7qfkd5VfdMkBCypIAKrpVjalNAHSpV5n7m15n74Ce5/e1/yXqrwVyySsIGEhhMJyYizPuudF/UMunvRBS+t6iYUP4KfNCGz5rjw+w1ZOMJraigeY7SQMRQsRESW5qN5tBHLbx+henLlCpjIILDB9I5vwUcDQyxKH/l72/ItUbGFClTrJuTvP9z/wmY06AxlaotvUwfEd2fDWZvwWdG9Z6yDFinefl7HK+12VhqkRt/Tu+ojWAFo9RI6Z5fGMh2pAwMXYvjUMnRjWlwJ6hAK29Rj6pEKPXWKnd++DWOn3oSjtRDhR6hCFkqR6QcRPh9jGWnbpBmAXBFFFIBBybEt2V34NaL3H3hT4nXLzCly6wu3QST46oJkRFm0jZGlZY1ZMYzWFGIXdAYxfQMa88QjyFw9VtiB6bADn3DD3ofY/nVT7p+BsmugvMWACchC4sx3nSiSltmWbRnOfd3/gkc/xngaNeaXqyng+ZCmCySqe/C1B/agHQNbr7AlW/9T1Qa75JuNIgUTh45SrbRwOQ5UTUhb2+EqG2LahGFijdVFrUNxWthHQLVKZjciQ7q6UeHn2tgcaUAOC1dMmzYOpqjBpIf9kK6sE9Pg5/QkJFLm9S2ITK4LGK9XSWvPk4jfozHnvsbTD/zGZBHIDoGGnsNMWi0vaRzbwZoKJCpIxYDrJJf+yuWv/U/E638iFQzIqPE2sZoEWwlI+lBRwDqs3OWgxOl79/hk3Friqebnicj/i59V/ZBCh2BDvH7OT2rzMkloiF14tM/wZFffB44hyMipetn9SnwDyb8do0COowSlilkyOuoEdgE6rPUn3o/6d0lllfXiBIDkZAZi3VKLfMU2RnxZiIJrahCJ4VWIbls0oXNEM7vn3jeN7IzCW3Hpt4JmYr2zesd8yTtpZI9KalFSSRl6fJVph//IJhpfEkk6V5z0BijjHkMvdACCUjdh7LPHefIkyepSUQzr6JSp9FIqSYVDDmtjTUkCvsf6VbC1lAUt8PiCv4kRUBDsUduOGHr7IwUgxhT6ndIARj2NqoMebDwXXmN+b2ZJiRN95t7bEhc0AJaUqVpjrJmH2X6yU/zxN/4NZKzn6SdHcHGR/FRzcWcKe7TLWy2lyeQ307WBJ1n9UdfI736IlW3ilqDqiPqFPEtMIIeSPhf35hJ3ysY701sxvRkk/O2etd9vwfaqMahpmuRIOQJNqpUaZOnCu1pojPPIMTFbsaCG+zh0d0ZehnjxFfHEB+n8vRzTM+c5NL1SzRaDRKx1PKYJK+CixFsae2UA7oLeaMg4Nt/zYMS2Y6aC9fvsJLGdh9i+MeJm/IaaJcw9kbJGVQNuYPGwm3qp09B5YRnjobOAjnEKCRgHsE8+gmmz3wU8hoL95Z9GkXrMEFAzMUExkPQqPLOoSX/ldcuNjN/9KN/jskArRwQcaVrVC0Lu4FdEqkSaY5Rh8XS1hrr8gj1J/4dzn3mV5n+8OcheR+tZkQczyK2QmeTvJHBG5c58B6bSoqG5E8rsPQqC9/9AtX2Hay0ycPq6WeMm1XMGWf97+wVTMj4tvp9GMEcOF1ZbbZYa7WYffwJiB9FJe4wxYNsSt02Y1Tx+f9FLCJH4NhJHvnAB6lJlVbTkTYyYjUYUXKb+chI432QFBlz+rHHGOMDRz9j3GH/B2TKngYNIpZWq4m6NaZnZuD4eZCpQMCLDu23l/hgoFhyZsBNI/VjVM4+zfGzT2Jyy8Jqi/XUkks1VHvHm04lpZO+q0dgCWWjDQNa/mhsjzGWf3SB+EnQVBVDLhXaMsW6PYEe/SCnP/oL1J/7BTj6IeAsqy2oV4+gruh3p/GB/u2qpLfryMlYJ+IuvP4l2tdeItE10LSzqb0o37ulUWHMtbInGGP/aSMu8V7inDTPMcaRaIR99DkMM4gcbG0RQLRsOJ/EcqiFvzHHkWPIgRiym+QXv8P11/4N6c2XODXTJk/vITS8BKYGNAG1dPwohVmn/xZbdb7nQXq/Uzzv3euRr2Vsd0sohOee4FEVi5oEJ5YMZZnTPPF3fwv0LBw9A9TZyz6ivYAijyTa8hGkRoBVWLhB+9JrzL/5DWhcJc+uUYnWqCcpxuW4lkBuvHZpgn9PC2dPv9d9XNOaDPq4iibo+stFhCiKcKI0tU1kwaYpzkVsZDWa0Qnk+Ac4/v5PU/nIz4HMAQk+OCvxbhQkODmHTdhNQpr3FCVtAOvg3uDa7/4m9ZULVBNAcnIxCI6ILKTRLlAOZ+tCx2GMOs7jbzHePbLPCFPqSBowajxG+E2DTq0SkUnCsnmCJ/7Wfw21D8PMo970vtmj7HP0aoyTPGkxGcSQEZGRoC7Guhpm5jhHnnwK0Ta3F+8gsWCsgmbBSucJrgy0Nxn6r+9tYh+aAndq+p3oZO/3VTKstDAG1hYWmfrwR7zgYqYpTG0FNiF57zlo5xBfx0+qeOYxA/Wz2NPnmX3uk8wePYWxVZokNJylrQltraIS+b2KLu9qcpMNYN8Fg4S513riNUznHGma0sgcOjXHUsuynlVpxaeIHvkIpz777zPzU79MNPssxOdxzCFU8fsXSy2bUZ0dwSD23KTZAO5y77t/hNz5AVOs+mTboaaEwfnsXj2zfsRDjMMYB+jTmCipqZvLvX0a4TjHpq11U4RYzYEI0YT4/PtBpkhJsHtuTHcPvRrj2OhOFsUXanCA5iFSSXIwDchvwK2Xuf79L1JpXCLauErUXsWoxeiQkRZ6mNmofVnd07sxWv2mVK8xDuY3HBeTamC7gZ1ojEBvADFsupicGLIQdGHUkZOQJnMcfeqvE3/yNyB+Bq8x+h09ZVn20MBKZ96X0Rtr4SBbAWmDNZDfhrtvs3r1+1y/8jJ2/QYn8iWq2XpXmzNFy+W77I7GCF5rLDTGlp1mnqOYuad45ImPUnvsw3DiWV/M2iUgNbDVoBWXV7lQbOEaKEM0rIt7AsNEujvQ/B5v/8t/yuz6FWbcCiZrYcixYZuKk/KGk973PVxj3BzjJSUp+5mHZmcd1fqY340JLZ7Y77dtminWkkc4+/n/DI79LE1OUQq7OnDYEWMs5KmigR5nrFOf+FgXgHl4869YeudbtBcuYtNVEm0Rqa9UrmEFO1WMsZ0F19O1zq6S7h4xpTcTxAAzGynVjo8HNfDDTDST9qPn+UcwxeI7X5fNm/GMeiEjrlZY5SQnf+4fw/THoHYemPY0sZRVt0O/D+qqGAM+hrR33LT0owZXend3aAtoQn4NspuwcgXefoXm/DWW7t0FzRBSRLzWImQY2sFFwcBgdldemXR3ibffHhL5EBLxhYMaqaM+fYTZo8eJZk5jzn4CTjwDM+eAI+Dq5FmExULcNd35FgvGCMXuvx5j2rDJ9lDnR3mE+tWkHPQa6ff/GUvv/Bvs+jxJtkGsKVaLtOyQiwkJ5mFA8Nji0YdhImFbCjfQdsXRnb18Hx2dgRocCZkkmNo00WM/ReWT/wimnivd4+DZkkRLnHHSx+oftsE2GkAeang1QJfgR3/Jrde/AqsXqLm7VG2bVDPSPCOKLEYs4gwmlEzxUpZnhkZdx9zhREmNkJvRkli3Wsj2sFMNbrex0zR45edxQB6qNJiSANJyMVI7xbHP/2NIfoZ2doYkin0uMd7z/HAkHN24mUIe69UvHH4vZDscmb+g3YTWMuRrtC//kMbaXVaX79Beu0179SqJaWOMxVqDNaYkyecgRVKN8J1C7hwuz8k1IXUz2NoxkpkTSP0op89/CI49CkdPAzVgGj+wCd4yEHamdRZ1P+Hrfaq9Ct/bHKEdPsWglk7Ak66Cu8i9L/4m8dJrmLwFeUpkCKn4AoY86uYC7PZtKR36WfiExXv5BprblAaU778zYiHSRmQDFSWjDpogbdhI3seJX/8fwZ0Pm/6Le5WzI/V1aR+ipyLfJERvWKBMb5iGC1Ubq2AijNbBzcJHfonTjz1N6wdf5va732BDF8CtEldSrDiccxgib6op71jGBydoYJQqhdY4qtMS1rV2Li++H+v5trASPWjsdH4NWK4lLEIpPGVgjCHKNtC1d+GVfwWf+ThJ7AIXhdKum0MO2YeQKKWE4gVp6YxKOEqcMwFsG2iQfPg8iW5wxBWBIUuQb0CrBWkGS4ulQcxZnL+KSB6YpZK228xNTVM9OgdTxyA+DskRqM1BZRbsLJ4h1nDEGIYV5BwVJbKPBzu8syxPiWwbZJm1H36NfPkatXTV/1isdylWQ9dVM7S5Ya9DSzfbRheFMYTxzX7vv/+OJOlAe0VxkmNcRtWA6hqtF79M5Sd+DXSWkCCXLnM8GJs4OiujfxmPg9HnFpTU+yaUyAtsNoZsFqY+QuXHjnPuuU9z47UvsXrjRY4na2Tr8yT4pMriLF6y9vu9HErWidrzZh5XssHLkNnaY6Ef0w9wkFBeZDrkO0F76GAcx2RZirUx85d+xCNnX4RHE6idR10cTExBBNpvgU17BiU90oXXGMX+e41Ap8EY0BTy1J8+UwNiOLpIZ8AMHH3G+eznIr6xIlLUhA32DlDj9xtTHEXgWzkF9F4R/3YH/qkMPoq2oBcaaPYyLH2PG69/iWPZSsfvCiWGGPaUjvQyjZr6RSb/bWLg0kmXWPn+O16ekfc3KxgTeWuEthDT4NqF7/D0j/9Nn/WIqHSzYivS/meOAxrjTuHbELq51z27LYqUqETY6BhUZoBpzvzMCVj7SbJ3v8u1V79BnSYxQixtLC2ErEcz7O9jJwBnIGnvTlWah0UsNiFWY0kuvdeXTx8oyTZwrT87jiNai3e5+Oe/x/mfn4bHaog9TocilwrsvteEjd2EC6vCx2fHIHHXESXSXZ2FPBLXBt1lBaQ4ETq2myJ9Y1mgCRcXrODgQrz5tKNFtYkkhY2r3H7lC8TNi1jdGHHtKK15vNs+VOzW/dUgWsEX1fZp4jLnE9tXZRFu/QAefwLVep+M3DcHH/oL2R46PsbdWCLl3B39ZubyPfyry4hZwwclCNCE5atw8SXuvvl1ZOMSsd4msc1ONQANjhxX9Nj0M8xeB7kpB990NMpJjcUPinj0e2kH7795z/vsyqUE0DDElDrkemMsWZZijMVRZXWjhh59ljOf+w04+kzIsh+hqeKw2LjK4T7HrTDsrfsV4fcu+rldsK6yBcSWBaFhfpseu3YYZ3WlsS4aKFLNaemyQsgZxWnp+26fEbgeoqYga5DfhLvf4erXf5up5mWSzGFdaX31JUB4L0NUMM5LZrnJQTLIW2SmRjM+SXb8k5z+xefJ9ShWauGqst2xUI72J30Y5mTYNZS9K2Vlu/BqpcQICYa6f31JHZ49yYknn4HLL7B+9WVa67dpri8TS0oiGVbaGNqgDp2I0W3zCR7UAilMPqPuvyV/3uL6rTuAc3knm4nRlHqUk2bXefVL/ysf/Tv/AGZnIXOkakiSqXEbPsRQDBayLXQ7CCUN6SqQPRgY6u466LK/LpHqaocHR0MctByVv5U+nq6gLUhv88Zf/D4nzRIzidLOikr0xXnvcW44gEKQClTb+uo8UXuVtcXLsPwm7sgHsR0rUnAJdObe/n2f940xeu9iadqFqHMjkJicnDyUuRE6kR21I5AZmJuFuQ8x9cFfgndfo/nuy9y7+yY1blNhgYppEmmK5lHwlRxit9DdbO7I8wZVWeRMRbjyV/8v537mEZj+ADEJisHhDt/+xCgRi3KGRHHYUJnCk5XgB9xK1S8JTt5qWGy/kZLpvYiakt5rigv3GcMc1eP+YBmVvBNnYNhg7YUv8ij3yNZXaUiLSA9n72g41HiGKOLCOzdYLNbl2PYq77z9Ld73ybP4AsZVDD6jGfhpu3/ZYokx7tZDdK085Qp04a+SpGuDqt1NKa5AHBy6SubWiZJT8P7HOPX+n+DUvbdZe/ebrN97m/nFi1TcGlXTJnYpQoqU2KyoCS2GrPFaEPxCVy0broJJSbtEQ4PcvvtJjzZpT6C3TuU2tFXpu37YLbZspGu7q9YsebZMzWa0V4U7r/0ZJ3+ihpjzNLNFkmiG3vD+Cfv7nsCYL0VDAe+OHaQU/j6qyc2a7gy09H6Wvr83NUns5QEt0oBLn3DsJY2CHRqawBq4O9x79yXm8nkSC+q6FU96rz0EEBLcezN8QSe1KHAtjopscOf6K/CJnySTBKhhClqwl6fNmIjg/jxHYWHuoHBAiv9QMMSuvwO8tOxlvMhUwOUgNd/S8Vmmj3+I6cYSK/M3aM2/xcpbX6WuNzCsMJU4ssYqU3EFmyc0Wg0yk+OMYsRitCA6OX6PUxb+NqgmIBYNhVoxKQCqcYfJ7s4b2WzWFIxwuJEI6eObE16/1d07bXT+UogE8gzbXmXa5Kxf+wLz2Q0e+el/RDU6gboqGiLWwCelNtBNCXMokDNyPGFgTXg90ZbOks0tUuUBLU7dyvQ+tK3NbrDVOQ8LOUoTzxgLs35vHwUDZMA1bnzxf2GKdWIj5CZCbIJmWV8OkL6XtgsJQvYTend3FGqB6cQr+Bqe4ExOLOscbV2DO28Rnf44jSwhEgAXNHWQnojV/YX7ZkoV+vStngUug7937NmlATESulgJv1uYOsvs1HNw5jke+bFPwaUXWHj7FW7fvUzFbrDWWKNuDFMzM6RuGadN1DkQX2sOQrV1DNIZbkW1WxxWC3+f7mYK8nFEqU2I6JCPk14/yRT1W2QcxkCU50T5OrSu0LztWP7O73DkU/8Bogm42vCG9+d6uA/YwkogvR8Gzt7ue5z4uv0zYEVPTd+aKnRtKWREl4JZQn/4ZezGW8SyhNAM2riEws2HWmIHfa+ja/MrveeQeMDQZjpfoX3jHZLTKyTRMci9K0ACY6RnS9D+wn0NvtlNKCFFUeHoTU4Ds/D+pzn+/v+Q4xv34MbrLFx+iYX5H5Am61TzhCRbxeVr4Jqo5j7CVauIs2HIHBIyiIj68HnNKzgRnBBKBu2s71JOKzXRRNmpA3v714sIGirJi1qsCnGaEpkVFt7+c44cPQnnfxl0CpdUCi+xh4UDY1M5xN5DIdiWiiT3+B1d0H7yJVj/EdcvfQPXukjdtr0Vinjni/oAohzU3gvTf5Yvy+UcCzev82hrBVtRCPRZB67Zf9jDjLHfJiQ4dSGXpAFi0nya2B7xP1dOwmPHOH72AxzXa7B8kfTq27SWb7GxchuydWhvELkcq4INVaoNKcIGljZWMp++TmNEBSRF7G5pjVvZuEZhp3cf9/qy5O0/i3YPVHAbLerVJqcqsPj6lzl66segEiEcx1HDUERV+qiS4ZlVDnGIXYAacCEKsshEFlxiRgFtg7nF/CtfYGPhLWZl3ZNsKfQgA+K2WB6HzHPUOxD1Mah5uwHr88BNiI/iUzn1ptPfj9hmEvH7gVGxZmW/lyu96iioc5TGoAHSwJeUCUmbaUCzAe0N2hdfZ/nWBVbmL1KzbWhvEEuTStQkkhaxtjG54tpCnmdIlIFxEwuXw6p37/2J4vvXDb0BMQajSuzU19cVAXG4qEVDjrLGs5z69N+HMz/NRnICi2JxREWoZWeRHOIQu4wiuRZAFEQxBZtmiEshv0L7B/839678OTa9Qc00iTIwmqMhhoDcegY7DCIMLaZ+CACcGjA1ls0Zpj/8K0x/5BdAToCZxonPvGT28drfByJ9V9OSstZVBEx14MAUKa+m8GzUB9qYag6VNslHn+WRj6zyyPot9Pa7iLTJ1xdYW7zJ2updbLZG3lgnrgozVUd77TKWxsiejWSY0vNPOHm7oZujrhu3vXGv7/p4i+0CxiWIKkobjPOauniTdswqNb3Gle/8Ho9/pkr99HPkURWhRq/UeIhD3EdIVz6OBIhSsMvwxjdZvvgtaulN4mgD43JMkadWi30yjJyi3nVTthbtVoz6HtFDdghRRfKcWNus373CdLYKyZyniRpSEu7j5b8PGOMwhJdejnosMueHbAuqPr+qSFApQ8SU0wZm9mlk9q8BbSxNjmQpZE0fjRqlcPkNrr3yJepyl7p2GaOUotT8nrHhZtZ+l7WI+P5NrHr2+ek6W0pGfL+j67sarS8rZX1dPpTctEEcaiKUGDU1HIZcV6jqZa5+67c595O/jD32CaieA1vHM8dDHGI3URLmiqUuvmZJZzbnK3D96zQufY1ac566aYE2cTiUCKcJaIyPgE/pk65779aXhFt1p8xx/+0ZHQXBEeOokLI4f4VTbIBkIaxp9ze6PWjsIcY4SZx5MPv1hb1KueyJky79Dww0xSJRTApstGrUKqFYSgSWlNg1fQLmJ09xdmqGy1+5hHENEtfCkFFoqkZD6dYR2es1RHcVQV6d8ADpf45hF/c/bukew76DQUY30NiY12vXnCqFSi6KisOZopqJADG5OozJiN09KrrGrW/+P5z+uINHI6haiCO6ksteDvs/xJ5Fz1pQ+hljsf59xIEDvQfpO9x8+Q+orr/FtFnHlDb5+4o86oU+BCWbYDqql213wtd2WjfuPmPSlSnGF6V37XuQr9ItZC1lwrcvsYcYI4w29/X/LkPPLtswxYLk2qPlxaHFCEgqxdZVb6I1NgJTC1FrR+HEh5g6/1MsX2ozm92hqquIcRiEyEXe0GIhN4OTvYjuKiQn7f1l8+ffdDKN8MFKiWD07UWa+PqCjYtDxL8hZ8K+JNXOEwmGnIhIlMitY/UWt7//R5wih/M/C6mSx8cBgw0mbZ8MIO52Y/+6IA5xv9GvXEnhO+luIs9pIShxXgVdBfsW917430hXXma20iJzSt2gLAAAIABJREFUrdBMEtakgPEFlz2vHU29lcFYASna2PYD7W1OMUnvnBHaomQ2JbEbrLz5XWY/9mGwtkT/9i/2GGOErTXH8WHsSNZZUiQLZir42mLFvsljnPixX+DC699jbiqjipKmq0hpxQ7L1tWnxA4+xZYiZ/n5h5w7dLYN0yo3vWD49dL92/sa01I/iiz7Xmt24VzRnEjbWF3BtS5z5YV/wYm1Jeqf+GUsETnTdHOfSb8afYhDbI3gBukXMR2g6TrWpuBusfK13yFbeJUpu0Jslczk5Cr0kDlxnSm4Zbx53xwt3Cfbf4a9i4mVWSHY0FKqdo31hQvMuhZWXMmytMcfehMcyuwjUYPoHD/+2b9HS6ZJ1WAkwoiQRxlZnOGKSTBiDmjfsTXGvWKn5219fTnooFf3LcwlgGQgOYISacqsXeeovc7q5T9k/hv/A6y9gWUVtB2uCaleTFeo2NvGpUM8NBTTxYAnwa70QzFvKlTiGBqvw4U/Y+3aK9Taq0RZxsbqBupGz+2tj8H/do7x7vxQDpn0GgDBakZdl2nNvw3ZGuRNRDOQXkFmv2EPaowFRmmOD0gS0QTkJNFTn6Z27Tu07i6T5BmCw5mcXEC1G3k5thK0pXVTh5/X8/skE647ibe48cDv2vGJei4m0ksevAYZolWdQ1sbWF1FWvNstFos1k9x9H0ZTJ0DnQUzE67MApvdw9PvEA8Z5TqSxWGAHMSGzUAOWIbr32T+9S8y5RaomxaZMaREY6zHrTTG0u+dZTQh7Rm1vvc9CstSjnUtatIG18QLMRbZ52t7j/d+2CR8UOp5BHYW3ElmPv7vcutr1zAuQ/Is1D9woURTyd8pvWupfxtUJ1VV95tt+BQ3u2Cr37Z6d/2/S9+fRX/8v1YVo6BqEbWIQt0KiVGausbKO3/C+vybnP3034fp54Dpnn7I+OLEId5TGNRMut9nODZ86bnmMiy+yo0f/BnJ6ptMSYbNMtRaMBF5JwXOcAzfb9ztQ399RhkSldpZEX0/+NvKnqtkFbrV+VDu3iRdleBaQQxxXCOiAtcuwzMfAqnt+1W9D0yp0nc8QChgpqH+BEee/BTNaJbcVPGZcQYzZA9fg5uZIsbtxHav3SlGm2EFxTifFUcFnFU0Upz4BO2JrpM0LjHVfJPLf/l/QfomZBchvxdMq7C98XxY7+IQuw3ddAyLKAAL+GA3r43kGFr/P3tv+iNJkp75/V4z97jzqMysu6u7+p6evmZ6ONPD4QmSQ3IoapYHdrGQFgKkL5Kw+j/0QQIEfZKwkFYLCboWhKBdYlcil0uRA56zOxwuh+T09PT0fdXVVVl5xOFu9uqDuUd4eERkRmRWXlX+FLIy0sPdzNzdzB57TwNuwWd/wVv/6h+zym3adhdLH/CEHc3LtvqDqAonWzztR6eoIU9zxrnhHUpRSTzLoXE6xIC14FXY7tfoawda7QMYK08nzgAxnhQU0n4YZM3HaT79k/jORRLbwPg6sYsxw6wZOWmPtomFTEJ8OPrJBERNWByowZmUJOrRr23Tr28zqHXxUcJqu8mK7rDR/wGf/PP/En7029D7Pvht5tp6Y2KOyg+U1WwVzhrGbHcTrzEzMGr+IwgRngToMuAjuje/zad/8k94qvExrfQekfekXnHGZPmNdR+J8FGHovjMFkhmZpQpWq0ZV6vDxkqCYNpPsHLtNVjdCF/OsO2eJZxyVeoJQghbVtkaibaJV1+leflLbO/cI7IfIb6HUthzUvO9IEf7w4m4WaXnFzHbXXzezqXji+N96zsMiu3NbaF5nGP40cwWpGlK2tvFyIBabYe23+aj7/wWV7UPTwM2Bc4BjQXqLu+jWUQ1CZ416DAcnAnN6dCpjSz3qSeoT81t3I1/x42//h3aOz9AdZNEEuJ2i6Q3CP7PMuqb87VjWO3c586H4gxx2shCQRyKBDNI9s9kCWc9iheDilB0Pcpd8RIidswKO80N1i59ifbnfx5al1BqDAZKvS6jC84gTlGu1NMFD8NghQEpbXaweouP/+AfIbf+b1bNTXxiM5Vq2MrKKIhGWA2TvTdd1KSIyaxpE/qV2b1mpOqY+W3p70VsiAd95aNJLPdRDW30Q7XMqB7JkixkLjoS0UsibHONlYtPwud/CTa+AX4DTJ5CLpPA/XgxI5S9E/Nrzujoe4Th8TgcAkQah4ie/NVa8BYSBpkitRY0N+nH8MbvcPutfw47P6Cum9RsirGCqse70P+GCZ5KRv6cJ8vDcDYxjo+T4fidFoY1FYs6vB0jxKESvMWNr2N8jPUG48OMhyiJjUgyCTwfmuo8RoVuvMHt5Re4/oV/j8bFrwKrkK6gZPbFM55HvJIYZyBfwIZYnYgBS9S6KVe+8ht8/AffIXVdSHeJNCSkknw7rGwTZsSPOaxMT5K090A5zLcP7prx65XgmDeiwXy2MaV7LEZ8QmSU1RaI3MXduMP9Gx9x7lUHz30D+hFEq2CXmI1pqtNTNNFUODjEB6NV3n0k8KSgRPkSVe7CG/+KzR/9IbXNH9Ku3SeRFCyk6lH1JV+2BzUjT9Lm/L3utPbPcVtqSJ6Z7aEojvC8AWIUg4ojxWDrHXa6Qq2xQf3Cizz/yjdg6TnULzPo1qjHTeQhWadWEuMM5BJjvpCNCWH/JB/Be7/Fze/9n9QGb1HXLYy3hPyLTRQbVDniEUmzcIaMGBewyCt7nT7NtnacyzMt/Z5Wv4RYaB393Wi3cYOEfr/PThKRNq6y9uRPUP/K3wfzDEG1aqbMRbkatZD8eeic8ZCMxEcImXsKnrDfpy28U4+QZO80Bgz3YfAW3Pg2N7/7z9Ctt2mwRc0kGBu2ovPeD9egRWJ8MBLj6NtcYjzNjjX7I7sn8aikAJlHeb4Nn8PSR4lIdAknEd4k9E2dbV2ltv4S60/8LPFjX4TGGqotvGtg4zVwGlbNhQXOWUUlMe6BomvNcIiZNbjyNRofv0X3k5tY6RKJZrr54KGZ2gTEEcEobnYhS8ZeOOl1zDRSnA+9nd3h50aUUq/d4fZbv0t7d4eVr/49aDwLsg7SIHTNorMNjI+4/K2c4dH3yEKzt5cRzZAqc6ujJyINNsX7b7L71v/DzR/9axrpe3RqXcR7tnd26LTbeD8rCfgsW/QUTLUwTOvfc5Z3VqBm6COAgFPNVNwGxeI0IqVJIivsssLytS+x+vRPw4Ufw/VbWFke6srwacgzHQrOHtPZ1aVWEuMMhOlYszVtmIKHqwi9A3f+jA/+6L+hmbxJLd1kubPM4L7HidCPeyApdW+wvugGXegoOjo6q/5ydv/xb8s4ik54mPqnSJAeVIO34PD5mhpO2iTRBc6/8HV44qeh/UVgCfVdUnUYEazJk5IXSbHC2UNZjQeaLXAEUO8wAsh92Poztt74Xe5/8F1aeoc4uUOkg+H5iMs2L5fM8W28pgmJsdCC4sGxJese5JibCiYs/DOG3aRPwWmCz6TG8OM1dxQyiIlB6iRJjYGcp1d/hmsvfR156mtgVgk75zTAZdt4ZRLoiAynjM3T/CimoJIY90B4xWGVOBw0Asg52HiRa698g4//qoumffq7OxhtYlGM+uAuTn5RvkYe/R0if/dagU7xrJvL6/RB21YOs24qtmd035o9TAGM7xKxQ+R3uPlX/4xzm7eJX1WQi0jzMm6QYKI6QZGdJSI/a6PsEcXeOpJcExBU4gbA9ZF0B/wm2E/of/+30c++R1tv47t3iazHZjYGJSSyDuS3yALuMJhSnkz/ZpRC8bT2VRn+KKDGolLDU8f5Jol22GWJK0//JBe++OswWAMug9ZBEoaL1NzpIC9Sp5lCzh4qYpyBXMIbbr9EtroixFQJ6/DU12nf/Ijt924ycLfo4IMXpjdhyGtpNTmxGpXywTGUJUbZ8/T9y1schyPF4ISUG3YYS7qumQOPSBan5lM6doveR3/Grff/iiuv/wZc/2VqtXVUHc5vY0wdmSf+scKJo2wFn+4Uk2YEEoGmYLYg/hQ+/CPu/PXvEO/8iLreR62y6/qojUENcfDMoT9USszX7w/verbg2fvuU3W0zFGUmFVHKufRUjV/S4YkFQY+QuwqjfoVtHGdJ7/w78PFl6AfQ3Mj2zkgX8wUpMJcashJseBdfFbJsSLGPTDuh6aZ91bYmbFGA7jAyqu/yv3bf0PSF9J+F6sJGIvL4xqLw2li38Q9SLH0e7j+3LOjnbBWvLCNT9AUF8JNRFDVbJGZS48Mm2yNx7BDd/MOrVqTj//8f6X75ts88covEl16OqhtzAahy86WQYoTckWhJ4PyexjzoYKwKhKbdeYEoQeyBe5TePMPuPvuH1LrvkvTb5L07tNXJYrj4aWzwpi0sA4br7hUv0weyj/vkyVuz+tnXzAFApr53g6TGUiuXdKxaiYtKrnqOHcGCld40aE2BsAIWdC+MFrkK6LhvFRiUolIJSaJOkj9Msvrz9O49CqcfxlaT7HbrdOqN4N7vil6XRQ/ZmpUySXIPR/KmUBlY9wXo2GedSvAYIb+qnfg43/JD//0f6O99SZrHccgFrq9XTrGEJVHU9nAsRem2Rj3fFsn2SOn1T1uZ/SZm2px8I4ybYwGsCI46mztWEz7Mdau/xjRC78AnVfAr0LcJIQmm8yBQzOfVcERxrAQUgdU5Hi8yAWGYjcdRqjmTsWZ0V5JEHsf9F3Y+SE7P/wWya03SW6+T81vU4/D28y3McrtiPmwCBluGNZW7oFT91NkPzKbjb2un1SlTrNZFs43Dm/6gCCuCZk3e9BKhQtNNjbGs9EE8jFqsJkKxhlwxpMajzMejGRmCsGqYDVGvKIupRYbqAUp/Y6rkdY2cNEGtaVn2Hj6p2D5WWg9A7RAHV7M8Hnnz3P0tE32KU9kUtgovvjAziAqYpwL43bC0OEzVQlbkLxL/53f59Zf/1OW7C0cXTTtUXOOeOYSdJw0Ztc7ej17n52Vd2rephTsqgFaIsaxhOuMTyRWhEgs0OI+62yZa1x9/e/DpZfB16G+AbTJqU9hSIoJYYhWxHj8KBNjPn1K8Ytcqoi2gbfpvfd7vP/936XtPqGV3qeROCLvcTrA637Zo2ajSIyzhMe5y1rw+v1Gt4rDmxBgL74OGmWSnw79E4ZJQyYqFozKkBi9ASee1HqcKGQhocYLRi1CjEiMJ8KYGophlyaD9jXWr71C/Pir0HkKuAwE5xpPrgAaPf9psdg5VYbfBa/UuZ7C6UVFjAeGBwYhn6pLwNxg87v/I8ntP8PuvkdNdzBi9xhB83aYklpl5nlH0AEP4VWnY6vL7Niwq42kxRwTxBjFRLU63hm6fdhOamjrIvHqM6y//A1YfgHqT4E0x+otJVCpfFePGWXbosmPDhUveZ+6B8lfMXjjX/LBO3+EH3zEanNAnQE1H2FcZhfzmcfkAaapkyfGvU0l+aPIjS4h93Du8DdH+cPTdKw8k923EYPHkNoafWmRROvc77dYWnuWC9e/DBsvQf081NsgMcHbNIbMRwIhhHIU6pzVlunHK2J8BBFSACT9AU4jGg0HO3/CB9/6H6jf/y4rdhOve297sxD0uNdfh5NAdcql5a5WJEIpHzMGE2WZhLzgMGwnA6R+gd30KstXvsLqV38dovNAs/BT4aQxrknLGTEFHYD2QXugH3Pn9/5bZPcNnL9NHHdJ020iwPgI8YKV6FAJqU8yifhIkpre/vBNpu2QfKFoslzLWjhvrMCxEgIh5ikSIpQYVQsSoWLxJiKRGolt0ZNlnnr5Z+Dii9B+EvwKsAEuYpiJwxAMkxn8cArIbJblNu1z/xUxPqpQcGmKxpaIXWAT7n6HD3/vv6LRf4tW3SOSPLC6jp8YD46h5DCrmGn3oyNVteCxkuJFSKSJE0ElRTTCpB2cLpHWVzn37Ffg6Z8Bew2VK6icw+SOc5Vr2SmAI9WESHrAJvTeg/e/zZ3v/S5N9x6x3EVNH0eKF8V5wEcYiYc+HUbKq6yyfpGpnc0sqi6YvqniIa+fVUZuapDgeIPgSRGBxDuMye13oYh8mrbWYEz48TicGvq+Tt836GkLW18jaqwizVWS2hLnLj1N5/ILUL9IUJM2CQOjjlJDsePjsOS8pMOD4/cxn8RcEeOjh9yoJeCsEtSqPWx0F//v/gm33/x/afIpkWw9sPrOUjdbnBhlghgjSfAIA1PHS9i93aoSZcnJbafDrS1ht/EsVz7/i8TXvgr2AmgbtA62hdp6tf3QAijNi4eAJ1h8d4EdYBPuf59bf/Ev2P3gz7jY3KXmNzHSw0tmHxaLUwMaMcyLoxJUi2MNm0Y4MkFMgVvmnd4mr9+b2A53vQJqDKpgfQQakqanEqP1DRz1UXE6Uo+mLqXf75OkjtQrzc452ueuUOtcZGnjSWhfgOUL0FgnkGALaKO+hUoLpE4eyq/DdJX5u57mPFPesXEaTU59GhUxPpLItEMAGA92EDzn9BboLW7/63+E2fwWTT59YPWdpW52GGLMYfLlsgiqNqiKADUDlARRj9g6KU1ctMamW2bj+hdpPfNl6LwKXEV1ZZht50ET5Jl2vpvGK0wS48HvrQd6D+Qz+PgvufnG/4fu/pDY38ANbmHdDi2gZiK8GDwWLxGusDga9ZEQYjBq2HzEKAsbmIt3vAgpLn69F0gNiApxEhYBaU0ZRBdZeuwXSaJLpCZTZwKaqZRtZKnX69i4haw9BrYJUQNsIMBgJ8w8csw6uUuaOkWlhjG1QhvTkRp16CaVZxXKWzpdWnzYibFSNh0GxXeuBidKJGvghI0v/xrv//73Ed2h7vshvlFyI3meT2f+wXc2u9f+GJuIh3FcABJcxdFAgHhQQUXxEnI6Wjyx9Klpj373LqvRErsf3uHWp9+F9nNcfuob1JaeQZbPg4vBtDIng3K3V1RdRpwjFdd+Dhf5dHLmoKXfJT1afl8yNslPfj96IIaw4W0C9CE3K9z+PpvvfJvtj/+SWvoJDD7C1rpYm2bnxzi1mY3Mgtos1NcXmpXZ0uZ50BOqz0Xfjs74fNAy9jlLTCAm9XiJoXEO03kO88zXqbeepm5k8hZUwbsgVZsOmFw1mu8LJSA2E5czNa1KyO1tLGO9tpxmdurjKveByVOn3/HZJUWoJMbDYWxW91mX86ApyMfw0W/z4V/+X6x1PyHu38HGijMS1CUIgptpnB8e13E1xvFBSr/3Q3nylEwKmX39uH2xkDRvmqNBHuMooOKyGjLnBgUwOLE4iUmpkUiH1JyntfIMq499CS6+DO2nYJA56UQ11BocDjRBNLfrBEcGMGPxY5q1a5pEdeaGf5kYAUy+30XomcJoN4lwYpZbM1PEhcTRCk4grmXnbQI3YOdvSN75Y2796E9o6CaR9rD0MQwQ0iHxmWzSBsl8bMxYs3JilOKRmauR2ba8xR7KQa+fUsQel6oYnBHEK9EgpSfL3Gte5/Gf+I9g/ZfBtxnbqWKi/NE2d6PKCr1xWsotKTdqRoOHmpX96W9aVwpXTt9o76ygIsYjw13gbXj/D/j0z/8P1s1txN8HPImpoxiEdG9i1L1o5TiwyLQ/Lv2GFfFkLOPsmsL9Dsf1rPLnKE4UvFhsrUOiywz0PKb5JCvXfzx45S1dhu0E6g3URogNsV2au6tn2XXKAsjIvd5npJzLVWdsCpg2mwkhmTT5HRXyA+MJ8Ww+ewsmm477IVwpHYBugd7g3t/+Hndv/BvO1T/Dbr9PTXfHKyk+Kx39reWsSWNnlo9Me94z1KsH7L+LX78YRAxGDM6BqtCNr9D+3N+h/vw3QJ4H3wBTyqm230y9gDl0z7/3/2Ki2uN7cseDSpV6VNB26OBXI86/dJPN936f5s4uNe1h1OFFhwb14SXVGuXQyMksMgpuG6tdTHIL13+frTfeRH+wRmfpGubSc/Dsy4hZBZYQOjhqKNFY4PSwXMiSARb3hLSMUgic5WkgR55HqDDRSa5SNYzZoBgA2xB1YfA2vP1tPvnBt4jtJu1oFx3sElk/ssPvgzH7by64aOnA2Oe5dKtznndU189GcCILjjdb0RL1Sy9Sf/xrIJcAsr0q45Kp4QG1psS1s2zlD0OPPigqYjwy1MDXwD6JfeHv4O9/xnZ3l7a/E9Stw2S8px2HIesFr30AjyOXO5IkQYzgtUejZrBRQq93j0iW6d54G7v1Bnff/F2Wr36O9uOvwLmniMw60AGtE/LmNPFEhfdV3ii5KO0UbuO0e8Hm7FecIBW8D6apPDoiKDyDfTcsCgbZTx/Yhs132Hr3O/Q/+R6N9CaN5H0akcNHBucHwaTwwJE3fN6+ddjF5iLXL6J2FSAGWWYQX2Pl8Z+A1nUS3w6KajFjdznd0leqfQ7inCbdTStzShfZF6e81y+ESpV6VFDNgpMHYLrAe3zy+/81zcEbyOAGsfYwOqmuyzG0n50UDlr12GpUx1zO9xs6ew9+neJcMRuKIfUGsQKmD6QYMYiPEN/EUyO1EU5iVOuk2mHj6kvIpc/B+WchWYHOc5A2gobXRsGpQYKUqARC9N5jZwTMnVaCnPYUNXMCwXtMFBJ2p/QJuVMM3P8EGjshDnHzrxl8+n0+e/8tYu1iZReRLsb0QVK8BFu71RBeMy75TVelToOY2ePj9GH8XvLuPqv51se4HUMvepyVL/0DeO6XgCU8SygRgp3PN6b03TzEWPw9q5yDlDnPuWcFFTEeFVRB8/0DDcg92P5jPvq3/wvN/g+I+jeIvcNMefwjS0uZHM9Otxvuyj5mv19UNVV6NgsRo0W1nvnlBGIUSbMk1Lkjj4CGfJKqdQbaoS/L0L7M0sXPU7/6ZVh/CuwS9AZQWwLTIEiTwR7pfFhbDyeRYhqyU0iMWvqBsAgzpMExhgFB/9kLv5M7sLMN2zfpfvw97t/8HoOdN1mt94mTAYaU1KQ4m4awpdx5R7Nyx9Yz04ixiPG/jZkiM+3n4DKhF1zQ8LbobDix8CuM3r2cb3wLdeeJ1r9M/DP/BaQbUF8i2LjtUGKf5uy1X1P2wyyJcRopzlPuLFXsWUZFjEcF9eCzfR5MTNjc8w7s/AU3vv3f0+y/RdS7T6yjzDg+d7ZRGM+6DIvZVk4DdGI/ycWIMXe0Wax75p6kIe9kHH5jgselcSCD8IOCZmm0Mk9UMXXiWpPd3T6qMda2cdKmvnyJ+sZ1uPoCtC5CawNYB84DbTTL5Tmxm8MpJsZcOQwgpBh2Ee5j6BLI8S589F38p2/w6UdvooO7nGsLaXcTq452o86g20UlJbVd1CQgLkt8bYcereNdYK/3LwVyCS2dJMYpIthYH5HScJmmOJyFGeXPc1l+kY420c6XtbP6cKLruNorrHz1H8DSFyC6SAglgjxOsxi0Mv5pRjMWgE75PEmG8zvfHKQNpxkVMR4VNAvbQEDibPWYInwC23/M7W//70RbP6Tpw0QjgMsmhjy+USUdJ5dDJPU+HoyJh5MS3r7t3+f6eVowJEaD8ZaQRSVs/hWIMclU2woao0R4gopURPAuwaqjFkX0traI622cXUKa57mxDY3Vx2itXUVaV2isv4gsXYbWEmDDxKiZQ47YbKLLXeotwaSf/51P+vMotfbCHtdrXkduH82chySjRc0S4UsX2Ib+pyR3P+DGJz+if+dt1pIbNNI7OL+Juh3EJ7QbLURr7O4OsDZCjcPZPioJgkMyCTzk/Cy3cB/3jqmZa8rnT1O4z5qaDyr+zfNduf5MCzE0zAmaEaUAKh4TGVIH+Ba7+hjrr/yH8PjPQHQFZWlUgwnvTEv1HtXon/705l/EVsRYYQEoo927s31g8EAf3B24/W0+/Tf/HSvpuzS1By4llRgvBqNhR0JvBhS3fTndKK24F0qn9SCuL5WWS6fFkIC8TMmdaMLEpaUJV/JNprNwEy8RnghvanginEQkRKSmAfESUX0ZEy+ztvEEtM/DuUvQPA8sAxYGAkkE7atADKkNiyBLZp/MPVvHlWf73/3kM1KC3dN4wUgtu60eSC8QoN8BtwPuPmzfgK1P4e6HdLc+ZvP+e4hsI6ZLpH1q3mWLtkCoJlOT5pKR86G9moVyiJFM0B+pUvd4Qyw+lebXzOob++lZD4MyKc+yhGv22wARohaj4MVB09Ptxgx2LnP+hV+DZ38VOk8XgvSL93HSJpTJt/cwEd9+qIjxKLGXMJC+D7f+BR986x9z7ZwnvfcJPgrxc1YVSPEmySad/KLTjsnJY7FWH3bF/+AwnJqm3EBYz3u8eNTEqGnhpcXANXG0ENtGbZta5wK2sUqzvU7cWMM0N4K9srYc0ng1NyC366VpcNay2c72EjwTx0Mkig1Sxr1kc7ggCSYp2Ah629D9DPr3YPcW/e2b3LvzMf17n9BK7tIyfWycIrYPsoWyC6ZHLlEHEhyvOYf34+4hY/ZVncd5bBFLVvGcWaR4mKn8wdQ/7DNqwvMj7JjhjDIQh7cXEfMaKz/7n0HtWYjW96gv91w/mbE/boc+GzPQg0IVrnESUCA6B+e/xrXXE+7+zW/RbDRQ38OSIj6XbHzJTncAG8gJ4WCD6GzcnEGxImAMXlPSZAt0l7rU8MSkA8WrUPdL+E3DrhoSJyQuAomxcQONOtRXrkLUpl5vEMcxtdVzI0KUTJIUW/gbRlOUAzMIv3P0uujuLvfu3qO/fYembuN79+h3t0h7O7RbEeITGiidSIkjBZ+S+gHqUox1WCshzGioHpyNvWyouRZ37xIelEwyrwS5Hx5Q/bk6P1OHphYcNbzrkEZX2fjar0PjEkhjjvY8SnR0elAR40lBG6BX4PrPc273b9l+5xNMbpeUXKU2xaYy9zg5gQGlw//mmFaPoSkHwFxtVsEYCRvBqsOlCZr08bqLsZaWjbCRwQy2UfU476mLwUYxiiHpp6T9Gkn3bbxp0k1HMa0ieY7LzF5VUgfvRYzGWIw1WGNoSJ/I3cX6Li3j8Q2HGyQIENkIkcwmKkIUjd6aashrowe08R4cB7VUHU5m+BTRAAAgAElEQVTlPqv+SYX2pAVuWv3jVnJD4hVvDQlNunKVK8/9Iqw+D2kbovo+bapI8aRQEeNJQWKIz8PgFjTaOHVEYkLuEXGZpBgxmW7sQauHHiBkVGdI8XbCydIOMMeOKfemCuiZLOBNlhqnRs00qNU0SAia2d1SMg2oZHZERVyCKDQElITUf4a6QgLorA0TN1B4rmMnaslr2Qk4zZxW0mFuUjGCGDD1WmEa91ly9kIVQwLOtyXaG3tJjIKgejj7+OzyyyrYB0GOU6QzmbG801Evn1W/F4sjJgHqtZiuX+P8C9+Eqz8NrEOUOWw9bHhIPHEqYjxBeMDUmmx9+jF1I9jUIFi8YaRCnRjv804AJ9UzT5c69CieVp5MPN9cXiTkDhUNUqRA2AFEMqlLPKKK0SyuDwBPLANUEsYn2Cktm3F4tpOGDn+UsOefSpbDRgAJQfcWP3Q0ym5k2JZACSPaPF1v9figpZl+uEbZ54EogLWorXOzCxeefY342legcZ2wR2KdM88eZWjp8xm+vYoYTwwJhl3gFt3PPmDJeHBh143UDPCix6vJqjAXlEB4Kh6fEYmowXrBeoPRsFWWEhY3KjnFCMYHR4zgU6Go9TgzIrERCnKcCkyVnHJVZ1mVN2qTqEGGpKZ4E+rzEiICrLNhn8Oh6t6PlRMo0ww9TU99tNCpgmeQ7NCvtbFXvkDj2Z+H+mVCcoiYM80ajwAqYjxK7LmyHAD34d6PiNmBpAu+MdoTMHdeGDdaLICT1WnkC8Zj5fbSrS5St5KpTguPbfr1uRRYqFR82GNTghJyaK/LtmkayhqSEx1DztOh5LcophOjokhmOxze2KilQUKUsrewMOZRCYUHUe6E87YuPKPFfd6nLRD2Of+BrCDL42W0c33x+9CvNcualJ8fVOWqHmMNqp5UYnalSb92hcef/zrUXwHWgCajd3b6yXGhFhYH/Om/tT1REeNRY2YH6QObbL3759SiHrg++Wyce7MhOj6zLDhBybFH4oy3Tycm4KPDcBrPzXIHuPWcHIvllZGnOUPHdw+ULHB+OGFmpDWcZgWc8TDM/6l4M17LSCIrvfM5Van53pR5XKGW+ovVsLmWuoLyVrKJvsjWE09AZz6P2QiEujin7rUSnN62mSUtUHkYb8WdH0t5WmX0NsPrFRCTZViK8Kp4ElQVG8UksgyrL3Hl6a9jVr9EyJK0kl0f3g/UTjV/HKhtp/mGFkBFjCeGBLrv0Nt8nzY9QtB5OpzwRv3rsEuw4yLH6e07yJR6UBRVfSoHJ8f9kJc7+Y5KUlepXJ28cL4WLXK+DOXVya+YfCbjtDrNqWXyzEVwIEKdivJDeMD9Ssaf2XCRNFbNSGoMCwpPHqdoRMBY+t4xSGK69Q0uPfVzRBe+ClwBXR67jbMhLz66qIjxxODgzofs3r9BO/J4BWNGE+wj6+1Q4Xixp7qzmrrLyBc+ig97qqpS80HSFusZ+Ai39CRL51/PSPEa0KH4LIXoEXZnOhuoiPHE4Ojd/5TI7yIoXiQjxsxhY6hGLauPTutkNWmjOWl2P6jU+Mhhmoby1OHw0uuBUFaty0hizOVHsQ7vhERjXG2DxvkfY/mFXwV5AnSN6WP2tI7jClAR4wnCsHPnA5q2D+pwYsCG5M5+Zp7QBSeEWfapI8MJTV57YBFPyopETzuO9wWNqaNlfKknKmxvdTm3vAySMnDCtl9l5drr1D/3GxC9BLo6rdCxMiucTlTEeExQzZwR8gODTVzvM1p0UXV4ETTb9SC3Rc2y2s1dJ4s5IDwYnAy7lGud11I1do2c3Fx1+PZrwQP2gC0YBuk9JDjUreShNiOtTZnTzi11iIzB+YguHeLlL1J//tcg/jywOt0sWnZIfYge98OEihiPEmPOhULiPLE1OO9xd+/geneJTQ+nbhh4nY+colecmGxg+kVJ5zhdX04ZSiqwaQ6f03BqntfC7dcpXxccd2Z5BU0p45HG8LkrYZHK1Gdn1BFFHlKPxufprLxG/Mp/DtEruLSFjcDhMXikOM2OiZ1HfjcVDoiKGI8KUwaA84EYrf+M3s77RCbfFDZckMd+SSE35uE9LR/dya6s2M3DE/bCaVKnHqr9ZSYd/r1HAVqu9YzjkBLj0MPXKIJFsLjEERsQNSRdT893sJ3P0Xr170LnizDoYGuwpdAUh+KQ4Q4pjEuKFTGeWlTEeJQoTVIeAwwg+pTeZ9/ByDZ+mG0kj48TRKJwSS4pErLgyIHiwirMg+F8dUaf73zt349Vz+jNz8BhzAiS/a/iSY2CGNRZjAra2yFurLJdO49ZeZXWS/8B1F8C12AQh7TuURjAhNGb5aQVU5HhGUFFjMcEJVeJdkE/xfc+xEof7x0hnHg0GGVsWVm4/gB1PvKY86GpTkbunQocuP2LOm/lV1czd4AQNhgD8KTOgUtp1JvYKOZer0P9ypdpvvjrEL8I8WOkjHZQDDKiIGFbgMI3xfIrnFZUxHiMMEaABHr36O7cYQmXkWVmTxwLKBuRo2ROO4vsKT0M867G33w4bgfeB42p7V/kjobK2gfVohPHYQRgRXASpkfjg62w57oM4jo+Xic+9yrNp74Jy1+DQTOcp544yzsbyLEafGcVFTEeJYr2QfKBmkB6n6R3F6m5wrczCjjEIv7geTgrPJp4uPrKYe5GEbx6rLGgghIRNRts9tt0Nl6j/fw3Ye3HIVmCWhS2xxyz42pp3FYkeZZQEeNRIQ/SR/BZnotgfneQ3KXVSBE/vl9d2SYiMh4/ILLY/obHHsZYocIpQtj0+YBQxeBBPTa2DLTG/UGb+rnXWX7lH4J5FjiHj7NxLSE9XNj8eVgIox1LKmI8S6iI8YiQ5bAZiywLwzSBndvEph8Gnp9RQIUKFU4MRsI2wkmq7KaWND5PfeVF1n/yP4V7T0F0DkdwtIlRxDAcyy5bkFpy74EKZw0VMR4hirG8AqhPwXTZvfcJsU0Q70LyYbITFo5TrFChwlHAKFgEl8bUOk+xdP6rmGd/Ezavg12DTnFsj8atM9BjF8XRoE5UTbFnEtVbO1KMPP3C3gUpJF1627epy4CyuLinOTErqqLOChUeBEZxiqJhY2fNYw1RPBEpLbq1DZYu/Djmc98E/xzYdeiMVLRS+H+UNi5ksJpEJT2eFVTEeGTIQzAcQg/JrfP9Lv2dz6jTxYhmwb8ZTGEw6XjM4sGydVVRxBUeXZg93FJVFG88omCdBTWkvoaIQXTAljbZXn6Bpas/gX3i5yB+AfwKWgePz2ITowlijIAmLSjQbKHWwudqXJ5mVMR4RBjFJCqQZj8R+ARDimiakeKMASLj8mMlKVao8KCRBTWJoqqoCmqbEK1D/TGuvPRN7NrrwDXQNt4EOVAz66IZEuM4bEHynBy5FSGeBVTEeIQYrSYt5OoVcUGOE5OF8hcHSmmNWbFhhQpHAiFsZqOipAaIhXpU4+Z9wbee4dIXfw2WvgJcQp0hdZ6olo/paBi4X9Hcw4mKGI8S+X6KEhGIsQ+4LMSpGlIVKpwUsuyLqBgcBicNbt+3rF75Cu1nfgWWvgzuHIM0BgzGWFSDNUSzxe5iI7ii0bOEihiPDEU1iiVIg5703m0ARCz4vWM1xMipSmpdocJZwl65UtUYNI7Z7Q2wErGdLtF84ucyUnwNv9tG4yVsDLaoyCnG7e/Lc1UKuLOKihiPFBk5qgkJhEmDEw5BlariS2ngFmfBPXcTKiffWPT6A5RXocLpgUz8OUp8Z9nadpjGJXb9Klee/zl4+pug1yE9h2nUUcMwVlG0YOhYaNuoasScRVTEeJSQPL4id7IJNkYAjEXUIUWRcEKAnJ+Jppr4FxiT+1HywbxiK1Q4IejIfi8acgaP9rEBfJ1O6wJde41Ln/9VaL8AvAbqYdCDRp63RhAiTE6LlQbnkUBFjEeOIps4hBQlJaxDg4/b6NTC5xmi3Mw9E0qn6gxOnff6iXNO6+4TFSoUUO7GoiF+WAA1lkRrJCwxYINW5yXOvfBLYR9FLoJa1EVIJIDLNivO9lIUU3X+RwgVMR4l8g2Hh8m8lftbd0B6qHQxxiBaMmBkkCzR6X5OOirTOW1y46rFrp9VYGXzrHCaUbT/qSoiKdAH8ajU2fEd7suTXHrml2k++fPABaCNEqPYjBRNcRdFxkZIpTV5JFAR47FCETyeJIuFytSrhe/HMUNGmyM5uEpBk1sobd7r9yq3QoXThmkbyahkgfjqQS1JWqO9+izrL/3H0PoycBFHp1CIZkWMCHHMl7RSmTwyqIjxSFEcVsHsr2NflUfywUbdLF+AsjQ4q/i5HHAqx5sKZwgqIRBfUfAxaBtjL1F/5pdBXg5ONvts2DgWVVzt4fxIoSLGY0CREsdz2cwebYpObhuVMd0EvxW5d0rdw9NkxmkzB7yOn7Mvb5+2mWMul6JDXL9oeceNR6f9Yb9TGS7+FMWb8IUVg9eIvoupbzpY2YCehQbFbG6hjLKZn9H34x8qPMyoiPGYMZQhp2lIzfioU1/ctEoyVc/8I3NM7bmwMKql30wnxyFRD6eW0Vdz1jlLPXs4e+aU9o+XjsrshQloVv+8jZi8/5PFfvdfxtlvf1hMhvaryHD7J2M8XlIStwutBPQO1FZAahRzFRtkbPFY7O6n5alUOB5UxHhsyFzHRYbp4OYZbjr26RDD80D2kUUuOE2Tao492r8nKRbOmfsRnLH7n3ru2W9/kU6VQI5GwIni1IFxYNIsbKrg7MZkOH5lTnx0URHjkSMfbtnKVEy2s/ghPGAqVKiwL3JNhDOGVA2psSARSA2IOX0LgQqnBRUxHhlKKkUJa1IpEuOBMM6mRTWkFoI7dMq5U0tbtBnleMnJEhcqbq/6c8/aA2G/uMwpn6ads49/xpRCT8lq5yDd66Fqf0in6EXwCE4sjhgkBjU4VYzdP2NxRZ2PJipiPFJIQUOVqVKNQcSifnRs5tVm+vdTnQKQsVlcppw9zflmXH00NX/OnPVPYhapzHv9fCfMKnnvi+crdsFp8cRn0fnvfyrOePuL/c0Qtn8SJEsWXsNrE1bOgzF45zBjS8kp5S1Ue4WHCRUxHhVyp1MKv8WA2ExiPIoKYdxFdVEbzbTzz8j0IDPa/6gEXp71+z+C9o/shgbVCGwHog4QgVT721SYjaOYoSvMhEEkCp5z1aisUOGIEZynREGIMNEysAy0iE0hVqNChRIqifE4IIB4wh5uMcZYcHvHMY5wcIfxYuD+wUMfZlwo5TNkZhjKvjUcSbjGfoVMKo4nz4CFwh1OiXluDHM/xDPe/olOpNkhxXgQjRCbE2OTyu+0wl6oiPFY4Mk2r6HZOUcighHFiOyjKlK0aDjRPORj2rnlsmRcPVXQsM66XrSszprFWLMOlyThUgjkPGWMnbLQWiCf6BaxYO5j4100hGGxBj9gHOT+y0Wc4fbndvziOtIookqEYInpLF0BloDa+KpxZnkVHlVUxHgckGxXNwdEDZxLQ1Yb3dv4H9JaFeSxBQZrvlrOuTIPyZs9901bPU/LQjDljGxSmrifklQpOv34qL2FS/P2zmruXNjL4zRMxDrjgYjmT36UvmBv5BP7Sc2oc76/mXhI2j8M8FdUAjEaBaMRS6uPAW3A4hLFxhX7VZiOihiPEsN5xocfD9QaDAYDbNPgkz2Gvowvase3kZrHe6/k+TOH5kgn1FaLeAnmN7sHGc26fGaxRzlx5ZPo9PaG7HuFoA7drzX73//R42jf39HjQbY/7I9hJIRtGG9h5TJBjWqR4Yrx8K2u8PChIsajxNAtToAI1RSxNbpOSTHsKwQWNUOZhDmClk6doiOd4uk32+I2C9Mnpxl0Mnf5+02/OlwQhA1nVR2Cy1J+mRDuImR/C2ieLE+QTFL2MmqPINlkGFTOIpptSzS7zWNKvVDFfq3e74Tjxxx7fJZOOF2Ys/2TvVLx3hPbGETxYkAaQA28VNunVdgTFTEeFUQzFSooNSDCRRBpjebGFXa6N2iIJ9pjth0f5qM8kOVvwI+E0+FXI2f1/PBeJqT9JaJR4WXJb0Tee9Brofzy/DZVThBQPCr5npWKlT5RFIHWSBNfUDJn//I6VFDjSY3HGcWoIGowahG1oTxVMElGjrOJvvhpfxPcKRc/9mWDs9v+oKoft7GrU0xsSSTFtGoQd8DXwCtiQsLx8XFVqm7uhh3cQa7C6URFjEcGD6QoghIBBkwNtEZ75RL9XgOlj0o6d4l7yTaSfTsa40Gy2ksBW8SkRKQzJqKi5W3aNzMmmWL5M4mo+L0ObawKWBMjIiSpAzWYKEbV49UjGiybRhg6EIWd2xWjIRm4yf6WoYPHvjLrxDnzCRmnZXKcdY9nhRwXa//IQprpDRSMCoolNTG1zjrYJngbTjTZzwzv5PktrrPaeVqeY4WDoCLGI4MUfsLQcQqRNOgsXaD3cX3klLNfMZQ5qjQQs2Dl4jkyY8DvWY1MHFkQs6+ZLH8SOlV6FlQ8A2fxSQdrYlQcLh1gIoM1YMRjVFH1qChGPYISu7zSvOIUxaEmo0eZTfJQcFzKnq/6ecj0tOAgbTnj7S8kfReEmq3h0xhvz2FXr4NtQ5qFbttxSpum6i9bXOfVqCxyRYXTiYoYjxTjEpuogDTBt4jsMvj+3pcX1Y2yDznOxHznPZgpcT618DzXCwJqUGIcDZysovFVVq49Dyblkw/fRnUHQx9Ln0h6xOwS0SOijyHNpEfJ/U9D+UOnpnFV88Hv7OBnnk6c7fbnix1RIbYxPVdjEJ2n3b4e1KhiwrsfvvqyrX70aTFSnGjJga+scPKoiPHIMK7KDKo+A9SgdYnujlBvRmP5UPeXSB5uxHFMmqYYI0RRHeeFbtKA6DHaK1+g9sJvAhfAWi4/mTC4+w7J7ifs3n2H3s579LrvshRvIvoZaXKfVFOMgDWWSCJAwjMuOCROlQxmZCYSs58O+BRhP28nmX544vIzcr/l2xUEbIT6Fj0uwtoLQCsQoxkZBGRsMTZuB19U61Lh4UFFjEcGIWS6CQj2PwNEEK3QqJ1DZGvikqJy71Fba3a7u8RxDSOGfmroySqD+ArnLr5O9OQvgD4DsoEnxpNSO3eZ2rn7tC/fAb0N22+x9cF3uX3nLTqthCjq4d0OPhngfEKkKUZSDA5Vt7+T5hnAaNmlBdWwTDlnEntN+vPZ104Ppt6zCqp1GktPgbkAtMDPdrSR0t8VKT66qIjxGKFewcRQW6HdXEOTjzKPOB++h3EPSR05E0Bp8E6TaCb+kpNNZrIgWp0lfJrinKNvO+wsv8KlZ76Bab4OrAIdAq2lgMNqHWENzArwGCw/xdJLv8ASfdh+h61b3yXZfh+nd6j5+5Depab3Eb+NEc12eJ/t0pRj6LW4f7zGCaD4gn0IU8k0FaIPhtzMjF1e9oM/dg2IzX6HLFOkDtUaS+tPARtAHcwoPXRFfhVmoSLGo0TZzCAANYgvos2rqHuD4BAyfrrKKCZvmAauWOiYsbHgQlAY6bOkh0VwqElVizedOyDlbVe8EtRa2QZBqjHql9jqOpqdDZavfZnl8z8BtZeAaziaeHIic1hiJFOPoinOe8SuoyiWBnSeYKnzNPgboDvgNuGj75Pe+5Dt+58iuoNKF6WPSIpqgmGASIoRh+AzT9aieq387HPCLJ5V/j32UCZ/L/qQdbwvBMnIDDO9eAFVCxgkTywxqznz4DDa4yNdlBX6vWZe32rDMfEogvMWZ9pEnceAcyjx0CFVsp60XxP3v4WiTqh8/AytSiuMoSLGo8KU2WRoY+RxdO0lBt0/xOoA1YwgMslERLPVvowNLxlz7Syzro79GfahO8TWOpqXcsASBMjvS80ok4yEvLFOHb3EYaM6VlrsdBskepm1S1+k8djrsP554BywAjSwRGTTHsVkbQKo1BA7qtYDhiXgaTDXgBRsAk/+LJEfsIQD2YRbf0n33lvcu/s+ovdIBzeIZJta3KNGQiN1GO9IXUrqE1Q8xgrWhn3+vFPUSxZnaUabUGtuW86lk0KIiPjsswcR9pdXS481W/yE0JMQqqLZzoIqHsWiWkewQI88xnWxOsb71KJtHBV0sMvmK1tBkkCGPkI0JnhnOxCPk5iEFkm8Cp0rQKNApR50dvzi4s2fdmZFimcZFTEeBWbMIwbwWLxfIlp+nO4nDbzLhavMEWAolJRIcazwGRJj8eghJcY9sqXtg9E0quLz0rJfOpRirK1h7BK7SYsoukDr/NN0rn4NWs9B40kYLIe980p7V2YK4qEkk9NMoZasFTWEWvHA+EmyCxc2aG68TFN2wN2F3Y9wO5+wff8julu38X6A0R7O9PHSR0yCMkB8ilFPDFgjYYLVcF9eHYovTbrFBYbNBPsQ5zruibs/cvVo2Jc+CeSqGTEOe4w8GCNh1i9PL/L7NSim4CqjeLFI6zxr518A086ODr+eA4t6lVZE+DChIsajwBRSyad3r6BqiDtrOG3gaECmupOh6i6kL8u1dmdpyCmBEDVLtaYSVJ2CZMH2isHhtIXaS0TLT3Pu4o9hL30JzDNAA/qKGyTY6IjuXAj1cDlzygDnP8Mux9jlASsXBuC7EHvo3kQ3P6a3e5Pt+x/iknu4ZJO6DjBugNE+Kn0wPTC7eN3By4BAepnUqCbLuBONMu+IG0o3Q7KbY8IePZEUTKaGVwuEskPvSbKVjZ9eyKKP64Aba6s+mPqnw4DWs3vP71XDczUerxYfbSCPvQSmPuXaslq8QoURKmI8KkyZ0xVFNNtN3EeodEi1iTUD1PewaLB/eHNwFeZpQu7cYgh35rNcldpg4M+z+vSvwMrL0HwK3ArBwSaG2GEtzCv2lL0J94UGBxWvHRSIDNjayuj74SpmF5pPIc0+TXo02QLuAbtAAh++C9oH6YHp4jc/oNu7w27/M7zvZ2rTQI6S/RhytWuKyC4iSQir05H8Mw+M7BLLHYQ+KrlNMZNMxRdskfuUuMfXsmCs5/GgaNfNVdZ+aLtWFCMWpy1qnesQPQHOgNGhqWLojqxU5FhhKipiPBKMO1kM01QhGLGIWIiWWD//FJ99+LfUrWLoh5g7lWzlb1Hc3ts1nkLkziD4YMOJajE+tnR9jYGu4+Qyy6svsXr1p8B8DnQDXIwzEZqpGS0WbNE+N99DmHsa10JGMBgJVvmB0AjQFmiTUYaiCwRJMHNqufpV8Nlem5JgLg9oS0KbBEhg63Y4Xx1hK5UU9Ql4h8iAnd3bCMlQWpzlRaoaEp6rD7+9emI+Y+vTP6QVfUYcK2naBx/S4kFIjj5+U1Mfw94P6ZBq1INKmnOUXNDKBCkxPBewEgEx9cYlahe+CKyD1DM1/rTl5lkLTKlwHKiI8YFDSz8wtIPk/hcCaA3TPo+XNp4EayyoC9laNHPgMH4Px4fC8RnjWsfOO67BHyafxAt9H6G0QZYZmDVs51kuPPOzYF+B3QbIdaCWPRePiB9JOSoMM5RMc/ibcmjPO9zPZirjb81AwdkpAqKhj6cj8GZUuHYI1RGRLqXZ2R4yspQhsTraDLLP87ybskfrTZq7Xfqbf0ljaUB38yNqxganEkb7Yk7c8rCqeUnvtElUBccgk9lz0RCfqBFhW+IOzp+DxnXgHJjm6MrjHg4VziQqYjwSlIkxOzbcSwmQCFYvg2mRuk3qtQjSPiBZEHJmY5zq8Lb/av4oSFFEZuQznVJ/1GQQnWcrXWVj9QtceOanwV8JEiLr0FoCLOpSRD3WaUjwjGSxZjLN8+iQNzDWQnJPp+ASZIYUlhNfHR/sgJl8aVQwQFRsl4WhBDn8KUpruQ2sVag3vyaXRPd7puUHIECH5nO/Sf9Pt9i8+31WllcZ7G4REqfnLrp5gMtQN1wqZ4aIOvz68FLjkUEc3vTDIkQBifHOYqiBX6HZegLq13GsDqMbh7c6fH+5OvaU3mOFE0NFjEeCOVw6tQbx4zg9j3X3qNc9XrsEfViYLHMnltKFTBBuueqJumadUNQh5s4+OiJeybxaVRAxhZrz/4M3oIrBa4TSwGsD1QZds8L69a9yfuNFME/AYAWiyygdJCMJhweTYr2Obiuza6nsM2cX7qYoS+3PoYX7K9yNFqSscQ/gIpkUMk8PRdRwjmaEOCph5DFZUtwW6iwvYKajHLYTEEMrYfXlX+HOD+6wuf0udROh9HEm21kkC+cYk6fVZxJtweY2E6eRMEa2xFw2znpv2Avc1OmZdRqPv0ZYjEQjqbKIfTvKabSvVjguVMT4wJEPphCcMTomIfJgOKk2gUtcuvJTdN/9DNntImJJjYOoG86XshNO0fGgVB3laaysas0VhCZTU+YTJJDtU2gQRIMko+KyuDgImyxLFqMHSTogTT1i6th6k0RjpL7B7mCN9vLn6Ky8QGf5aVi+CnSAJtTqoPUsKN8PJzTEjudal/GnNg3TNKta+D0LMvFX9l4IQRS50nTEe1kKv/xcmUYm+bZie0lXxRaO1z6tZbNQdPIM+Vw7sPoka9e+zM137+MZENX6JHEfY5RGYohcJrFqHifrQZLw/vPA+FmtPo25YYcLRYtSy8wO4bDFkZo6rD8Py88QrNVFCT57B0UfnPHCxz5XtPjooiLGI0GRHEtyTD5HagxyFak9jvfNYB+RCCXFm2CHsjCx+eqYinGIKSpToWCfLP72CCMKCeUX5JdcSiRPoawoHm+CZCimhq11MNIEu0o3aeCjVZbXn6dz+ccgehy4SgjMbwbSKKhf8/g+QTO1bL4FVN7mYTOmSoDFyUxKx6bP4To8d7K8ETGOHyn+VSaO8Wc9osNZyRBmSfeSPZf5p9/xMy1KC6k9hlz+cS7i+eyTb6Hxp3h7J+zcIiHoffj8c7vtWHv2Yb5TyQ65tGgY7nWKYGrgzDKdK6+BXwv7n04ssybf3zhGMv9ib6fCw4SKGI8MZQNZmRwN0IL166S1Ovf7XRoNixAh3mQSnU56perwvz3qLbjsjKkNM6ITDRKir2eShO85mogAAA9zSURBVAMGqIwmG6MmNEE83njUQGoiUpokvkPfr6HyJFee/Aqy/jIkSxCFDCNkikWPB/UYGcVk6p4ZR0aSmeqImsuYf8IaV1aWJcqzPOkFxW8dWIX6F+Byi/pgC9f7DjW3iTiPIQUxoA7J7LaqlhD/55jHVn1qIR5McF5SX8cRk1Cjs/EsLL8EyYUp8Ytlm+rsHvCw9ZcKi6EixiPFXkPJQE+hcYHa6lV277xFLNtEmgYVnjqwhVyX8xQ5ZY4bpk9THQoLQ+uXBrVqnmczOKFYvDaACJEQ75cQM/AtdpM27bXrrF96HlafB64RnGnOQ7yGpiBRfnchp+mBp90FtXiTj2UyPfhRTXInMWGK5E49K0AH6ob2tZ/js7c3idw9NO2hecykIfSnfKpXkzU6nV9ffcoQ+q/HiwNxpFpjO12nffkrwEVglfFNTMtalSlalpLMX5Hio4uKGE8MAvUWJELr4ouk/gPSrb8lkoywUFB/gDjGom2xuO41qA+5PG0UYTyZi7tHjCASMfARia8xcA36vklqV2itPsHS6rO0Go+xvvI0xBvAMtAE2pn0EdSlYgS8ZvZJxWDG5qaypFj8O7TyYA4PsxSY+9kcTxyH2fpEBcTisShgOQ/N11h7scO97/VxqtRND8MAxKGZ9+soaD9Tqx6mCft8f1gymUZdOUyeCtx5+m6HrV6Lq899HRpfBM6D2AUk4pH6tEibp77/VDgyVMR4gtB+F2kswcaLyL0f4LZ/hLCZuduHbJiHKJ3RsDYYiYEYNCLpCYLBSoRH6A2g72sk0qbeukBr5SpLzUtEF56D2mWCzXANWEZpkoQQ/CDQFj00swTheUq7k7TRHNekdhokiaBTaGG5CkmP1Zf/E278+f+ET99D9RZiewTpMGHkhDVdxoYF3U6OReIMPaks6xkFoxZ1hkb7CtJ6AeQaUFah7o/ykqwixUcbFTGeFMSjURLUpvI07XMvc/fWt9CCc8ziey/A+JDO1Gca412MTxvgGxhp4qIWm94izQ0aS9foNK/QuPgi2FWwHWCJoI5qMIzHkxqCHXWagl9KaGkeCZh9qXl7KjxwZNqAcdegFqlcQndrXHztH8Ib/zP+3r9FvUNsH5WEMU9kqVF8iXmM6oiGTpoaCk5iKGTxmSKZ7doYRGM06bBx/XVYeRbMKuCzYNOjzNVa4WFGRYwnBsVEDVLXxWods/YCA1YYSJuQEBq8uuDAApSdeHJPzqB+tGHS0IjcBd+LkBrwRBm5NWl1ztNsbsDSeeis0eysQLQGXAIugBfULKE0gBYmr7PEbcVkbaO7KXieTnM42heTHqKHw8j7da/65i3nsO14sMi1AaHs/H0MfIqxq0hzDeQSXL+FeVfY3vprDB9jTQ+TBcSLCd7GwckpJ8QsllPnTOUmo9ZMfLUQr5ZPLO4UUlSpZsc0WLC9ehKtE7Wfh40vQfQYQVrMswnJ2NWTMuH+9F8t6x5NVMR4QlAER4qxLcQLmA0G0VW6MsBjMV4y4ps+bB3KQJRULfg6aJNGbZ3YLlOPV9DaMs1zV7DNc0hzGVILtRWQBmHyyNVpIbckxKiJ0WEq80x2LTnTjto/jlE0YCHPyEKzyoOPG9u7xHlr24tYpz2Hxa5fCBOXjMhRgdgUozAbsPQNeO4KyTv/lP7Wn+K7d2jVoFEzGBPhELyGXT6MgvFh54/JRAeT2C8BQyhghgfV1MTdIwLTYcKJ7N7yLdTyXUp8BEZJTY9evMLSpZ+F1quEvuwZ7gMqxbuYJMacFGfdR0WKjy4qYjwRjGx/I4lvlStP/xIxn4KzwTHGzBia+Rg/twS5ROibwBJIB6QF0TLBSSbbk9CGJGeBBAtSJ8W5a3LCmuUAMdmygznOHD2OVuIryyQPvv69ah53Xhr/VEep43iac5/7dXbej9m5Y/D+A5x0yZObGw2W7LDNmQTGQ2eTGkx1CCsfG3HfzC/yKynrHoYSnwh5dhvNFloCiAFHTGraOB4nvvT6/9/e2f3GVZxx+Jk5Z3e93o0dx4bYIRSohECCqKgVCBBtL4pacdOqKvf9M/on9b5Se92LSqiIVu0FrUoRJOIjTXCCk/V6v86Ztxczc752N9iOiR38PpLt9e7ZOWt5zvnN+877AewgVGuiSjFG4wPM/XbaDmPl7KHC+MgRyoJWsU2QBTZobf4C33U9FBF/YHeCqjstpbT8wt6eWDBRBGPAReLPL+GdDxMVqZwih/u/zYYHtHs7kGf0rv6G1dUd7n/1F9zkX6Rym1aekYifPxKiliFaaL4coXetPsp5In4P0X8Q/JxteXE0OWJnQEYmF5lmz7D+xFvQfg7YqA5BIe6KcgxUGE+J6HoEcMaAdDHSCavdIsxzwVIcijXukn55sywjz32fvyQxWJsgIr6Tk9BYtc9H+9VOpTy2tHur4MaQXIHMYrb6rNsug5sp04N/k3Ab5ADvArcL3PbfPAPiXvey1+YK7RwaV7hCRQzOWKYy8V4U02bm1nHpi7S/9zbcb8NaK3zaBbm/R+HB5r9yTjBy2HYJyreCt/tc+FmGtVgcNl6l0nBrGShrXzYGi683ny98RhKiNSScc7G4Hid8RjlLxM4dDr8Am+K9Ebdg/CnsvsfuJ79nc/0+09mYxBqMc4grrcTyf98olFAJuqk1jKkdVAmWCdQd+NWx6+Ob4E4VO0NIyaVPZiwjt4+kK2T5Gu3uj9i8+lvovgqtK14wi1z+MKZtXjbf4O7XlaESUIvxNCnuJl4Qq/sd/tKWevxAlaU9qZi/wGvnau6qLF8i633h8UWK/553oRu6FK72pA/ba2zZjN3P/0y3M2Qyu0PbHJCYGcbFAJzDJcgv3Jk2IFIXxfqMXT5u7HNihFCRyeGMwbRbONtnMLzE88+9Dr0XId0mlGiqDB73FqW8hs7sHrhyFlFhPAVqcQn+HhI6TcRcwOoB8w/9CLHE1wKrcWEk4KJxlO8qvlJqC4C2Vykf0GVWobUKrMGVK2ytv8HtT/5A2v4Isuus2AE2r4hSxe1uTUjsiFZiw9kUkz5MnJum3AqoOS0OVZEm7MALYJyv45u0EHuJ/toPMZtvgtnGB65JIwI1fp5q4tAhJr5eG0pAhfEMUFyPRWPYIHgVN1XtuOLZej/FBQctpZobVl1TN4/Re8XjjKk/Fgsmwc+XDpL1MN0eT167DIP3uP2fP4L8D2GfFiMMUwxlzdkoklHgnAExYdzwrCEWJ3c0czqWRz8vmuExKMhgybHSws16SGuHKy//EvJtSHs4wMbzkcyd85CSqCg1VBhPAdP8pebmTJpHLLmwY6TpggO/8U5Qb5G07PDmuv5QNxgNXjgTWMrEnGJqWVukADkgT1tYniChDxe2efLZq4y+eo/B3vtsrN4jG9yk3bEIMw5GQ7qrKxgRbIiqcYnBmQTj2hixPvXDTDFFv8fQEDnSbJo8R/V5Sy4pBiF1OUZaTLMrXHr255C8BGwXC7oo16aaZtLUx/LABU6WcgRFARXGs0F1b+TQF+ejuYiPpHPNrUu9z5waC2eSrS+GvEM+8cLo+rDeobv1PN3JS+x9+Cd6/U32Dz4HBqz0O4iM8DKSeDel+CZlCFgp9wX9ieOyqlK5qXi+dLGWblXTMCR99iJiEengZIuNS69D6xqwQVZUZnLh3aZ439HSNMrlX33K6uQ9z6gwKsq5w4tOO8pn1Aa5BJM2pBtcfOVl2H2f4e4HZMMPaaf3MNkMY3IyWcGIoeXGWMkRpsRqSRJyECVUnpHylLXzV/YPyqcrWmQlJ5UJTrpM2KK1/gPMztuweg3nOkuq1h0/wMaLYj1hRS3I84sKo/JA9NbwXaUanWy879V2IG+DvQTmMmx2uXjxGbj/AoPb/ySbfULKAENOasa0ZILPN5xR7nEHF3/T1VAx6BoPln8+SXGyxpjn6G7/FC6+ArLFLHOh9kX9b5CHlLK6KOqewHlG8xiVk0PzwB4vYl6raSbFJ/io5ykwCT/vwt4H7N/9Owd7f2M1uU3qdknNGGPDbp8TxBnERZH0e4xSbHI23aVVGtaepJC3SbvXMJffha2fQHIVxxqZWKyJO+zVMLL5Eef/3uYLsQ7Vok+jKR7nFbUYFeW8MhfwFd2gDt/QKjSjBmAD1lfoX3yG/uj7DL78K6PRDUx+B+OGJIxImZKYnNRafJNtU6mKU4+0nkPqIpTTYyw7rG+9BZd/DLwAoddMYqqGaGnbHTlQTFGWoBajcnKoxfjYIJUvKO0175zMgYzSikwoW1PdwbAP7IH7gsnuh3z91T+Y7n9MP7nDqtlnxcyAnFiTXGpnWEYlIAcYy9N0Nn9FuvMOtF8CNoFZsO1iNn8oWMDiqacWo3JcVBiVk0W3Zs48wmJhLLNhHUIWBFKC9ei/DGkIVBkBe8At4AuYXmd88wOy4Q2m+zfp2DGWCZYpmBmGDEPZySO2VDMINtyCnLHkdJnJGkN5gcuv/g7kRcjWgE4wbF1w/Xph9BGy8xxeGGO6xrw0avDN+UWFUVHOGQ8qCBgzAwVXezVaT2VyRaxwM8PXYB0A94HPGH79MdN7/yXZ+4h2fgsnd0nMPu0k8+/JgvymviYwLgPxxcIP2EYuvEn/qXeg/xawAxK7xkhIOYnWa2zbNs/RbT11dyglKoyKohyRBXmHRvAi+TVwh9zdIOEODK4jd68zHHxByw7BDZFsjDEZkuSkZkLqBiCWyayHufAK7ad/Db3XgKeBC+UpG/uUi6xeKo9V2pTjosKoKMoRWLY7Gbt5jIFR+KpanSO49ymj0WcMBh8zPvgSm49I5S4d+zniElZ7r7Ly1M/gwmsg22DWKRptqzAqjxAVRkVRjkC1ok21+qkL33OEzP8mLaxp0QrFzPPpLZJkD5K7wADyAXL/BqP9jxCX0tt4A/rXgG1mrk8r7VCqYEXqGsK4CBVG5WFQYVQU5Yg0w3e8KPobSRJCaqrF6X2vD0OGd7dOoXic4S3NFKQPrILpIqGJd5GMUe2GrMKofMtoHqOiKEekkqxvIKZ2+JxCH73aFC1/qO/qgayEYXwtVKSz/DQqb8opoMKoKMrRqRqMNsWL47z9VlqR4C1EV6+TWq88XoxZqwtQ/akojwAVRkVRHg4BX7y0LCvX1DNvLSaNN/rsyUr/jUPrXzXgRlNnlZNG9xgVRTkeNUWqtm+ytUNKcawH7MRnpdlXlLoRuey0i1BxVE4CFUZFUU6Ih7PdFqVeNEdaVA81ynH9WJVI5fioK1VRlBPi5MQoGoyLVu3zxuSy+FQVR+V4qDAqinImOZwra5ko6s6jcnz+D0xtLpdif9DSAAAAAElFTkSuQmCC;" vertex="1" parent="1">
          <mxGeometry x="2050" y="-620" width="194" height="200.84" as="geometry" />
        </mxCell>
        <mxCell id="XovprL_gx-ZoLjHi6azD-63" value="&lt;b&gt;Grafana&lt;/b&gt;" style="rounded=0;whiteSpace=wrap;html=1;fontSize=36;" vertex="1" parent="1">
          <mxGeometry x="2067" y="-400" width="160" height="60" as="geometry" />
        </mxCell>
        <mxCell id="XovprL_gx-ZoLjHi6azD-55" value="" style="rounded=1;whiteSpace=wrap;html=1;fontSize=18;" vertex="1" parent="1">
          <mxGeometry x="4.690000000000001" y="-90" width="1550" height="830" as="geometry" />
        </mxCell>
        <mxCell id="G7RzPLKMRkM8X4vD6-xc-2" value="&lt;font style=&quot;font-size: 36px;&quot;&gt;Amazon CloudWatch&lt;/font&gt;" style="sketch=0;outlineConnect=0;fontColor=#232F3E;gradientColor=none;strokeColor=#ffffff;fillColor=#232F3E;dashed=0;verticalLabelPosition=middle;verticalAlign=bottom;align=center;html=1;whiteSpace=wrap;fontSize=10;fontStyle=1;spacing=3;shape=mxgraph.aws4.productIcon;prIcon=mxgraph.aws4.cloudwatch;" parent="1" vertex="1">
          <mxGeometry x="1330" y="260" width="126.12" height="220.7" as="geometry" />
        </mxCell>
        <mxCell id="XovprL_gx-ZoLjHi6azD-35" style="edgeStyle=orthogonalEdgeStyle;curved=1;orthogonalLoop=1;jettySize=auto;html=1;dashed=1;fontSize=36;" edge="1" parent="1" source="G7RzPLKMRkM8X4vD6-xc-12">
          <mxGeometry relative="1" as="geometry">
            <mxPoint x="1330" y="340" as="targetPoint" />
            <Array as="points">
              <mxPoint x="530" y="203" />
              <mxPoint x="530" y="340" />
            </Array>
          </mxGeometry>
        </mxCell>
        <mxCell id="G7RzPLKMRkM8X4vD6-xc-12" value="&lt;font style=&quot;font-size: 36px; font-weight: normal;&quot;&gt;Amazon&lt;br&gt;Load Balancer&lt;/font&gt;" style="sketch=0;outlineConnect=0;fontColor=#232F3E;gradientColor=none;strokeColor=#ffffff;fillColor=#232F3E;dashed=0;verticalLabelPosition=bottom;verticalAlign=top;align=center;html=1;fontSize=10;fontStyle=1;spacing=3;shape=mxgraph.aws4.productIcon;prIcon=mxgraph.aws4.network_load_balancer;labelPosition=center;" parent="1" vertex="1">
          <mxGeometry x="160.63484887625935" y="132.36363636363637" width="116.1198656677861" height="113.18181818181819" as="geometry" />
        </mxCell>
        <mxCell id="XovprL_gx-ZoLjHi6azD-37" style="edgeStyle=orthogonalEdgeStyle;curved=1;orthogonalLoop=1;jettySize=auto;html=1;dashed=1;fontSize=36;" edge="1" parent="1" source="pdvtcB01t5W5UgY1sVy7-33">
          <mxGeometry relative="1" as="geometry">
            <mxPoint x="1330" y="340" as="targetPoint" />
            <Array as="points">
              <mxPoint x="530" y="406" />
              <mxPoint x="530" y="340" />
            </Array>
          </mxGeometry>
        </mxCell>
        <mxCell id="pdvtcB01t5W5UgY1sVy7-33" value="&lt;font style=&quot;font-size: 36px;&quot;&gt;Amazon SQS&lt;/font&gt;" style="sketch=0;points=[[0,0,0],[0.25,0,0],[0.5,0,0],[0.75,0,0],[1,0,0],[0,1,0],[0.25,1,0],[0.5,1,0],[0.75,1,0],[1,1,0],[0,0.25,0],[0,0.5,0],[0,0.75,0],[1,0.25,0],[1,0.5,0],[1,0.75,0]];outlineConnect=0;fontColor=#232F3E;gradientColor=#FF4F8B;gradientDirection=north;fillColor=#BC1356;strokeColor=#ffffff;dashed=0;verticalLabelPosition=bottom;verticalAlign=top;align=center;html=1;fontSize=12;fontStyle=0;shape=mxgraph.aws4.resourceIcon;resIcon=mxgraph.aws4.sqs;" parent="1" vertex="1">
          <mxGeometry x="162.08634719710668" y="359.98082086689686" width="116.1198656677861" height="100.60606060606062" as="geometry" />
        </mxCell>
        <mxCell id="XovprL_gx-ZoLjHi6azD-39" style="edgeStyle=orthogonalEdgeStyle;curved=1;orthogonalLoop=1;jettySize=auto;html=1;dashed=1;fontSize=36;" edge="1" parent="1" source="pdvtcB01t5W5UgY1sVy7-37">
          <mxGeometry relative="1" as="geometry">
            <mxPoint x="1320" y="340" as="targetPoint" />
            <Array as="points">
              <mxPoint x="790" y="577" />
              <mxPoint x="790" y="340" />
            </Array>
          </mxGeometry>
        </mxCell>
        <mxCell id="pdvtcB01t5W5UgY1sVy7-37" value="&lt;font style=&quot;font-size: 36px;&quot;&gt;Amazon&lt;br&gt;Certificate Manager&lt;/font&gt;" style="sketch=0;points=[[0,0,0],[0.25,0,0],[0.5,0,0],[0.75,0,0],[1,0,0],[0,1,0],[0.25,1,0],[0.5,1,0],[0.75,1,0],[1,1,0],[0,0.25,0],[0,0.5,0],[0,0.75,0],[1,0.25,0],[1,0.5,0],[1,0.75,0]];outlineConnect=0;fontColor=#232F3E;gradientColor=#F54749;gradientDirection=north;fillColor=#C7131F;strokeColor=#ffffff;dashed=0;verticalLabelPosition=bottom;verticalAlign=top;align=center;html=1;fontSize=12;fontStyle=0;shape=mxgraph.aws4.resourceIcon;resIcon=mxgraph.aws4.certificate_manager_3;" parent="1" vertex="1">
          <mxGeometry x="162.08634719710668" y="532.0157268891446" width="116.1198656677861" height="100.60606060606062" as="geometry" />
        </mxCell>
        <mxCell id="XovprL_gx-ZoLjHi6azD-38" style="edgeStyle=orthogonalEdgeStyle;curved=1;orthogonalLoop=1;jettySize=auto;html=1;dashed=1;fontSize=36;" edge="1" parent="1" source="pdvtcB01t5W5UgY1sVy7-40">
          <mxGeometry relative="1" as="geometry">
            <mxPoint x="1330" y="340" as="targetPoint" />
            <Array as="points">
              <mxPoint x="790" y="23" />
              <mxPoint x="790" y="340" />
            </Array>
          </mxGeometry>
        </mxCell>
        <mxCell id="pdvtcB01t5W5UgY1sVy7-40" value="&lt;font style=&quot;font-size: 36px; font-weight: normal;&quot;&gt;Amazon RDS&lt;/font&gt;" style="sketch=0;outlineConnect=0;fontColor=#232F3E;gradientColor=none;strokeColor=#ffffff;fillColor=#232F3E;dashed=0;verticalLabelPosition=bottom;verticalAlign=top;align=center;html=1;fontSize=10;fontStyle=1;spacing=3;shape=mxgraph.aws4.productIcon;prIcon=mxgraph.aws4.rds;labelPosition=center;" parent="1" vertex="1">
          <mxGeometry x="162.08634719710668" y="-42.835826620636745" width="116.1198656677861" height="113.18181818181819" as="geometry" />
        </mxCell>
      </root>
    </mxGraphModel>
  </diagram>
</mxfile>
